solid CATIA STL
  facet normal  0.000000e+000  0.000000e+000 -1.000000e+000
    outer loop
      vertex -2.194235e+001  2.598748e+001  0.000000e+000
      vertex -2.414235e+001  2.598748e+001  0.000000e+000
      vertex -4.254235e+001  2.830799e+001  0.000000e+000
    endloop
  endfacet
  facet normal  0.000000e+000  0.000000e+000 -1.000000e+000
    outer loop
      vertex -2.194235e+001  2.598748e+001  0.000000e+000
      vertex -4.254235e+001  2.830799e+001  0.000000e+000
      vertex -3.542349e+000  2.830799e+001  0.000000e+000
    endloop
  endfacet
  facet normal  0.000000e+000  0.000000e+000 -1.000000e+000
    outer loop
      vertex -2.194235e+001  2.598748e+001  0.000000e+000
      vertex -3.542349e+000  2.830799e+001  0.000000e+000
      vertex -1.354235e+001  1.098748e+001  0.000000e+000
    endloop
  endfacet
  facet normal  0.000000e+000  0.000000e+000 -1.000000e+000
    outer loop
      vertex -2.194235e+001  2.598748e+001  0.000000e+000
      vertex -1.354235e+001  1.098748e+001  0.000000e+000
      vertex -2.194235e+001  1.098748e+001  0.000000e+000
    endloop
  endfacet
  facet normal  0.000000e+000  0.000000e+000 -1.000000e+000
    outer loop
      vertex -2.414235e+001  1.098748e+001  0.000000e+000
      vertex -3.254235e+001  1.098748e+001  0.000000e+000
      vertex -2.414235e+001  2.598748e+001  0.000000e+000
    endloop
  endfacet
  facet normal  -0.000000e+000  0.000000e+000 -1.000000e+000
    outer loop
      vertex -2.414235e+001  2.598748e+001  0.000000e+000
      vertex -3.254235e+001  1.098748e+001  0.000000e+000
      vertex -4.254235e+001  2.830799e+001  0.000000e+000
    endloop
  endfacet
  facet normal  -0.000000e+000  0.000000e+000 -1.000000e+000
    outer loop
      vertex -1.854235e+001  6.598747e+001  0.000000e+000
      vertex -3.542349e+000  6.598747e+001  0.000000e+000
      vertex -1.854235e+001  4.098748e+001  0.000000e+000
    endloop
  endfacet
  facet normal  0.000000e+000  0.000000e+000 -1.000000e+000
    outer loop
      vertex -1.854235e+001  4.098748e+001  0.000000e+000
      vertex -3.542349e+000  6.598747e+001  0.000000e+000
      vertex -3.542349e+000  2.830799e+001  0.000000e+000
    endloop
  endfacet
  facet normal  0.000000e+000  0.000000e+000 -1.000000e+000
    outer loop
      vertex -1.854235e+001  4.098748e+001  0.000000e+000
      vertex -3.542349e+000  2.830799e+001  0.000000e+000
      vertex -2.754235e+001  4.098748e+001  0.000000e+000
    endloop
  endfacet
  facet normal  0.000000e+000  -0.000000e+000 -1.000000e+000
    outer loop
      vertex -2.754235e+001  4.098748e+001  0.000000e+000
      vertex -3.542349e+000  2.830799e+001  0.000000e+000
      vertex -4.254235e+001  2.830799e+001  0.000000e+000
    endloop
  endfacet
  facet normal  0.000000e+000  0.000000e+000 -1.000000e+000
    outer loop
      vertex -2.754235e+001  4.098748e+001  0.000000e+000
      vertex -4.254235e+001  2.830799e+001  0.000000e+000
      vertex -2.754235e+001  6.598747e+001  0.000000e+000
    endloop
  endfacet
  facet normal  -0.000000e+000  0.000000e+000 -1.000000e+000
    outer loop
      vertex -2.754235e+001  6.598747e+001  0.000000e+000
      vertex -4.254235e+001  2.830799e+001  0.000000e+000
      vertex -4.254235e+001  6.598747e+001  0.000000e+000
    endloop
  endfacet
  facet normal  0.000000e+000  0.000000e+000  1.000000e+000
    outer loop
      vertex -2.194235e+001  2.598748e+001  2.000000e+000
      vertex -2.194235e+001  1.098748e+001  2.000000e+000
      vertex -1.354235e+001  1.098748e+001  2.000000e+000
    endloop
  endfacet
  facet normal  0.000000e+000  -0.000000e+000  1.000000e+000
    outer loop
      vertex -2.194235e+001  2.598748e+001  2.000000e+000
      vertex -1.354235e+001  1.098748e+001  2.000000e+000
      vertex -3.542349e+000  2.830799e+001  2.000000e+000
    endloop
  endfacet
  facet normal  0.000000e+000  0.000000e+000  1.000000e+000
    outer loop
      vertex -2.194235e+001  2.598748e+001  2.000000e+000
      vertex -3.542349e+000  2.830799e+001  2.000000e+000
      vertex -4.254235e+001  2.830799e+001  2.000000e+000
    endloop
  endfacet
  facet normal  0.000000e+000  0.000000e+000  1.000000e+000
    outer loop
      vertex -2.194235e+001  2.598748e+001  2.000000e+000
      vertex -4.254235e+001  2.830799e+001  2.000000e+000
      vertex -2.414235e+001  2.598748e+001  2.000000e+000
    endloop
  endfacet
  facet normal  0.000000e+000  0.000000e+000  9.999999e-001
    outer loop
      vertex -3.254235e+001  1.098748e+001  2.000000e+000
      vertex -2.414235e+001  1.098748e+001  2.000000e+000
      vertex -4.254235e+001  2.830799e+001  2.000000e+000
    endloop
  endfacet
  facet normal  0.000000e+000  0.000000e+000  1.000000e+000
    outer loop
      vertex -4.254235e+001  2.830799e+001  2.000000e+000
      vertex -2.414235e+001  1.098748e+001  2.000000e+000
      vertex -2.414235e+001  2.598748e+001  2.000000e+000
    endloop
  endfacet
  facet normal  -0.000000e+000  0.000000e+000  1.000000e+000
    outer loop
      vertex -3.542349e+000  6.598747e+001  2.000000e+000
      vertex -1.854235e+001  6.598747e+001  2.000000e+000
      vertex -3.542349e+000  2.830799e+001  2.000000e+000
    endloop
  endfacet
  facet normal  0.000000e+000  0.000000e+000  1.000000e+000
    outer loop
      vertex -3.542349e+000  2.830799e+001  2.000000e+000
      vertex -1.854235e+001  6.598747e+001  2.000000e+000
      vertex -1.854235e+001  4.098748e+001  2.000000e+000
    endloop
  endfacet
  facet normal  0.000000e+000  0.000000e+000  1.000000e+000
    outer loop
      vertex -3.542349e+000  2.830799e+001  2.000000e+000
      vertex -1.854235e+001  4.098748e+001  2.000000e+000
      vertex -4.254235e+001  2.830799e+001  2.000000e+000
    endloop
  endfacet
  facet normal  0.000000e+000  0.000000e+000  1.000000e+000
    outer loop
      vertex -4.254235e+001  2.830799e+001  2.000000e+000
      vertex -1.854235e+001  4.098748e+001  2.000000e+000
      vertex -2.754235e+001  4.098748e+001  2.000000e+000
    endloop
  endfacet
  facet normal  0.000000e+000  0.000000e+000  1.000000e+000
    outer loop
      vertex -4.254235e+001  2.830799e+001  2.000000e+000
      vertex -2.754235e+001  4.098748e+001  2.000000e+000
      vertex -4.254235e+001  6.598747e+001  2.000000e+000
    endloop
  endfacet
  facet normal  -0.000000e+000  0.000000e+000  1.000000e+000
    outer loop
      vertex -4.254235e+001  6.598747e+001  2.000000e+000
      vertex -2.754235e+001  4.098748e+001  2.000000e+000
      vertex -2.754235e+001  6.598747e+001  2.000000e+000
    endloop
  endfacet
  facet normal  0.000000e+000 -1.000000e+000  0.000000e+000
    outer loop
      vertex -2.194235e+001  1.098748e+001  2.000000e+000
      vertex -2.194235e+001  1.098748e+001  0.000000e+000
      vertex -1.354235e+001  1.098748e+001  2.000000e+000
    endloop
  endfacet
  facet normal  0.000000e+000 -1.000000e+000  -0.000000e+000
    outer loop
      vertex -1.354235e+001  1.098748e+001  2.000000e+000
      vertex -2.194235e+001  1.098748e+001  0.000000e+000
      vertex -1.354235e+001  1.098748e+001  0.000000e+000
    endloop
  endfacet
  facet normal  1.000000e+000  0.000000e+000  0.000000e+000
    outer loop
      vertex -3.542349e+000  2.830799e+001  2.000000e+000
      vertex -3.542349e+000  2.830799e+001  0.000000e+000
      vertex -3.542349e+000  6.598747e+001  2.000000e+000
    endloop
  endfacet
  facet normal  1.000000e+000  0.000000e+000  0.000000e+000
    outer loop
      vertex -3.542349e+000  6.598747e+001  2.000000e+000
      vertex -3.542349e+000  2.830799e+001  0.000000e+000
      vertex -3.542349e+000  6.598747e+001  0.000000e+000
    endloop
  endfacet
  facet normal  8.660254e-001 -5.000000e-001  0.000000e+000
    outer loop
      vertex -1.354235e+001  1.098748e+001  2.000000e+000
      vertex -1.354235e+001  1.098748e+001  0.000000e+000
      vertex -3.542349e+000  2.830799e+001  2.000000e+000
    endloop
  endfacet
  facet normal  8.660254e-001 -5.000000e-001  0.000000e+000
    outer loop
      vertex -3.542349e+000  2.830799e+001  2.000000e+000
      vertex -1.354235e+001  1.098748e+001  0.000000e+000
      vertex -3.542349e+000  2.830799e+001  0.000000e+000
    endloop
  endfacet
  facet normal  0.000000e+000  0.000000e+000 -1.000000e+000
    outer loop
      vertex  2.194235e+001  1.098748e+001  0.000000e+000
      vertex  1.354235e+001  1.098748e+001  0.000000e+000
      vertex  2.194235e+001  2.598748e+001  0.000000e+000
    endloop
  endfacet
  facet normal  0.000000e+000  0.000000e+000 -1.000000e+000
    outer loop
      vertex  3.542349e+000  2.830799e+001  0.000000e+000
      vertex  3.542349e+000  6.598747e+001  0.000000e+000
      vertex  1.854235e+001  6.598747e+001  0.000000e+000
    endloop
  endfacet
  facet normal  0.000000e+000  -0.000000e+000 -1.000000e+000
    outer loop
      vertex  3.542349e+000  2.830799e+001  0.000000e+000
      vertex  1.854235e+001  6.598747e+001  0.000000e+000
      vertex  1.854235e+001  4.098748e+001  0.000000e+000
    endloop
  endfacet
  facet normal  0.000000e+000  -0.000000e+000 -1.000000e+000
    outer loop
      vertex  3.542349e+000  2.830799e+001  0.000000e+000
      vertex  1.854235e+001  4.098748e+001  0.000000e+000
      vertex  2.754235e+001  4.098748e+001  0.000000e+000
    endloop
  endfacet
  facet normal  0.000000e+000  -0.000000e+000 -1.000000e+000
    outer loop
      vertex  3.542349e+000  2.830799e+001  0.000000e+000
      vertex  2.754235e+001  4.098748e+001  0.000000e+000
      vertex  4.254235e+001  2.830799e+001  0.000000e+000
    endloop
  endfacet
  facet normal  -0.000000e+000  0.000000e+000 -1.000000e+000
    outer loop
      vertex  3.542349e+000  2.830799e+001  0.000000e+000
      vertex  4.254235e+001  2.830799e+001  0.000000e+000
      vertex  2.194235e+001  2.598748e+001  0.000000e+000
    endloop
  endfacet
  facet normal  -0.000000e+000  0.000000e+000 -1.000000e+000
    outer loop
      vertex  3.542349e+000  2.830799e+001  0.000000e+000
      vertex  2.194235e+001  2.598748e+001  0.000000e+000
      vertex  1.354235e+001  1.098748e+001  0.000000e+000
    endloop
  endfacet
  facet normal  0.000000e+000  0.000000e+000 -1.000000e+000
    outer loop
      vertex  4.254235e+001  2.830799e+001  0.000000e+000
      vertex  2.754235e+001  4.098748e+001  0.000000e+000
      vertex  4.254235e+001  6.598748e+001  0.000000e+000
    endloop
  endfacet
  facet normal  -0.000000e+000  0.000000e+000 -1.000000e+000
    outer loop
      vertex  4.254235e+001  6.598748e+001  0.000000e+000
      vertex  2.754235e+001  4.098748e+001  0.000000e+000
      vertex  2.754235e+001  6.598748e+001  0.000000e+000
    endloop
  endfacet
  facet normal  0.000000e+000  0.000000e+000 -9.999999e-001
    outer loop
      vertex  3.254235e+001  1.098748e+001  0.000000e+000
      vertex  2.414235e+001  1.098748e+001  0.000000e+000
      vertex  4.254235e+001  2.830799e+001  0.000000e+000
    endloop
  endfacet
  facet normal  0.000000e+000  0.000000e+000 -1.000000e+000
    outer loop
      vertex  4.254235e+001  2.830799e+001  0.000000e+000
      vertex  2.414235e+001  1.098748e+001  0.000000e+000
      vertex  2.414235e+001  2.598748e+001  0.000000e+000
    endloop
  endfacet
  facet normal  0.000000e+000  0.000000e+000 -1.000000e+000
    outer loop
      vertex  4.254235e+001  2.830799e+001  0.000000e+000
      vertex  2.414235e+001  2.598748e+001  0.000000e+000
      vertex  2.194235e+001  2.598748e+001  0.000000e+000
    endloop
  endfacet
  facet normal  0.000000e+000  0.000000e+000  1.000000e+000
    outer loop
      vertex  2.194235e+001  2.598748e+001  2.000000e+000
      vertex  1.354235e+001  1.098748e+001  2.000000e+000
      vertex  2.194235e+001  1.098748e+001  2.000000e+000
    endloop
  endfacet
  facet normal  0.000000e+000  -0.000000e+000  1.000000e+000
    outer loop
      vertex  3.542349e+000  2.830799e+001  2.000000e+000
      vertex  1.354235e+001  1.098748e+001  2.000000e+000
      vertex  2.194235e+001  2.598748e+001  2.000000e+000
    endloop
  endfacet
  facet normal  0.000000e+000  -0.000000e+000  1.000000e+000
    outer loop
      vertex  3.542349e+000  2.830799e+001  2.000000e+000
      vertex  2.194235e+001  2.598748e+001  2.000000e+000
      vertex  4.254235e+001  2.830799e+001  2.000000e+000
    endloop
  endfacet
  facet normal  0.000000e+000  0.000000e+000  1.000000e+000
    outer loop
      vertex  3.542349e+000  2.830799e+001  2.000000e+000
      vertex  4.254235e+001  2.830799e+001  2.000000e+000
      vertex  2.754235e+001  4.098748e+001  2.000000e+000
    endloop
  endfacet
  facet normal  0.000000e+000  0.000000e+000  1.000000e+000
    outer loop
      vertex  3.542349e+000  2.830799e+001  2.000000e+000
      vertex  2.754235e+001  4.098748e+001  2.000000e+000
      vertex  1.854235e+001  4.098748e+001  2.000000e+000
    endloop
  endfacet
  facet normal  0.000000e+000  -0.000000e+000  1.000000e+000
    outer loop
      vertex  3.542349e+000  2.830799e+001  2.000000e+000
      vertex  1.854235e+001  4.098748e+001  2.000000e+000
      vertex  1.854235e+001  6.598747e+001  2.000000e+000
    endloop
  endfacet
  facet normal  0.000000e+000  0.000000e+000  1.000000e+000
    outer loop
      vertex  3.542349e+000  2.830799e+001  2.000000e+000
      vertex  1.854235e+001  6.598747e+001  2.000000e+000
      vertex  3.542349e+000  6.598747e+001  2.000000e+000
    endloop
  endfacet
  facet normal  0.000000e+000  0.000000e+000  9.999999e-001
    outer loop
      vertex  2.754235e+001  4.098748e+001  2.000000e+000
      vertex  4.254235e+001  2.830799e+001  2.000000e+000
      vertex  2.754235e+001  6.598748e+001  2.000000e+000
    endloop
  endfacet
  facet normal  -0.000000e+000  0.000000e+000  1.000000e+000
    outer loop
      vertex  2.754235e+001  6.598748e+001  2.000000e+000
      vertex  4.254235e+001  2.830799e+001  2.000000e+000
      vertex  4.254235e+001  6.598748e+001  2.000000e+000
    endloop
  endfacet
  facet normal  0.000000e+000  0.000000e+000  1.000000e+000
    outer loop
      vertex  2.414235e+001  1.098748e+001  2.000000e+000
      vertex  3.254235e+001  1.098748e+001  2.000000e+000
      vertex  2.414235e+001  2.598748e+001  2.000000e+000
    endloop
  endfacet
  facet normal  -0.000000e+000  0.000000e+000  1.000000e+000
    outer loop
      vertex  2.414235e+001  2.598748e+001  2.000000e+000
      vertex  3.254235e+001  1.098748e+001  2.000000e+000
      vertex  4.254235e+001  2.830799e+001  2.000000e+000
    endloop
  endfacet
  facet normal  0.000000e+000  0.000000e+000  1.000000e+000
    outer loop
      vertex  2.414235e+001  2.598748e+001  2.000000e+000
      vertex  4.254235e+001  2.830799e+001  2.000000e+000
      vertex  2.194235e+001  2.598748e+001  2.000000e+000
    endloop
  endfacet
  facet normal  0.000000e+000 -1.000000e+000  0.000000e+000
    outer loop
      vertex  2.414235e+001  1.098748e+001  2.000000e+000
      vertex  2.414235e+001  1.098748e+001  0.000000e+000
      vertex  3.254235e+001  1.098748e+001  2.000000e+000
    endloop
  endfacet
  facet normal  0.000000e+000 -1.000000e+000  -0.000000e+000
    outer loop
      vertex  3.254235e+001  1.098748e+001  2.000000e+000
      vertex  2.414235e+001  1.098748e+001  0.000000e+000
      vertex  3.254235e+001  1.098748e+001  0.000000e+000
    endloop
  endfacet
  facet normal  1.000000e+000  1.012407e-007  0.000000e+000
    outer loop
      vertex  4.254235e+001  6.598748e+001  0.000000e+000
      vertex  4.254235e+001  6.598748e+001  2.000000e+000
      vertex  4.254235e+001  2.830799e+001  0.000000e+000
    endloop
  endfacet
  facet normal  1.000000e+000  1.012407e-007  -0.000000e+000
    outer loop
      vertex  4.254235e+001  2.830799e+001  0.000000e+000
      vertex  4.254235e+001  6.598748e+001  2.000000e+000
      vertex  4.254235e+001  2.830799e+001  2.000000e+000
    endloop
  endfacet
  facet normal  8.660254e-001 -5.000000e-001  0.000000e+000
    outer loop
      vertex  3.254235e+001  1.098748e+001  2.000000e+000
      vertex  3.254235e+001  1.098748e+001  0.000000e+000
      vertex  4.254235e+001  2.830799e+001  2.000000e+000
    endloop
  endfacet
  facet normal  8.660254e-001 -5.000000e-001  0.000000e+000
    outer loop
      vertex  4.254235e+001  2.830799e+001  2.000000e+000
      vertex  3.254235e+001  1.098748e+001  0.000000e+000
      vertex  4.254235e+001  2.830799e+001  0.000000e+000
    endloop
  endfacet
  facet normal  0.000000e+000 -1.000000e+000  0.000000e+000
    outer loop
      vertex  1.354235e+001  1.098748e+001  2.000000e+000
      vertex  1.354235e+001  1.098748e+001  0.000000e+000
      vertex  2.194235e+001  1.098748e+001  2.000000e+000
    endloop
  endfacet
  facet normal  0.000000e+000 -1.000000e+000  -0.000000e+000
    outer loop
      vertex  2.194235e+001  1.098748e+001  2.000000e+000
      vertex  1.354235e+001  1.098748e+001  0.000000e+000
      vertex  2.194235e+001  1.098748e+001  0.000000e+000
    endloop
  endfacet
  facet normal -1.000000e+000  0.000000e+000  0.000000e+000
    outer loop
      vertex  3.542349e+000  2.830799e+001  0.000000e+000
      vertex  3.542349e+000  2.830799e+001  2.000000e+000
      vertex  3.542349e+000  6.598747e+001  0.000000e+000
    endloop
  endfacet
  facet normal -1.000000e+000  0.000000e+000  0.000000e+000
    outer loop
      vertex  3.542349e+000  6.598747e+001  0.000000e+000
      vertex  3.542349e+000  2.830799e+001  2.000000e+000
      vertex  3.542349e+000  6.598747e+001  2.000000e+000
    endloop
  endfacet
  facet normal -8.660254e-001 -5.000000e-001  -0.000000e+000
    outer loop
      vertex  1.354235e+001  1.098748e+001  0.000000e+000
      vertex  1.354235e+001  1.098748e+001  2.000000e+000
      vertex  3.542349e+000  2.830799e+001  0.000000e+000
    endloop
  endfacet
  facet normal -8.660254e-001 -5.000000e-001  0.000000e+000
    outer loop
      vertex  3.542349e+000  2.830799e+001  0.000000e+000
      vertex  1.354235e+001  1.098748e+001  2.000000e+000
      vertex  3.542349e+000  2.830799e+001  2.000000e+000
    endloop
  endfacet
  facet normal  0.000000e+000 -1.000000e+000  0.000000e+000
    outer loop
      vertex -3.254235e+001  1.098748e+001  2.000000e+000
      vertex -3.254235e+001  1.098748e+001  0.000000e+000
      vertex -2.414235e+001  1.098748e+001  2.000000e+000
    endloop
  endfacet
  facet normal  0.000000e+000 -1.000000e+000  -0.000000e+000
    outer loop
      vertex -2.414235e+001  1.098748e+001  2.000000e+000
      vertex -3.254235e+001  1.098748e+001  0.000000e+000
      vertex -2.414235e+001  1.098748e+001  0.000000e+000
    endloop
  endfacet
  facet normal -1.000000e+000  0.000000e+000  0.000000e+000
    outer loop
      vertex -4.254235e+001  6.598747e+001  2.000000e+000
      vertex -4.254235e+001  6.598747e+001  0.000000e+000
      vertex -4.254235e+001  2.830799e+001  2.000000e+000
    endloop
  endfacet
  facet normal -1.000000e+000  0.000000e+000  0.000000e+000
    outer loop
      vertex -4.254235e+001  2.830799e+001  2.000000e+000
      vertex -4.254235e+001  6.598747e+001  0.000000e+000
      vertex -4.254235e+001  2.830799e+001  0.000000e+000
    endloop
  endfacet
  facet normal -8.660254e-001 -5.000000e-001  -0.000000e+000
    outer loop
      vertex -3.254235e+001  1.098748e+001  0.000000e+000
      vertex -3.254235e+001  1.098748e+001  2.000000e+000
      vertex -4.254235e+001  2.830799e+001  0.000000e+000
    endloop
  endfacet
  facet normal -8.660254e-001 -5.000000e-001  0.000000e+000
    outer loop
      vertex -4.254235e+001  2.830799e+001  0.000000e+000
      vertex -3.254235e+001  1.098748e+001  2.000000e+000
      vertex -4.254235e+001  2.830799e+001  2.000000e+000
    endloop
  endfacet
  facet normal  1.000000e+000  0.000000e+000  0.000000e+000
    outer loop
      vertex  2.194235e+001  2.598748e+001  0.000000e+000
      vertex  2.194235e+001  2.598748e+001  2.000000e+000
      vertex  2.194235e+001  1.098748e+001  0.000000e+000
    endloop
  endfacet
  facet normal  1.000000e+000  0.000000e+000  0.000000e+000
    outer loop
      vertex  2.194235e+001  1.098748e+001  0.000000e+000
      vertex  2.194235e+001  2.598748e+001  2.000000e+000
      vertex  2.194235e+001  1.098748e+001  2.000000e+000
    endloop
  endfacet
  facet normal  0.000000e+000 -1.000000e+000  -0.000000e+000
    outer loop
      vertex  2.414235e+001  2.598748e+001  0.000000e+000
      vertex  2.414235e+001  2.598748e+001  2.000000e+000
      vertex  2.194235e+001  2.598748e+001  0.000000e+000
    endloop
  endfacet
  facet normal  0.000000e+000 -1.000000e+000  0.000000e+000
    outer loop
      vertex  2.194235e+001  2.598748e+001  0.000000e+000
      vertex  2.414235e+001  2.598748e+001  2.000000e+000
      vertex  2.194235e+001  2.598748e+001  2.000000e+000
    endloop
  endfacet
  facet normal -1.000000e+000  0.000000e+000  0.000000e+000
    outer loop
      vertex  2.414235e+001  1.098748e+001  0.000000e+000
      vertex  2.414235e+001  1.098748e+001  2.000000e+000
      vertex  2.414235e+001  2.598748e+001  0.000000e+000
    endloop
  endfacet
  facet normal -1.000000e+000  0.000000e+000  0.000000e+000
    outer loop
      vertex  2.414235e+001  2.598748e+001  0.000000e+000
      vertex  2.414235e+001  1.098748e+001  2.000000e+000
      vertex  2.414235e+001  2.598748e+001  2.000000e+000
    endloop
  endfacet
  facet normal  1.000000e+000  0.000000e+000  0.000000e+000
    outer loop
      vertex -2.414235e+001  2.598748e+001  0.000000e+000
      vertex -2.414235e+001  2.598748e+001  2.000000e+000
      vertex -2.414235e+001  1.098748e+001  0.000000e+000
    endloop
  endfacet
  facet normal  1.000000e+000  0.000000e+000  0.000000e+000
    outer loop
      vertex -2.414235e+001  1.098748e+001  0.000000e+000
      vertex -2.414235e+001  2.598748e+001  2.000000e+000
      vertex -2.414235e+001  1.098748e+001  2.000000e+000
    endloop
  endfacet
  facet normal  0.000000e+000 -1.000000e+000  -0.000000e+000
    outer loop
      vertex -2.194235e+001  2.598748e+001  0.000000e+000
      vertex -2.194235e+001  2.598748e+001  2.000000e+000
      vertex -2.414235e+001  2.598748e+001  0.000000e+000
    endloop
  endfacet
  facet normal  0.000000e+000 -1.000000e+000  0.000000e+000
    outer loop
      vertex -2.414235e+001  2.598748e+001  0.000000e+000
      vertex -2.194235e+001  2.598748e+001  2.000000e+000
      vertex -2.414235e+001  2.598748e+001  2.000000e+000
    endloop
  endfacet
  facet normal -1.000000e+000  0.000000e+000  0.000000e+000
    outer loop
      vertex -2.194235e+001  1.098748e+001  0.000000e+000
      vertex -2.194235e+001  1.098748e+001  2.000000e+000
      vertex -2.194235e+001  2.598748e+001  0.000000e+000
    endloop
  endfacet
  facet normal -1.000000e+000  0.000000e+000  0.000000e+000
    outer loop
      vertex -2.194235e+001  2.598748e+001  0.000000e+000
      vertex -2.194235e+001  1.098748e+001  2.000000e+000
      vertex -2.194235e+001  2.598748e+001  2.000000e+000
    endloop
  endfacet
  facet normal  0.000000e+000  1.000000e+000  -0.000000e+000
    outer loop
      vertex  1.854235e+001  6.598747e+001  2.000000e+000
      vertex  1.854235e+001  6.598747e+001  0.000000e+000
      vertex  3.542349e+000  6.598747e+001  2.000000e+000
    endloop
  endfacet
  facet normal  0.000000e+000  1.000000e+000  0.000000e+000
    outer loop
      vertex  3.542349e+000  6.598747e+001  2.000000e+000
      vertex  1.854235e+001  6.598747e+001  0.000000e+000
      vertex  3.542349e+000  6.598747e+001  0.000000e+000
    endloop
  endfacet
  facet normal  1.000000e+000  0.000000e+000  0.000000e+000
    outer loop
      vertex  1.854235e+001  6.598747e+001  0.000000e+000
      vertex  1.854235e+001  6.598747e+001  2.000000e+000
      vertex  1.854235e+001  4.098748e+001  0.000000e+000
    endloop
  endfacet
  facet normal  1.000000e+000  0.000000e+000  0.000000e+000
    outer loop
      vertex  1.854235e+001  4.098748e+001  0.000000e+000
      vertex  1.854235e+001  6.598747e+001  2.000000e+000
      vertex  1.854235e+001  4.098748e+001  2.000000e+000
    endloop
  endfacet
  facet normal  0.000000e+000  1.000000e+000  -0.000000e+000
    outer loop
      vertex  2.754235e+001  4.098748e+001  2.000000e+000
      vertex  2.754235e+001  4.098748e+001  0.000000e+000
      vertex  1.854235e+001  4.098748e+001  2.000000e+000
    endloop
  endfacet
  facet normal  0.000000e+000  1.000000e+000  0.000000e+000
    outer loop
      vertex  1.854235e+001  4.098748e+001  2.000000e+000
      vertex  2.754235e+001  4.098748e+001  0.000000e+000
      vertex  1.854235e+001  4.098748e+001  0.000000e+000
    endloop
  endfacet
  facet normal -1.000000e+000  0.000000e+000  0.000000e+000
    outer loop
      vertex  2.754235e+001  4.098748e+001  0.000000e+000
      vertex  2.754235e+001  4.098748e+001  2.000000e+000
      vertex  2.754235e+001  6.598748e+001  0.000000e+000
    endloop
  endfacet
  facet normal -1.000000e+000  0.000000e+000  0.000000e+000
    outer loop
      vertex  2.754235e+001  6.598748e+001  0.000000e+000
      vertex  2.754235e+001  4.098748e+001  2.000000e+000
      vertex  2.754235e+001  6.598748e+001  2.000000e+000
    endloop
  endfacet
  facet normal  0.000000e+000  1.000000e+000  -0.000000e+000
    outer loop
      vertex  4.254235e+001  6.598748e+001  2.000000e+000
      vertex  4.254235e+001  6.598748e+001  0.000000e+000
      vertex  2.754235e+001  6.598748e+001  2.000000e+000
    endloop
  endfacet
  facet normal  0.000000e+000  1.000000e+000  0.000000e+000
    outer loop
      vertex  2.754235e+001  6.598748e+001  2.000000e+000
      vertex  4.254235e+001  6.598748e+001  0.000000e+000
      vertex  2.754235e+001  6.598748e+001  0.000000e+000
    endloop
  endfacet
  facet normal  0.000000e+000  9.999999e-001  -0.000000e+000
    outer loop
      vertex -2.754235e+001  6.598747e+001  2.000000e+000
      vertex -2.754235e+001  6.598747e+001  0.000000e+000
      vertex -4.254235e+001  6.598747e+001  2.000000e+000
    endloop
  endfacet
  facet normal  0.000000e+000  9.999999e-001  0.000000e+000
    outer loop
      vertex -4.254235e+001  6.598747e+001  2.000000e+000
      vertex -2.754235e+001  6.598747e+001  0.000000e+000
      vertex -4.254235e+001  6.598747e+001  0.000000e+000
    endloop
  endfacet
  facet normal  1.000000e+000  0.000000e+000  0.000000e+000
    outer loop
      vertex -2.754235e+001  4.098748e+001  2.000000e+000
      vertex -2.754235e+001  4.098748e+001  0.000000e+000
      vertex -2.754235e+001  6.598747e+001  2.000000e+000
    endloop
  endfacet
  facet normal  1.000000e+000  0.000000e+000  0.000000e+000
    outer loop
      vertex -2.754235e+001  6.598747e+001  2.000000e+000
      vertex -2.754235e+001  4.098748e+001  0.000000e+000
      vertex -2.754235e+001  6.598747e+001  0.000000e+000
    endloop
  endfacet
  facet normal  0.000000e+000  1.000000e+000  -0.000000e+000
    outer loop
      vertex -1.854235e+001  4.098748e+001  2.000000e+000
      vertex -1.854235e+001  4.098748e+001  0.000000e+000
      vertex -2.754235e+001  4.098748e+001  2.000000e+000
    endloop
  endfacet
  facet normal  0.000000e+000  1.000000e+000  0.000000e+000
    outer loop
      vertex -2.754235e+001  4.098748e+001  2.000000e+000
      vertex -1.854235e+001  4.098748e+001  0.000000e+000
      vertex -2.754235e+001  4.098748e+001  0.000000e+000
    endloop
  endfacet
  facet normal -1.000000e+000  0.000000e+000  0.000000e+000
    outer loop
      vertex -1.854235e+001  6.598747e+001  2.000000e+000
      vertex -1.854235e+001  6.598747e+001  0.000000e+000
      vertex -1.854235e+001  4.098748e+001  2.000000e+000
    endloop
  endfacet
  facet normal -1.000000e+000  0.000000e+000  0.000000e+000
    outer loop
      vertex -1.854235e+001  4.098748e+001  2.000000e+000
      vertex -1.854235e+001  6.598747e+001  0.000000e+000
      vertex -1.854235e+001  4.098748e+001  0.000000e+000
    endloop
  endfacet
  facet normal  0.000000e+000  1.000000e+000  -0.000000e+000
    outer loop
      vertex -3.542349e+000  6.598747e+001  2.000000e+000
      vertex -3.542349e+000  6.598747e+001  0.000000e+000
      vertex -1.854235e+001  6.598747e+001  2.000000e+000
    endloop
  endfacet
  facet normal  0.000000e+000  1.000000e+000  0.000000e+000
    outer loop
      vertex -1.854235e+001  6.598747e+001  2.000000e+000
      vertex -3.542349e+000  6.598747e+001  0.000000e+000
      vertex -1.854235e+001  6.598747e+001  0.000000e+000
    endloop
  endfacet
endsolid CATIA STL
