solid CATIA STL
  facet normal  0.000000e+000  0.000000e+000  1.000000e+000
    outer loop
      vertex  8.528448e+000  3.747438e+000  2.000000e+000
      vertex  9.414959e+000  5.013507e+000  2.000000e+000
      vertex  9.003728e+000  5.659010e+000  2.000000e+000
    endloop
  endfacet
  facet normal  0.000000e+000  0.000000e+000  9.999999e-001
    outer loop
      vertex  1.177831e+001  4.320477e+000  2.000000e+000
      vertex  1.115318e+001  7.865785e+000  2.000000e+000
      vertex  1.097334e+001  6.006307e+000  2.000000e+000
    endloop
  endfacet
  facet normal  0.000000e+000  0.000000e+000  1.000000e+000
    outer loop
      vertex  1.177831e+001  4.320477e+000  2.000000e+000
      vertex  1.097334e+001  6.006307e+000  2.000000e+000
      vertex  1.080769e+001  5.259082e+000  2.000000e+000
    endloop
  endfacet
  facet normal  0.000000e+000  0.000000e+000  1.000000e+000
    outer loop
      vertex  1.177831e+001  4.320477e+000  2.000000e+000
      vertex  1.080769e+001  5.259082e+000  2.000000e+000
      vertex  1.016218e+001  4.847851e+000  2.000000e+000
    endloop
  endfacet
  facet normal  0.000000e+000  0.000000e+000  1.000000e+000
    outer loop
      vertex  1.177831e+001  4.320477e+000  2.000000e+000
      vertex  1.016218e+001  4.847851e+000  2.000000e+000
      vertex  9.414959e+000  5.013507e+000  2.000000e+000
    endloop
  endfacet
  facet normal  0.000000e+000  0.000000e+000  9.999999e-001
    outer loop
      vertex  1.177831e+001  4.320477e+000  2.000000e+000
      vertex  9.414959e+000  5.013507e+000  2.000000e+000
      vertex  8.528448e+000  3.747438e+000  2.000000e+000
    endloop
  endfacet
  facet normal  0.000000e+000  0.000000e+000  9.999999e-001
    outer loop
      vertex -1.248690e+001  2.399188e+001  2.000000e+000
      vertex -2.643365e+001 -1.203524e+001  2.000000e+000
      vertex -1.522041e+001 -7.199904e+000  2.000000e+000
    endloop
  endfacet
  facet normal  0.000000e+000  0.000000e+000  1.000000e+000
    outer loop
      vertex -1.248690e+001  2.399188e+001  2.000000e+000
      vertex -1.522041e+001 -7.199904e+000  2.000000e+000
      vertex -6.396155e+000  1.654437e+001  2.000000e+000
    endloop
  endfacet
  facet normal  0.000000e+000  -0.000000e+000  1.000000e+000
    outer loop
      vertex -1.248690e+001  2.399188e+001  2.000000e+000
      vertex -6.396155e+000  1.654437e+001  2.000000e+000
      vertex  1.111762e+001  1.831616e+001  2.000000e+000
    endloop
  endfacet
  facet normal  0.000000e+000  -0.000000e+000  9.999999e-001
    outer loop
      vertex -1.248690e+001  2.399188e+001  2.000000e+000
      vertex  1.111762e+001  1.831616e+001  2.000000e+000
      vertex  1.624725e+001  2.594551e+001  2.000000e+000
    endloop
  endfacet
  facet normal  0.000000e+000  0.000000e+000  1.000000e+000
    outer loop
      vertex -1.328707e+001 -6.709309e+000  2.000000e+000
      vertex  1.188314e+001 -1.915975e+001  2.000000e+000
      vertex  8.822709e+000 -9.003658e+000  2.000000e+000
    endloop
  endfacet
  facet normal  0.000000e+000  0.000000e+000  1.000000e+000
    outer loop
      vertex -1.328707e+001 -6.709309e+000  2.000000e+000
      vertex  8.822709e+000 -9.003658e+000  2.000000e+000
      vertex -4.313727e+000 -3.048934e+000  2.000000e+000
    endloop
  endfacet
  facet normal  0.000000e+000  -0.000000e+000  1.000000e+000
    outer loop
      vertex -1.328707e+001 -6.709309e+000  2.000000e+000
      vertex -4.313727e+000 -3.048934e+000  2.000000e+000
      vertex -4.360942e-001  7.830427e+000  2.000000e+000
    endloop
  endfacet
  facet normal  0.000000e+000  0.000000e+000  1.000000e+000
    outer loop
      vertex -1.328707e+001 -6.709309e+000  2.000000e+000
      vertex -4.360942e-001  7.830427e+000  2.000000e+000
      vertex -5.162357e+000  1.452845e+001  2.000000e+000
    endloop
  endfacet
  facet normal  0.000000e+000  -0.000000e+000  1.000000e+000
    outer loop
      vertex -5.162357e+000  1.452845e+001  2.000000e+000
      vertex -4.360942e-001  7.830427e+000  2.000000e+000
      vertex  5.643919e+000  8.384399e+000  2.000000e+000
    endloop
  endfacet
  facet normal  -0.000000e+000  -0.000000e+000  9.999999e-001
    outer loop
      vertex -5.162357e+000  1.452845e+001  2.000000e+000
      vertex  5.643919e+000  8.384399e+000  2.000000e+000
      vertex  6.744859e+000  8.103906e+000  2.000000e+000
    endloop
  endfacet
  facet normal  0.000000e+000  -0.000000e+000  1.000000e+000
    outer loop
      vertex -5.162357e+000  1.452845e+001  2.000000e+000
      vertex  6.744859e+000  8.103906e+000  2.000000e+000
      vertex  1.097953e+001  8.850593e+000  2.000000e+000
    endloop
  endfacet
  facet normal  0.000000e+000  0.000000e+000  1.000000e+000
    outer loop
      vertex -5.162357e+000  1.452845e+001  2.000000e+000
      vertex  1.097953e+001  8.850593e+000  2.000000e+000
      vertex  1.031730e+001  1.636973e+001  2.000000e+000
    endloop
  endfacet
  facet normal  -0.000000e+000  -0.000000e+000  9.999999e-001
    outer loop
      vertex  1.031730e+001  1.636973e+001  2.000000e+000
      vertex  1.097953e+001  8.850593e+000  2.000000e+000
      vertex  1.115318e+001  7.865785e+000  2.000000e+000
    endloop
  endfacet
  facet normal  -0.000000e+000  -0.000000e+000  1.000000e+000
    outer loop
      vertex  1.031730e+001  1.636973e+001  2.000000e+000
      vertex  1.115318e+001  7.865785e+000  2.000000e+000
      vertex  1.177831e+001  4.320477e+000  2.000000e+000
    endloop
  endfacet
  facet normal  -0.000000e+000  -0.000000e+000  1.000000e+000
    outer loop
      vertex  1.031730e+001  1.636973e+001  2.000000e+000
      vertex  1.177831e+001  4.320477e+000  2.000000e+000
      vertex  1.195196e+001  3.335669e+000  2.000000e+000
    endloop
  endfacet
  facet normal  -0.000000e+000  -0.000000e+000  1.000000e+000
    outer loop
      vertex  1.031730e+001  1.636973e+001  2.000000e+000
      vertex  1.195196e+001  3.335669e+000  2.000000e+000
      vertex  1.322493e+001  2.000000e+000  2.000000e+000
    endloop
  endfacet
  facet normal  -0.000000e+000  0.000000e+000  1.000000e+000
    outer loop
      vertex  1.624725e+001  2.594551e+001  2.000000e+000
      vertex  1.111762e+001  1.831616e+001  2.000000e+000
      vertex  2.368261e+001 -4.453546e-001  2.000000e+000
    endloop
  endfacet
  facet normal  0.000000e+000  0.000000e+000  1.000000e+000
    outer loop
      vertex  2.368261e+001 -4.453546e-001  2.000000e+000
      vertex  1.111762e+001  1.831616e+001  2.000000e+000
      vertex  1.558471e+001 -1.499388e+000  2.000000e+000
    endloop
  endfacet
  facet normal  -0.000000e+000  0.000000e+000  1.000000e+000
    outer loop
      vertex  2.368261e+001 -4.453546e-001  2.000000e+000
      vertex  1.558471e+001 -1.499388e+000  2.000000e+000
      vertex  1.188314e+001 -1.915975e+001  2.000000e+000
    endloop
  endfacet
  facet normal  0.000000e+000  -0.000000e+000  1.000000e+000
    outer loop
      vertex  1.188314e+001 -1.915975e+001  2.000000e+000
      vertex  1.558471e+001 -1.499388e+000  2.000000e+000
      vertex  8.822709e+000 -9.003658e+000  2.000000e+000
    endloop
  endfacet
  facet normal  -0.000000e+000  0.000000e+000  1.000000e+000
    outer loop
      vertex -1.522041e+001 -7.199904e+000  2.000000e+000
      vertex -2.643365e+001 -1.203524e+001  2.000000e+000
      vertex  1.218619e+001 -2.116153e+001  2.000000e+000
    endloop
  endfacet
  facet normal  0.000000e+000  0.000000e+000  1.000000e+000
    outer loop
      vertex  1.218619e+001 -2.116153e+001  2.000000e+000
      vertex -2.643365e+001 -1.203524e+001  2.000000e+000
      vertex  1.523008e+001 -3.207948e+001  2.000000e+000
    endloop
  endfacet
  facet normal  0.000000e+000  -0.000000e+000  1.000000e+000
    outer loop
      vertex  1.218619e+001 -2.116153e+001  2.000000e+000
      vertex  1.523008e+001 -3.207948e+001  2.000000e+000
      vertex  2.530165e+001 -1.502228e-001  2.000000e+000
    endloop
  endfacet
  facet normal  0.000000e+000  0.000000e+000  1.000000e+000
    outer loop
      vertex  2.530165e+001 -1.502228e-001  2.000000e+000
      vertex  1.523008e+001 -3.207948e+001  2.000000e+000
      vertex  3.461401e+001 -1.817092e+000  2.000000e+000
    endloop
  endfacet
  facet normal  0.000000e+000  0.000000e+000  1.000000e+000
    outer loop
      vertex  2.530165e+001 -1.502228e-001  2.000000e+000
      vertex  3.461401e+001 -1.817092e+000  2.000000e+000
      vertex  1.816120e+001  2.513245e+001  2.000000e+000
    endloop
  endfacet
  facet normal  0.000000e+000  0.000000e+000  1.000000e+000
    outer loop
      vertex  1.322493e+001  2.000000e+000  2.000000e+000
      vertex  1.195196e+001  3.335669e+000  2.000000e+000
      vertex  6.705478e+000  2.000000e+000  2.000000e+000
    endloop
  endfacet
  facet normal  0.000000e+000  0.000000e+000  9.999999e-001
    outer loop
      vertex  6.705478e+000  2.000000e+000  2.000000e+000
      vertex  1.195196e+001  3.335669e+000  2.000000e+000
      vertex  7.717288e+000  2.588982e+000  2.000000e+000
    endloop
  endfacet
  facet normal  0.000000e+000  0.000000e+000  1.000000e+000
    outer loop
      vertex  6.705478e+000  2.000000e+000  2.000000e+000
      vertex  7.717288e+000  2.588982e+000  2.000000e+000
      vertex  5.643919e+000  8.384399e+000  2.000000e+000
    endloop
  endfacet
  facet normal  0.000000e+000  0.000000e+000  1.000000e+000
    outer loop
      vertex  5.643919e+000  8.384399e+000  2.000000e+000
      vertex  7.717288e+000  2.588982e+000  2.000000e+000
      vertex  6.744859e+000  8.103906e+000  2.000000e+000
    endloop
  endfacet
  facet normal  0.000000e+000  -0.000000e+000  1.000000e+000
    outer loop
      vertex  7.903315e+000  7.292746e+000  2.000000e+000
      vertex  9.814887e+000  6.817467e+000  2.000000e+000
      vertex  1.115318e+001  7.865785e+000  2.000000e+000
    endloop
  endfacet
  facet normal  0.000000e+000  0.000000e+000  1.000000e+000
    outer loop
      vertex  1.115318e+001  7.865785e+000  2.000000e+000
      vertex  9.814887e+000  6.817467e+000  2.000000e+000
      vertex  1.056211e+001  6.651811e+000  2.000000e+000
    endloop
  endfacet
  facet normal  -0.000000e+000  0.000000e+000  1.000000e+000
    outer loop
      vertex  1.115318e+001  7.865785e+000  2.000000e+000
      vertex  1.056211e+001  6.651811e+000  2.000000e+000
      vertex  1.097334e+001  6.006307e+000  2.000000e+000
    endloop
  endfacet
  facet normal  0.000000e+000  0.000000e+000  1.000000e+000
    outer loop
      vertex  8.528448e+000  3.747438e+000  2.000000e+000
      vertex  9.003728e+000  5.659010e+000  2.000000e+000
      vertex  7.903315e+000  7.292746e+000  2.000000e+000
    endloop
  endfacet
  facet normal  0.000000e+000  0.000000e+000  1.000000e+000
    outer loop
      vertex  7.903315e+000  7.292746e+000  2.000000e+000
      vertex  9.003728e+000  5.659010e+000  2.000000e+000
      vertex  9.169383e+000  6.406235e+000  2.000000e+000
    endloop
  endfacet
  facet normal  0.000000e+000  -0.000000e+000  1.000000e+000
    outer loop
      vertex  7.903315e+000  7.292746e+000  2.000000e+000
      vertex  9.169383e+000  6.406235e+000  2.000000e+000
      vertex  9.814887e+000  6.817467e+000  2.000000e+000
    endloop
  endfacet
  facet normal  9.848078e-001  1.736479e-001  -0.000000e+000
    outer loop
      vertex  1.115318e+001  7.865785e+000  2.430000e+000
      vertex  1.115318e+001  7.865785e+000  2.000000e+000
      vertex  1.097953e+001  8.850593e+000  2.430000e+000
    endloop
  endfacet
  facet normal  9.848078e-001  1.736479e-001  0.000000e+000
    outer loop
      vertex  1.097953e+001  8.850593e+000  2.430000e+000
      vertex  1.115318e+001  7.865785e+000  2.000000e+000
      vertex  1.097953e+001  8.850593e+000  2.000000e+000
    endloop
  endfacet
  facet normal  1.736482e-001 -9.848078e-001  0.000000e+000
    outer loop
      vertex  7.903315e+000  7.292746e+000  2.430000e+000
      vertex  7.903315e+000  7.292746e+000  2.000000e+000
      vertex  1.115318e+001  7.865785e+000  2.430000e+000
    endloop
  endfacet
  facet normal  1.736482e-001 -9.848078e-001  0.000000e+000
    outer loop
      vertex  1.115318e+001  7.865785e+000  2.430000e+000
      vertex  7.903315e+000  7.292746e+000  2.000000e+000
      vertex  1.115318e+001  7.865785e+000  2.000000e+000
    endloop
  endfacet
  facet normal  9.848077e-001  1.736482e-001  -0.000000e+000
    outer loop
      vertex  8.528448e+000  3.747438e+000  2.430000e+000
      vertex  8.528448e+000  3.747438e+000  2.000000e+000
      vertex  7.903315e+000  7.292746e+000  2.430000e+000
    endloop
  endfacet
  facet normal  9.848077e-001  1.736482e-001  0.000000e+000
    outer loop
      vertex  7.903315e+000  7.292746e+000  2.430000e+000
      vertex  8.528448e+000  3.747438e+000  2.000000e+000
      vertex  7.903315e+000  7.292746e+000  2.000000e+000
    endloop
  endfacet
  facet normal -1.736481e-001  9.848078e-001  0.000000e+000
    outer loop
      vertex  1.177831e+001  4.320477e+000  2.430000e+000
      vertex  1.177831e+001  4.320477e+000  2.000000e+000
      vertex  8.528448e+000  3.747438e+000  2.430000e+000
    endloop
  endfacet
  facet normal -1.736481e-001  9.848078e-001  0.000000e+000
    outer loop
      vertex  8.528448e+000  3.747438e+000  2.430000e+000
      vertex  1.177831e+001  4.320477e+000  2.000000e+000
      vertex  8.528448e+000  3.747438e+000  2.000000e+000
    endloop
  endfacet
  facet normal  9.848078e-001  1.736479e-001  -0.000000e+000
    outer loop
      vertex  1.195196e+001  3.335669e+000  2.430000e+000
      vertex  1.195196e+001  3.335669e+000  2.000000e+000
      vertex  1.177831e+001  4.320477e+000  2.430000e+000
    endloop
  endfacet
  facet normal  9.848078e-001  1.736479e-001  0.000000e+000
    outer loop
      vertex  1.177831e+001  4.320477e+000  2.430000e+000
      vertex  1.195196e+001  3.335669e+000  2.000000e+000
      vertex  1.177831e+001  4.320477e+000  2.000000e+000
    endloop
  endfacet
  facet normal  1.736482e-001 -9.848077e-001  0.000000e+000
    outer loop
      vertex  7.717288e+000  2.588982e+000  2.430000e+000
      vertex  7.717288e+000  2.588982e+000  2.000000e+000
      vertex  1.195196e+001  3.335669e+000  2.430000e+000
    endloop
  endfacet
  facet normal  1.736482e-001 -9.848077e-001  0.000000e+000
    outer loop
      vertex  1.195196e+001  3.335669e+000  2.430000e+000
      vertex  7.717288e+000  2.588982e+000  2.000000e+000
      vertex  1.195196e+001  3.335669e+000  2.000000e+000
    endloop
  endfacet
  facet normal -9.848077e-001 -1.736482e-001  0.000000e+000
    outer loop
      vertex  6.744859e+000  8.103906e+000  2.430000e+000
      vertex  6.744859e+000  8.103906e+000  2.000000e+000
      vertex  7.717288e+000  2.588982e+000  2.430000e+000
    endloop
  endfacet
  facet normal -9.848077e-001 -1.736482e-001  -0.000000e+000
    outer loop
      vertex  7.717288e+000  2.588982e+000  2.430000e+000
      vertex  6.744859e+000  8.103906e+000  2.000000e+000
      vertex  7.717288e+000  2.588982e+000  2.000000e+000
    endloop
  endfacet
  facet normal -1.736481e-001  9.848077e-001  0.000000e+000
    outer loop
      vertex  1.097953e+001  8.850593e+000  2.430000e+000
      vertex  1.097953e+001  8.850593e+000  2.000000e+000
      vertex  6.744859e+000  8.103906e+000  2.430000e+000
    endloop
  endfacet
  facet normal -1.736481e-001  9.848077e-001  0.000000e+000
    outer loop
      vertex  6.744859e+000  8.103906e+000  2.430000e+000
      vertex  1.097953e+001  8.850593e+000  2.000000e+000
      vertex  6.744859e+000  8.103906e+000  2.000000e+000
    endloop
  endfacet
  facet normal -2.164394e-001 -9.762959e-001  -0.000000e+000
    outer loop
      vertex  1.016218e+001  4.847851e+000  2.000000e+000
      vertex  1.016218e+001  4.847851e+000  2.430000e+000
      vertex  9.414959e+000  5.013507e+000  2.000000e+000
    endloop
  endfacet
  facet normal -2.164394e-001 -9.762959e-001  0.000000e+000
    outer loop
      vertex  9.414959e+000  5.013507e+000  2.000000e+000
      vertex  1.016218e+001  4.847851e+000  2.430000e+000
      vertex  9.414959e+000  5.013507e+000  2.430000e+000
    endloop
  endfacet
  facet normal -8.433915e-001 -5.372996e-001  -0.000000e+000
    outer loop
      vertex  9.414959e+000  5.013507e+000  2.000000e+000
      vertex  9.414959e+000  5.013507e+000  2.430000e+000
      vertex  9.003728e+000  5.659010e+000  2.000000e+000
    endloop
  endfacet
  facet normal -8.433915e-001 -5.372996e-001  0.000000e+000
    outer loop
      vertex  9.003728e+000  5.659010e+000  2.000000e+000
      vertex  9.414959e+000  5.013507e+000  2.430000e+000
      vertex  9.003728e+000  5.659010e+000  2.430000e+000
    endloop
  endfacet
  facet normal -9.762962e-001  2.164389e-001  0.000000e+000
    outer loop
      vertex  9.003728e+000  5.659010e+000  2.000000e+000
      vertex  9.003728e+000  5.659010e+000  2.430000e+000
      vertex  9.169383e+000  6.406235e+000  2.000000e+000
    endloop
  endfacet
  facet normal -9.762962e-001  2.164389e-001  0.000000e+000
    outer loop
      vertex  9.169383e+000  6.406235e+000  2.000000e+000
      vertex  9.003728e+000  5.659010e+000  2.430000e+000
      vertex  9.169383e+000  6.406235e+000  2.430000e+000
    endloop
  endfacet
  facet normal -5.372997e-001  8.433914e-001  0.000000e+000
    outer loop
      vertex  9.169383e+000  6.406235e+000  2.000000e+000
      vertex  9.169383e+000  6.406235e+000  2.430000e+000
      vertex  9.814887e+000  6.817467e+000  2.000000e+000
    endloop
  endfacet
  facet normal -5.372997e-001  8.433914e-001  0.000000e+000
    outer loop
      vertex  9.814887e+000  6.817467e+000  2.000000e+000
      vertex  9.169383e+000  6.406235e+000  2.430000e+000
      vertex  9.814887e+000  6.817467e+000  2.430000e+000
    endloop
  endfacet
  facet normal  2.164401e-001  9.762959e-001  0.000000e+000
    outer loop
      vertex  9.814887e+000  6.817467e+000  2.000000e+000
      vertex  9.814887e+000  6.817467e+000  2.430000e+000
      vertex  1.056211e+001  6.651811e+000  2.000000e+000
    endloop
  endfacet
  facet normal  2.164401e-001  9.762959e-001  -0.000000e+000
    outer loop
      vertex  1.056211e+001  6.651811e+000  2.000000e+000
      vertex  9.814887e+000  6.817467e+000  2.430000e+000
      vertex  1.056211e+001  6.651811e+000  2.430000e+000
    endloop
  endfacet
  facet normal  8.433915e-001  5.372996e-001  0.000000e+000
    outer loop
      vertex  1.056211e+001  6.651811e+000  2.000000e+000
      vertex  1.056211e+001  6.651811e+000  2.430000e+000
      vertex  1.097334e+001  6.006307e+000  2.000000e+000
    endloop
  endfacet
  facet normal  8.433915e-001  5.372996e-001  -0.000000e+000
    outer loop
      vertex  1.097334e+001  6.006307e+000  2.000000e+000
      vertex  1.056211e+001  6.651811e+000  2.430000e+000
      vertex  1.097334e+001  6.006307e+000  2.430000e+000
    endloop
  endfacet
  facet normal  9.762962e-001 -2.164389e-001  0.000000e+000
    outer loop
      vertex  1.097334e+001  6.006307e+000  2.000000e+000
      vertex  1.097334e+001  6.006307e+000  2.430000e+000
      vertex  1.080769e+001  5.259082e+000  2.000000e+000
    endloop
  endfacet
  facet normal  9.762962e-001 -2.164389e-001  0.000000e+000
    outer loop
      vertex  1.080769e+001  5.259082e+000  2.000000e+000
      vertex  1.097334e+001  6.006307e+000  2.430000e+000
      vertex  1.080769e+001  5.259082e+000  2.430000e+000
    endloop
  endfacet
  facet normal  5.372993e-001 -8.433917e-001  0.000000e+000
    outer loop
      vertex  1.080769e+001  5.259082e+000  2.000000e+000
      vertex  1.080769e+001  5.259082e+000  2.430000e+000
      vertex  1.016218e+001  4.847851e+000  2.000000e+000
    endloop
  endfacet
  facet normal  5.372993e-001 -8.433917e-001  0.000000e+000
    outer loop
      vertex  1.016218e+001  4.847851e+000  2.000000e+000
      vertex  1.080769e+001  5.259082e+000  2.430000e+000
      vertex  1.016218e+001  4.847851e+000  2.430000e+000
    endloop
  endfacet
  facet normal  0.000000e+000  -0.000000e+000  1.000000e+000
    outer loop
      vertex  6.744859e+000  8.103906e+000  2.430000e+000
      vertex  7.717288e+000  2.588982e+000  2.430000e+000
      vertex  8.528448e+000  3.747438e+000  2.430000e+000
    endloop
  endfacet
  facet normal  0.000000e+000  0.000000e+000  9.999999e-001
    outer loop
      vertex  6.744859e+000  8.103906e+000  2.430000e+000
      vertex  8.528448e+000  3.747438e+000  2.430000e+000
      vertex  7.903315e+000  7.292746e+000  2.430000e+000
    endloop
  endfacet
  facet normal  0.000000e+000  -0.000000e+000  1.000000e+000
    outer loop
      vertex  6.744859e+000  8.103906e+000  2.430000e+000
      vertex  7.903315e+000  7.292746e+000  2.430000e+000
      vertex  1.115318e+001  7.865785e+000  2.430000e+000
    endloop
  endfacet
  facet normal  0.000000e+000  0.000000e+000  1.000000e+000
    outer loop
      vertex  6.744859e+000  8.103906e+000  2.430000e+000
      vertex  1.115318e+001  7.865785e+000  2.430000e+000
      vertex  1.097953e+001  8.850593e+000  2.430000e+000
    endloop
  endfacet
  facet normal  0.000000e+000  0.000000e+000  1.000000e+000
    outer loop
      vertex  8.528448e+000  3.747438e+000  2.430000e+000
      vertex  7.717288e+000  2.588982e+000  2.430000e+000
      vertex  1.177831e+001  4.320477e+000  2.430000e+000
    endloop
  endfacet
  facet normal  0.000000e+000  0.000000e+000  1.000000e+000
    outer loop
      vertex  1.177831e+001  4.320477e+000  2.430000e+000
      vertex  7.717288e+000  2.588982e+000  2.430000e+000
      vertex  1.195196e+001  3.335669e+000  2.430000e+000
    endloop
  endfacet
  facet normal  0.000000e+000  0.000000e+000  1.000000e+000
    outer loop
      vertex  1.056211e+001  6.651811e+000  2.430000e+000
      vertex  9.814887e+000  6.817467e+000  2.430000e+000
      vertex  1.097334e+001  6.006307e+000  2.430000e+000
    endloop
  endfacet
  facet normal  0.000000e+000  0.000000e+000  1.000000e+000
    outer loop
      vertex  1.097334e+001  6.006307e+000  2.430000e+000
      vertex  9.814887e+000  6.817467e+000  2.430000e+000
      vertex  9.169383e+000  6.406235e+000  2.430000e+000
    endloop
  endfacet
  facet normal  0.000000e+000  0.000000e+000  9.999999e-001
    outer loop
      vertex  1.097334e+001  6.006307e+000  2.430000e+000
      vertex  9.169383e+000  6.406235e+000  2.430000e+000
      vertex  9.003728e+000  5.659010e+000  2.430000e+000
    endloop
  endfacet
  facet normal  -0.000000e+000  0.000000e+000  9.999999e-001
    outer loop
      vertex  1.097334e+001  6.006307e+000  2.430000e+000
      vertex  9.003728e+000  5.659010e+000  2.430000e+000
      vertex  1.080769e+001  5.259082e+000  2.430000e+000
    endloop
  endfacet
  facet normal  0.000000e+000  0.000000e+000  1.000000e+000
    outer loop
      vertex  1.080769e+001  5.259082e+000  2.430000e+000
      vertex  9.003728e+000  5.659010e+000  2.430000e+000
      vertex  9.414959e+000  5.013507e+000  2.430000e+000
    endloop
  endfacet
  facet normal  -0.000000e+000  0.000000e+000  1.000000e+000
    outer loop
      vertex  1.080769e+001  5.259082e+000  2.430000e+000
      vertex  9.414959e+000  5.013507e+000  2.430000e+000
      vertex  1.016218e+001  4.847851e+000  2.430000e+000
    endloop
  endfacet
  facet normal  0.000000e+000  1.000000e+000  0.000000e+000
    outer loop
      vertex  6.705478e+000  2.000000e+000  1.700000e+001
      vertex  8.929623e+000  2.000000e+000  1.700000e+001
      vertex  6.705478e+000  2.000000e+000  2.000000e+000
    endloop
  endfacet
  facet normal  0.000000e+000  1.000000e+000  0.000000e+000
    outer loop
      vertex  6.705478e+000  2.000000e+000  2.000000e+000
      vertex  8.929623e+000  2.000000e+000  1.700000e+001
      vertex  8.929623e+000  2.000000e+000  1.300000e+001
    endloop
  endfacet
  facet normal  0.000000e+000  9.999999e-001  0.000000e+000
    outer loop
      vertex  6.705478e+000  2.000000e+000  2.000000e+000
      vertex  8.929623e+000  2.000000e+000  1.300000e+001
      vertex  1.322493e+001  2.000000e+000  2.000000e+000
    endloop
  endfacet
  facet normal  0.000000e+000  1.000000e+000  0.000000e+000
    outer loop
      vertex  1.322493e+001  2.000000e+000  2.000000e+000
      vertex  8.929623e+000  2.000000e+000  1.300000e+001
      vertex  1.112962e+001  2.000000e+000  1.300000e+001
    endloop
  endfacet
  facet normal  -0.000000e+000  9.999999e-001  0.000000e+000
    outer loop
      vertex  1.322493e+001  2.000000e+000  2.000000e+000
      vertex  1.112962e+001  2.000000e+000  1.300000e+001
      vertex  1.322493e+001  2.000000e+000  1.700000e+001
    endloop
  endfacet
  facet normal  0.000000e+000  1.000000e+000  0.000000e+000
    outer loop
      vertex  1.322493e+001  2.000000e+000  1.700000e+001
      vertex  1.112962e+001  2.000000e+000  1.300000e+001
      vertex  1.112962e+001  2.000000e+000  1.700000e+001
    endloop
  endfacet
  facet normal  0.000000e+000 -1.000000e+000  0.000000e+000
    outer loop
      vertex  1.362962e+001  0.000000e+000  1.700000e+001
      vertex  1.112962e+001  0.000000e+000  1.700000e+001
      vertex  1.362962e+001  0.000000e+000  0.000000e+000
    endloop
  endfacet
  facet normal  0.000000e+000 -1.000000e+000  0.000000e+000
    outer loop
      vertex  1.362962e+001  0.000000e+000  0.000000e+000
      vertex  1.112962e+001  0.000000e+000  1.700000e+001
      vertex  1.112962e+001  0.000000e+000  1.300000e+001
    endloop
  endfacet
  facet normal  0.000000e+000 -1.000000e+000  -0.000000e+000
    outer loop
      vertex  1.362962e+001  0.000000e+000  0.000000e+000
      vertex  1.112962e+001  0.000000e+000  1.300000e+001
      vertex  7.038025e+000  0.000000e+000  0.000000e+000
    endloop
  endfacet
  facet normal  0.000000e+000 -1.000000e+000  0.000000e+000
    outer loop
      vertex  7.038025e+000  0.000000e+000  0.000000e+000
      vertex  1.112962e+001  0.000000e+000  1.300000e+001
      vertex  8.929623e+000  0.000000e+000  1.300000e+001
    endloop
  endfacet
  facet normal  -0.000000e+000 -1.000000e+000  0.000000e+000
    outer loop
      vertex  7.038025e+000  0.000000e+000  0.000000e+000
      vertex  8.929623e+000  0.000000e+000  1.300000e+001
      vertex  7.038025e+000  0.000000e+000  1.700000e+001
    endloop
  endfacet
  facet normal  0.000000e+000 -1.000000e+000  0.000000e+000
    outer loop
      vertex  7.038025e+000  0.000000e+000  1.700000e+001
      vertex  8.929623e+000  0.000000e+000  1.300000e+001
      vertex  8.929623e+000  0.000000e+000  1.700000e+001
    endloop
  endfacet
  facet normal  0.000000e+000  0.000000e+000  1.000000e+000
    outer loop
      vertex  7.038025e+000  0.000000e+000  1.700000e+001
      vertex  8.929623e+000  0.000000e+000  1.700000e+001
      vertex  6.705478e+000  2.000000e+000  1.700000e+001
    endloop
  endfacet
  facet normal  -0.000000e+000  0.000000e+000  1.000000e+000
    outer loop
      vertex  6.705478e+000  2.000000e+000  1.700000e+001
      vertex  8.929623e+000  0.000000e+000  1.700000e+001
      vertex  8.929623e+000  2.000000e+000  1.700000e+001
    endloop
  endfacet
  facet normal  0.000000e+000  0.000000e+000  1.000000e+000
    outer loop
      vertex  1.112962e+001  0.000000e+000  1.700000e+001
      vertex  1.362962e+001  0.000000e+000  1.700000e+001
      vertex  1.112962e+001  2.000000e+000  1.700000e+001
    endloop
  endfacet
  facet normal  -0.000000e+000  0.000000e+000  1.000000e+000
    outer loop
      vertex  1.112962e+001  2.000000e+000  1.700000e+001
      vertex  1.362962e+001  0.000000e+000  1.700000e+001
      vertex  1.322493e+001  2.000000e+000  1.700000e+001
    endloop
  endfacet
  facet normal  1.000000e+000  0.000000e+000  0.000000e+000
    outer loop
      vertex  8.929623e+000  0.000000e+000  1.700000e+001
      vertex  8.929623e+000  0.000000e+000  1.300000e+001
      vertex  8.929623e+000  2.000000e+000  1.700000e+001
    endloop
  endfacet
  facet normal  1.000000e+000  0.000000e+000  0.000000e+000
    outer loop
      vertex  8.929623e+000  2.000000e+000  1.700000e+001
      vertex  8.929623e+000  0.000000e+000  1.300000e+001
      vertex  8.929623e+000  2.000000e+000  1.300000e+001
    endloop
  endfacet
  facet normal  0.000000e+000  0.000000e+000  1.000000e+000
    outer loop
      vertex  8.929623e+000  0.000000e+000  1.300000e+001
      vertex  1.112962e+001  0.000000e+000  1.300000e+001
      vertex  8.929623e+000  2.000000e+000  1.300000e+001
    endloop
  endfacet
  facet normal  -0.000000e+000  0.000000e+000  1.000000e+000
    outer loop
      vertex  8.929623e+000  2.000000e+000  1.300000e+001
      vertex  1.112962e+001  0.000000e+000  1.300000e+001
      vertex  1.112962e+001  2.000000e+000  1.300000e+001
    endloop
  endfacet
  facet normal -1.000000e+000  0.000000e+000  0.000000e+000
    outer loop
      vertex  1.112962e+001  0.000000e+000  1.300000e+001
      vertex  1.112962e+001  0.000000e+000  1.700000e+001
      vertex  1.112962e+001  2.000000e+000  1.300000e+001
    endloop
  endfacet
  facet normal -1.000000e+000  0.000000e+000  0.000000e+000
    outer loop
      vertex  1.112962e+001  2.000000e+000  1.300000e+001
      vertex  1.112962e+001  0.000000e+000  1.700000e+001
      vertex  1.112962e+001  2.000000e+000  1.700000e+001
    endloop
  endfacet
  facet normal  0.000000e+000  0.000000e+000  1.000000e+000
    outer loop
      vertex -4.479254e+001  3.376427e+001  2.000000e+000
      vertex -3.299509e+001  3.184245e+001  2.000000e+000
      vertex -4.348790e+001  3.528016e+001  2.000000e+000
    endloop
  endfacet
  facet normal  0.000000e+000  0.000000e+000  1.000000e+000
    outer loop
      vertex -4.354226e+001  4.013296e+001  2.000000e+000
      vertex -5.405178e+001  3.375112e+001  2.000000e+000
      vertex -4.500380e+001  3.658479e+001  2.000000e+000
    endloop
  endfacet
  facet normal  -0.000000e+000  0.000000e+000  1.000000e+000
    outer loop
      vertex -4.354226e+001  4.013296e+001  2.000000e+000
      vertex -4.500380e+001  3.658479e+001  2.000000e+000
      vertex -4.348790e+001  3.528016e+001  2.000000e+000
    endloop
  endfacet
  facet normal  -0.000000e+000  -0.000000e+000  1.000000e+000
    outer loop
      vertex -4.354226e+001  4.013296e+001  2.000000e+000
      vertex -4.348790e+001  3.528016e+001  2.000000e+000
      vertex -3.299509e+001  3.184245e+001  2.000000e+000
    endloop
  endfacet
  facet normal  0.000000e+000  0.000000e+000  1.000000e+000
    outer loop
      vertex -4.354226e+001  4.013296e+001  2.000000e+000
      vertex -3.299509e+001  3.184245e+001  2.000000e+000
      vertex -3.556615e+001  3.874403e+001  2.000000e+000
    endloop
  endfacet
  facet normal  -0.000000e+000  0.000000e+000  1.000000e+000
    outer loop
      vertex -3.599509e+001  8.000000e+000  2.000000e+000
      vertex -3.599509e+001  3.552714e-014  2.000000e+000
      vertex -3.299509e+001  0.000000e+000  2.000000e+000
    endloop
  endfacet
  facet normal  0.000000e+000  -0.000000e+000  1.000000e+000
    outer loop
      vertex -3.599509e+001  8.000000e+000  2.000000e+000
      vertex -3.299509e+001  0.000000e+000  2.000000e+000
      vertex -3.299509e+001  3.184245e+001  2.000000e+000
    endloop
  endfacet
  facet normal  0.000000e+000  0.000000e+000  9.999999e-001
    outer loop
      vertex -3.599509e+001  8.000000e+000  2.000000e+000
      vertex -3.299509e+001  3.184245e+001  2.000000e+000
      vertex -4.438032e+001  2.667669e+001  2.000000e+000
    endloop
  endfacet
  facet normal  0.000000e+000  0.000000e+000  1.000000e+000
    outer loop
      vertex -3.599509e+001  8.000000e+000  2.000000e+000
      vertex -4.438032e+001  2.667669e+001  2.000000e+000
      vertex -3.819509e+001  8.000000e+000  2.000000e+000
    endloop
  endfacet
  facet normal  0.000000e+000  0.000000e+000  1.000000e+000
    outer loop
      vertex -4.438032e+001  2.667669e+001  2.000000e+000
      vertex -3.299509e+001  3.184245e+001  2.000000e+000
      vertex -5.352907e+001  2.897750e+001  2.000000e+000
    endloop
  endfacet
  facet normal  0.000000e+000  0.000000e+000  9.999999e-001
    outer loop
      vertex -5.352907e+001  2.897750e+001  2.000000e+000
      vertex -3.299509e+001  3.184245e+001  2.000000e+000
      vertex -4.479254e+001  3.376427e+001  2.000000e+000
    endloop
  endfacet
  facet normal  0.000000e+000  0.000000e+000  9.999999e-001
    outer loop
      vertex -5.352907e+001  2.897750e+001  2.000000e+000
      vertex -4.479254e+001  3.376427e+001  2.000000e+000
      vertex -5.405178e+001  3.375112e+001  2.000000e+000
    endloop
  endfacet
  facet normal  0.000000e+000  0.000000e+000  1.000000e+000
    outer loop
      vertex -5.405178e+001  3.375112e+001  2.000000e+000
      vertex -4.479254e+001  3.376427e+001  2.000000e+000
      vertex -4.630843e+001  3.506890e+001  2.000000e+000
    endloop
  endfacet
  facet normal  0.000000e+000  -0.000000e+000  1.000000e+000
    outer loop
      vertex -5.405178e+001  3.375112e+001  2.000000e+000
      vertex -4.630843e+001  3.506890e+001  2.000000e+000
      vertex -4.500380e+001  3.658479e+001  2.000000e+000
    endloop
  endfacet
  facet normal  0.000000e+000  0.000000e+000  1.000000e+000
    outer loop
      vertex -3.819509e+001  0.000000e+000  2.000000e+000
      vertex -3.819509e+001  8.000000e+000  2.000000e+000
      vertex -4.119509e+001  0.000000e+000  2.000000e+000
    endloop
  endfacet
  facet normal  0.000000e+000  -0.000000e+000  1.000000e+000
    outer loop
      vertex -4.119509e+001  0.000000e+000  2.000000e+000
      vertex -3.819509e+001  8.000000e+000  2.000000e+000
      vertex -4.438032e+001  2.667669e+001  2.000000e+000
    endloop
  endfacet
  facet normal  0.000000e+000  0.000000e+000 -1.000000e+000
    outer loop
      vertex -4.348790e+001  3.528016e+001  0.000000e+000
      vertex -3.299509e+001  3.184245e+001  0.000000e+000
      vertex -4.479254e+001  3.376427e+001  0.000000e+000
    endloop
  endfacet
  facet normal  -0.000000e+000  -0.000000e+000 -1.000000e+000
    outer loop
      vertex -4.354226e+001  4.013296e+001  0.000000e+000
      vertex -3.556615e+001  3.874403e+001  0.000000e+000
      vertex -3.299509e+001  3.184245e+001  0.000000e+000
    endloop
  endfacet
  facet normal  0.000000e+000  0.000000e+000 -1.000000e+000
    outer loop
      vertex -4.354226e+001  4.013296e+001  0.000000e+000
      vertex -3.299509e+001  3.184245e+001  0.000000e+000
      vertex -4.348790e+001  3.528016e+001  0.000000e+000
    endloop
  endfacet
  facet normal  0.000000e+000  0.000000e+000 -1.000000e+000
    outer loop
      vertex -4.354226e+001  4.013296e+001  0.000000e+000
      vertex -4.348790e+001  3.528016e+001  0.000000e+000
      vertex -4.500380e+001  3.658479e+001  0.000000e+000
    endloop
  endfacet
  facet normal  -0.000000e+000  0.000000e+000 -1.000000e+000
    outer loop
      vertex -4.354226e+001  4.013296e+001  0.000000e+000
      vertex -4.500380e+001  3.658479e+001  0.000000e+000
      vertex -5.405178e+001  3.375112e+001  0.000000e+000
    endloop
  endfacet
  facet normal  0.000000e+000  0.000000e+000 -1.000000e+000
    outer loop
      vertex -3.599509e+001  8.000000e+000  0.000000e+000
      vertex -3.819509e+001  8.000000e+000  0.000000e+000
      vertex -4.438032e+001  2.667669e+001  0.000000e+000
    endloop
  endfacet
  facet normal  0.000000e+000  0.000000e+000 -9.999999e-001
    outer loop
      vertex -3.599509e+001  8.000000e+000  0.000000e+000
      vertex -4.438032e+001  2.667669e+001  0.000000e+000
      vertex -3.299509e+001  3.184245e+001  0.000000e+000
    endloop
  endfacet
  facet normal  0.000000e+000  -0.000000e+000 -1.000000e+000
    outer loop
      vertex -3.599509e+001  8.000000e+000  0.000000e+000
      vertex -3.299509e+001  3.184245e+001  0.000000e+000
      vertex -3.299509e+001  0.000000e+000  0.000000e+000
    endloop
  endfacet
  facet normal  0.000000e+000  0.000000e+000 -1.000000e+000
    outer loop
      vertex -3.599509e+001  8.000000e+000  0.000000e+000
      vertex -3.299509e+001  0.000000e+000  0.000000e+000
      vertex -3.599509e+001  3.552714e-014  0.000000e+000
    endloop
  endfacet
  facet normal  0.000000e+000  0.000000e+000 -1.000000e+000
    outer loop
      vertex -3.299509e+001  3.184245e+001  0.000000e+000
      vertex -4.438032e+001  2.667669e+001  0.000000e+000
      vertex -4.479254e+001  3.376427e+001  0.000000e+000
    endloop
  endfacet
  facet normal  0.000000e+000  -0.000000e+000 -1.000000e+000
    outer loop
      vertex -4.479254e+001  3.376427e+001  0.000000e+000
      vertex -4.438032e+001  2.667669e+001  0.000000e+000
      vertex -5.352907e+001  2.897750e+001  0.000000e+000
    endloop
  endfacet
  facet normal  0.000000e+000  0.000000e+000 -1.000000e+000
    outer loop
      vertex -4.479254e+001  3.376427e+001  0.000000e+000
      vertex -5.352907e+001  2.897750e+001  0.000000e+000
      vertex -4.630843e+001  3.506890e+001  0.000000e+000
    endloop
  endfacet
  facet normal  0.000000e+000  0.000000e+000 -1.000000e+000
    outer loop
      vertex -4.630843e+001  3.506890e+001  0.000000e+000
      vertex -5.352907e+001  2.897750e+001  0.000000e+000
      vertex -5.405178e+001  3.375112e+001  0.000000e+000
    endloop
  endfacet
  facet normal  0.000000e+000  0.000000e+000 -1.000000e+000
    outer loop
      vertex -4.630843e+001  3.506890e+001  0.000000e+000
      vertex -5.405178e+001  3.375112e+001  0.000000e+000
      vertex -4.500380e+001  3.658479e+001  0.000000e+000
    endloop
  endfacet
  facet normal  0.000000e+000  0.000000e+000 -1.000000e+000
    outer loop
      vertex -3.819509e+001  8.000000e+000  0.000000e+000
      vertex -3.819509e+001  0.000000e+000  0.000000e+000
      vertex -4.438032e+001  2.667669e+001  0.000000e+000
    endloop
  endfacet
  facet normal  0.000000e+000  0.000000e+000 -9.999999e-001
    outer loop
      vertex -4.438032e+001  2.667669e+001  0.000000e+000
      vertex -3.819509e+001  0.000000e+000  0.000000e+000
      vertex -4.119509e+001  0.000000e+000  0.000000e+000
    endloop
  endfacet
  facet normal  7.579479e-001 -6.523151e-001  0.000000e+000
    outer loop
      vertex -4.630843e+001  3.506890e+001  0.000000e+000
      vertex -4.500380e+001  3.658479e+001  0.000000e+000
      vertex -4.630843e+001  3.506890e+001  2.000000e+000
    endloop
  endfacet
  facet normal  7.579479e-001 -6.523151e-001  0.000000e+000
    outer loop
      vertex -4.630843e+001  3.506890e+001  2.000000e+000
      vertex -4.500380e+001  3.658479e+001  0.000000e+000
      vertex -4.500380e+001  3.658479e+001  2.000000e+000
    endloop
  endfacet
  facet normal  6.523161e-001  7.579471e-001  0.000000e+000
    outer loop
      vertex -4.479254e+001  3.376427e+001  0.000000e+000
      vertex -4.630843e+001  3.506890e+001  0.000000e+000
      vertex -4.479254e+001  3.376427e+001  2.000000e+000
    endloop
  endfacet
  facet normal  6.523161e-001  7.579471e-001  0.000000e+000
    outer loop
      vertex -4.479254e+001  3.376427e+001  2.000000e+000
      vertex -4.630843e+001  3.506890e+001  0.000000e+000
      vertex -4.630843e+001  3.506890e+001  2.000000e+000
    endloop
  endfacet
  facet normal -7.579462e-001  6.523172e-001  0.000000e+000
    outer loop
      vertex -4.348790e+001  3.528016e+001  0.000000e+000
      vertex -4.479254e+001  3.376427e+001  0.000000e+000
      vertex -4.348790e+001  3.528016e+001  2.000000e+000
    endloop
  endfacet
  facet normal -7.579462e-001  6.523172e-001  0.000000e+000
    outer loop
      vertex -4.348790e+001  3.528016e+001  2.000000e+000
      vertex -4.479254e+001  3.376427e+001  0.000000e+000
      vertex -4.479254e+001  3.376427e+001  2.000000e+000
    endloop
  endfacet
  facet normal -6.523162e-001 -7.579469e-001  0.000000e+000
    outer loop
      vertex -4.500380e+001  3.658479e+001  0.000000e+000
      vertex -4.348790e+001  3.528016e+001  0.000000e+000
      vertex -4.500380e+001  3.658479e+001  2.000000e+000
    endloop
  endfacet
  facet normal -6.523162e-001 -7.579469e-001  0.000000e+000
    outer loop
      vertex -4.500380e+001  3.658479e+001  2.000000e+000
      vertex -4.348790e+001  3.528016e+001  0.000000e+000
      vertex -4.348790e+001  3.528016e+001  2.000000e+000
    endloop
  endfacet
  facet normal -9.929470e-001 -1.185591e-001  0.000000e+000
    outer loop
      vertex -4.438032e+001  2.667669e+001  2.000000e+000
      vertex -4.438032e+001  2.667669e+001  0.000000e+000
      vertex -4.119509e+001  0.000000e+000  2.000000e+000
    endloop
  endfacet
  facet normal -9.929470e-001 -1.185591e-001  -0.000000e+000
    outer loop
      vertex -4.119509e+001  0.000000e+000  2.000000e+000
      vertex -4.438032e+001  2.667669e+001  0.000000e+000
      vertex -4.119509e+001  0.000000e+000  0.000000e+000
    endloop
  endfacet
  facet normal -2.438948e-001 -9.698017e-001  0.000000e+000
    outer loop
      vertex -5.352907e+001  2.897750e+001  2.000000e+000
      vertex -5.352907e+001  2.897750e+001  0.000000e+000
      vertex -4.438032e+001  2.667669e+001  2.000000e+000
    endloop
  endfacet
  facet normal -2.438948e-001 -9.698017e-001  -0.000000e+000
    outer loop
      vertex -4.438032e+001  2.667669e+001  2.000000e+000
      vertex -5.352907e+001  2.897750e+001  0.000000e+000
      vertex -4.438032e+001  2.667669e+001  0.000000e+000
    endloop
  endfacet
  facet normal -9.940581e-001 -1.088505e-001  0.000000e+000
    outer loop
      vertex -5.405178e+001  3.375112e+001  2.000000e+000
      vertex -5.405178e+001  3.375112e+001  0.000000e+000
      vertex -5.352907e+001  2.897750e+001  2.000000e+000
    endloop
  endfacet
  facet normal -9.940581e-001 -1.088505e-001  -0.000000e+000
    outer loop
      vertex -5.352907e+001  2.897750e+001  2.000000e+000
      vertex -5.405178e+001  3.375112e+001  0.000000e+000
      vertex -5.352907e+001  2.897750e+001  0.000000e+000
    endloop
  endfacet
  facet normal -5.190411e-001  8.547493e-001  0.000000e+000
    outer loop
      vertex -4.354226e+001  4.013296e+001  2.000000e+000
      vertex -4.354226e+001  4.013296e+001  0.000000e+000
      vertex -5.405178e+001  3.375112e+001  2.000000e+000
    endloop
  endfacet
  facet normal -5.190411e-001  8.547493e-001  0.000000e+000
    outer loop
      vertex -5.405178e+001  3.375112e+001  2.000000e+000
      vertex -4.354226e+001  4.013296e+001  0.000000e+000
      vertex -5.405178e+001  3.375112e+001  0.000000e+000
    endloop
  endfacet
  facet normal  1.715546e-001  9.851746e-001  -0.000000e+000
    outer loop
      vertex -3.556615e+001  3.874403e+001  2.000000e+000
      vertex -3.556615e+001  3.874403e+001  0.000000e+000
      vertex -4.354226e+001  4.013296e+001  2.000000e+000
    endloop
  endfacet
  facet normal  1.715546e-001  9.851746e-001  0.000000e+000
    outer loop
      vertex -4.354226e+001  4.013296e+001  2.000000e+000
      vertex -3.556615e+001  3.874403e+001  0.000000e+000
      vertex -4.354226e+001  4.013296e+001  0.000000e+000
    endloop
  endfacet
  facet normal  9.370872e-001  3.490954e-001  -0.000000e+000
    outer loop
      vertex -3.299509e+001  3.184245e+001  2.000000e+000
      vertex -3.299509e+001  3.184245e+001  0.000000e+000
      vertex -3.556615e+001  3.874403e+001  2.000000e+000
    endloop
  endfacet
  facet normal  9.370872e-001  3.490954e-001  0.000000e+000
    outer loop
      vertex -3.556615e+001  3.874403e+001  2.000000e+000
      vertex -3.299509e+001  3.184245e+001  0.000000e+000
      vertex -3.556615e+001  3.874403e+001  0.000000e+000
    endloop
  endfacet
  facet normal  9.999999e-001  0.000000e+000  0.000000e+000
    outer loop
      vertex -3.299509e+001  0.000000e+000  2.000000e+000
      vertex -3.299509e+001  0.000000e+000  0.000000e+000
      vertex -3.299509e+001  3.184245e+001  2.000000e+000
    endloop
  endfacet
  facet normal  9.999999e-001  0.000000e+000  0.000000e+000
    outer loop
      vertex -3.299509e+001  3.184245e+001  2.000000e+000
      vertex -3.299509e+001  0.000000e+000  0.000000e+000
      vertex -3.299509e+001  3.184245e+001  0.000000e+000
    endloop
  endfacet
  facet normal -1.184238e-014 -1.000000e+000  0.000000e+000
    outer loop
      vertex -3.599509e+001  3.552714e-014  2.000000e+000
      vertex -3.599509e+001  3.552714e-014  0.000000e+000
      vertex -3.299509e+001  0.000000e+000  2.000000e+000
    endloop
  endfacet
  facet normal -1.184238e-014 -1.000000e+000  -0.000000e+000
    outer loop
      vertex -3.299509e+001  0.000000e+000  2.000000e+000
      vertex -3.599509e+001  3.552714e-014  0.000000e+000
      vertex -3.299509e+001  0.000000e+000  0.000000e+000
    endloop
  endfacet
  facet normal -1.000000e+000  0.000000e+000  0.000000e+000
    outer loop
      vertex -3.599509e+001  8.000000e+000  2.000000e+000
      vertex -3.599509e+001  8.000000e+000  0.000000e+000
      vertex -3.599509e+001  3.552714e-014  2.000000e+000
    endloop
  endfacet
  facet normal -1.000000e+000  0.000000e+000  0.000000e+000
    outer loop
      vertex -3.599509e+001  3.552714e-014  2.000000e+000
      vertex -3.599509e+001  8.000000e+000  0.000000e+000
      vertex -3.599509e+001  3.552714e-014  0.000000e+000
    endloop
  endfacet
  facet normal  0.000000e+000 -1.000000e+000  0.000000e+000
    outer loop
      vertex -3.819509e+001  8.000000e+000  2.000000e+000
      vertex -3.819509e+001  8.000000e+000  0.000000e+000
      vertex -3.599509e+001  8.000000e+000  2.000000e+000
    endloop
  endfacet
  facet normal  0.000000e+000 -1.000000e+000  -0.000000e+000
    outer loop
      vertex -3.599509e+001  8.000000e+000  2.000000e+000
      vertex -3.819509e+001  8.000000e+000  0.000000e+000
      vertex -3.599509e+001  8.000000e+000  0.000000e+000
    endloop
  endfacet
  facet normal  1.000000e+000  0.000000e+000  0.000000e+000
    outer loop
      vertex -3.819509e+001  0.000000e+000  2.000000e+000
      vertex -3.819509e+001  0.000000e+000  0.000000e+000
      vertex -3.819509e+001  8.000000e+000  2.000000e+000
    endloop
  endfacet
  facet normal  1.000000e+000  0.000000e+000  0.000000e+000
    outer loop
      vertex -3.819509e+001  8.000000e+000  2.000000e+000
      vertex -3.819509e+001  0.000000e+000  0.000000e+000
      vertex -3.819509e+001  8.000000e+000  0.000000e+000
    endloop
  endfacet
  facet normal  0.000000e+000 -1.000000e+000  0.000000e+000
    outer loop
      vertex -4.119509e+001  0.000000e+000  2.000000e+000
      vertex -4.119509e+001  0.000000e+000  0.000000e+000
      vertex -3.819509e+001  0.000000e+000  2.000000e+000
    endloop
  endfacet
  facet normal  0.000000e+000 -1.000000e+000  -0.000000e+000
    outer loop
      vertex -3.819509e+001  0.000000e+000  2.000000e+000
      vertex -4.119509e+001  0.000000e+000  0.000000e+000
      vertex -3.819509e+001  0.000000e+000  0.000000e+000
    endloop
  endfacet
  facet normal  0.000000e+000  0.000000e+000 -1.000000e+000
    outer loop
      vertex  1.816120e+001  2.513245e+001  0.000000e+000
      vertex  3.461401e+001 -1.817092e+000  0.000000e+000
      vertex  2.530165e+001 -1.502228e-001  0.000000e+000
    endloop
  endfacet
  facet normal  0.000000e+000  0.000000e+000 -1.000000e+000
    outer loop
      vertex -1.328707e+001 -6.709309e+000  0.000000e+000
      vertex -4.360942e-001  7.830427e+000  0.000000e+000
      vertex -4.313727e+000 -3.048934e+000  0.000000e+000
    endloop
  endfacet
  facet normal  0.000000e+000  -0.000000e+000 -1.000000e+000
    outer loop
      vertex -1.328707e+001 -6.709309e+000  0.000000e+000
      vertex -4.313727e+000 -3.048934e+000  0.000000e+000
      vertex  8.822709e+000 -9.003658e+000  0.000000e+000
    endloop
  endfacet
  facet normal  -0.000000e+000  -0.000000e+000 -1.000000e+000
    outer loop
      vertex -1.328707e+001 -6.709309e+000  0.000000e+000
      vertex  8.822709e+000 -9.003658e+000  0.000000e+000
      vertex  1.188314e+001 -1.915975e+001  0.000000e+000
    endloop
  endfacet
  facet normal  0.000000e+000  0.000000e+000 -9.999999e-001
    outer loop
      vertex -1.248690e+001  2.399188e+001  0.000000e+000
      vertex  1.624725e+001  2.594551e+001  0.000000e+000
      vertex  1.111762e+001  1.831616e+001  0.000000e+000
    endloop
  endfacet
  facet normal  -0.000000e+000  0.000000e+000 -1.000000e+000
    outer loop
      vertex -1.248690e+001  2.399188e+001  0.000000e+000
      vertex  1.111762e+001  1.831616e+001  0.000000e+000
      vertex -6.396155e+000  1.654437e+001  0.000000e+000
    endloop
  endfacet
  facet normal  -0.000000e+000  0.000000e+000 -1.000000e+000
    outer loop
      vertex -1.248690e+001  2.399188e+001  0.000000e+000
      vertex -6.396155e+000  1.654437e+001  0.000000e+000
      vertex -2.643365e+001 -1.203524e+001  0.000000e+000
    endloop
  endfacet
  facet normal  0.000000e+000  0.000000e+000 -9.999999e-001
    outer loop
      vertex -5.162357e+000  1.452845e+001  0.000000e+000
      vertex  1.031730e+001  1.636973e+001  0.000000e+000
      vertex  5.643919e+000  8.384399e+000  0.000000e+000
    endloop
  endfacet
  facet normal  -0.000000e+000  0.000000e+000 -1.000000e+000
    outer loop
      vertex -5.162357e+000  1.452845e+001  0.000000e+000
      vertex  5.643919e+000  8.384399e+000  0.000000e+000
      vertex -4.360942e-001  7.830427e+000  0.000000e+000
    endloop
  endfacet
  facet normal  -0.000000e+000  0.000000e+000 -1.000000e+000
    outer loop
      vertex -5.162357e+000  1.452845e+001  0.000000e+000
      vertex -4.360942e-001  7.830427e+000  0.000000e+000
      vertex -1.328707e+001 -6.709309e+000  0.000000e+000
    endloop
  endfacet
  facet normal  -0.000000e+000  0.000000e+000 -1.000000e+000
    outer loop
      vertex  2.530165e+001 -1.502228e-001  0.000000e+000
      vertex  3.461401e+001 -1.817092e+000  0.000000e+000
      vertex  1.218619e+001 -2.116153e+001  0.000000e+000
    endloop
  endfacet
  facet normal  0.000000e+000  0.000000e+000 -1.000000e+000
    outer loop
      vertex  1.218619e+001 -2.116153e+001  0.000000e+000
      vertex  3.461401e+001 -1.817092e+000  0.000000e+000
      vertex  1.523008e+001 -3.207948e+001  0.000000e+000
    endloop
  endfacet
  facet normal  0.000000e+000  0.000000e+000 -1.000000e+000
    outer loop
      vertex  1.218619e+001 -2.116153e+001  0.000000e+000
      vertex  1.523008e+001 -3.207948e+001  0.000000e+000
      vertex -1.522041e+001 -7.199904e+000  0.000000e+000
    endloop
  endfacet
  facet normal  0.000000e+000  -0.000000e+000 -1.000000e+000
    outer loop
      vertex -1.522041e+001 -7.199904e+000  0.000000e+000
      vertex  1.523008e+001 -3.207948e+001  0.000000e+000
      vertex -2.643365e+001 -1.203524e+001  0.000000e+000
    endloop
  endfacet
  facet normal  0.000000e+000  0.000000e+000 -1.000000e+000
    outer loop
      vertex -1.522041e+001 -7.199904e+000  0.000000e+000
      vertex -2.643365e+001 -1.203524e+001  0.000000e+000
      vertex -6.396155e+000  1.654437e+001  0.000000e+000
    endloop
  endfacet
  facet normal  0.000000e+000  0.000000e+000 -9.999999e-001
    outer loop
      vertex  1.111762e+001  1.831616e+001  0.000000e+000
      vertex  1.624725e+001  2.594551e+001  0.000000e+000
      vertex  1.558471e+001 -1.499388e+000  0.000000e+000
    endloop
  endfacet
  facet normal  0.000000e+000  0.000000e+000 -9.999999e-001
    outer loop
      vertex  1.558471e+001 -1.499388e+000  0.000000e+000
      vertex  1.624725e+001  2.594551e+001  0.000000e+000
      vertex  2.368261e+001 -4.453546e-001  0.000000e+000
    endloop
  endfacet
  facet normal  0.000000e+000  0.000000e+000 -1.000000e+000
    outer loop
      vertex  1.558471e+001 -1.499388e+000  0.000000e+000
      vertex  2.368261e+001 -4.453546e-001  0.000000e+000
      vertex  8.822709e+000 -9.003658e+000  0.000000e+000
    endloop
  endfacet
  facet normal  0.000000e+000  0.000000e+000 -1.000000e+000
    outer loop
      vertex  8.822709e+000 -9.003658e+000  0.000000e+000
      vertex  2.368261e+001 -4.453546e-001  0.000000e+000
      vertex  1.188314e+001 -1.915975e+001  0.000000e+000
    endloop
  endfacet
  facet normal  0.000000e+000  0.000000e+000 -1.000000e+000
    outer loop
      vertex  7.038025e+000  0.000000e+000  0.000000e+000
      vertex  5.643919e+000  8.384399e+000  0.000000e+000
      vertex  1.362962e+001  0.000000e+000  0.000000e+000
    endloop
  endfacet
  facet normal  0.000000e+000  0.000000e+000 -1.000000e+000
    outer loop
      vertex  1.362962e+001  0.000000e+000  0.000000e+000
      vertex  5.643919e+000  8.384399e+000  0.000000e+000
      vertex  1.031730e+001  1.636973e+001  0.000000e+000
    endloop
  endfacet
  facet normal -9.864566e-001 -1.640219e-001  0.000000e+000
    outer loop
      vertex  7.038025e+000  0.000000e+000  1.700000e+001
      vertex  6.705478e+000  2.000000e+000  1.700000e+001
      vertex  7.038025e+000  0.000000e+000  0.000000e+000
    endloop
  endfacet
  facet normal -9.864567e-001 -1.640219e-001  0.000000e+000
    outer loop
      vertex  7.038025e+000  0.000000e+000  0.000000e+000
      vertex  6.705478e+000  2.000000e+000  1.700000e+001
      vertex  6.705478e+000  2.000000e+000  2.000000e+000
    endloop
  endfacet
  facet normal -9.864567e-001 -1.640220e-001  1.950754e-008
    outer loop
      vertex  7.038025e+000  0.000000e+000  0.000000e+000
      vertex  6.705478e+000  2.000000e+000  2.000000e+000
      vertex  5.643919e+000  8.384399e+000  0.000000e+000
    endloop
  endfacet
  facet normal -9.864566e-001 -1.640220e-001  0.000000e+000
    outer loop
      vertex  5.643919e+000  8.384399e+000  0.000000e+000
      vertex  6.705478e+000  2.000000e+000  2.000000e+000
      vertex  5.643919e+000  8.384399e+000  2.000000e+000
    endloop
  endfacet
  facet normal  9.801364e-001  1.983247e-001  0.000000e+000
    outer loop
      vertex  1.322493e+001  2.000000e+000  1.700000e+001
      vertex  1.362962e+001  0.000000e+000  1.700000e+001
      vertex  1.322493e+001  2.000000e+000  2.000000e+000
    endloop
  endfacet
  facet normal  9.801365e-001  1.983247e-001  0.000000e+000
    outer loop
      vertex  1.322493e+001  2.000000e+000  2.000000e+000
      vertex  1.362962e+001  0.000000e+000  1.700000e+001
      vertex  1.362962e+001  0.000000e+000  0.000000e+000
    endloop
  endfacet
  facet normal  9.801363e-001  1.983248e-001 -1.605556e-007
    outer loop
      vertex  1.322493e+001  2.000000e+000  2.000000e+000
      vertex  1.362962e+001  0.000000e+000  0.000000e+000
      vertex  1.031730e+001  1.636973e+001  2.000000e+000
    endloop
  endfacet
  facet normal  9.801363e-001  1.983248e-001  0.000000e+000
    outer loop
      vertex  1.031730e+001  1.636973e+001  2.000000e+000
      vertex  1.362962e+001  0.000000e+000  0.000000e+000
      vertex  1.031730e+001  1.636973e+001  0.000000e+000
    endloop
  endfacet
  facet normal  4.128613e-001  9.107940e-001  0.000000e+000
    outer loop
      vertex -4.313727e+000 -3.048934e+000  0.000000e+000
      vertex -4.313727e+000 -3.048934e+000  2.000000e+000
      vertex  8.822709e+000 -9.003658e+000  0.000000e+000
    endloop
  endfacet
  facet normal  4.128613e-001  9.107940e-001  -0.000000e+000
    outer loop
      vertex  8.822709e+000 -9.003658e+000  0.000000e+000
      vertex -4.313727e+000 -3.048934e+000  2.000000e+000
      vertex  8.822709e+000 -9.003658e+000  2.000000e+000
    endloop
  endfacet
  facet normal -7.428925e-001  6.694106e-001  0.000000e+000
    outer loop
      vertex  8.822709e+000 -9.003658e+000  0.000000e+000
      vertex  8.822709e+000 -9.003658e+000  2.000000e+000
      vertex  1.558471e+001 -1.499388e+000  0.000000e+000
    endloop
  endfacet
  facet normal -7.428925e-001  6.694106e-001  0.000000e+000
    outer loop
      vertex  1.558471e+001 -1.499388e+000  0.000000e+000
      vertex  8.822709e+000 -9.003658e+000  2.000000e+000
      vertex  1.558471e+001 -1.499388e+000  2.000000e+000
    endloop
  endfacet
  facet normal -9.755191e-001 -2.199148e-001  -0.000000e+000
    outer loop
      vertex  1.558471e+001 -1.499388e+000  0.000000e+000
      vertex  1.558471e+001 -1.499388e+000  2.000000e+000
      vertex  1.111762e+001  1.831616e+001  0.000000e+000
    endloop
  endfacet
  facet normal -9.755191e-001 -2.199148e-001  0.000000e+000
    outer loop
      vertex  1.111762e+001  1.831616e+001  0.000000e+000
      vertex  1.558471e+001 -1.499388e+000  2.000000e+000
      vertex  1.111762e+001  1.831616e+001  2.000000e+000
    endloop
  endfacet
  facet normal  1.006518e-001 -9.949217e-001  0.000000e+000
    outer loop
      vertex  1.111762e+001  1.831616e+001  0.000000e+000
      vertex  1.111762e+001  1.831616e+001  2.000000e+000
      vertex -6.396155e+000  1.654437e+001  0.000000e+000
    endloop
  endfacet
  facet normal  1.006518e-001 -9.949217e-001  0.000000e+000
    outer loop
      vertex -6.396155e+000  1.654437e+001  0.000000e+000
      vertex  1.111762e+001  1.831616e+001  2.000000e+000
      vertex -6.396155e+000  1.654437e+001  2.000000e+000
    endloop
  endfacet
  facet normal  9.373615e-001 -3.483582e-001  0.000000e+000
    outer loop
      vertex -6.396155e+000  1.654437e+001  0.000000e+000
      vertex -6.396155e+000  1.654437e+001  2.000000e+000
      vertex -1.522041e+001 -7.199904e+000  0.000000e+000
    endloop
  endfacet
  facet normal  9.373615e-001 -3.483582e-001  0.000000e+000
    outer loop
      vertex -1.522041e+001 -7.199904e+000  0.000000e+000
      vertex -6.396155e+000  1.654437e+001  2.000000e+000
      vertex -1.522041e+001 -7.199904e+000  2.000000e+000
    endloop
  endfacet
  facet normal  4.539200e-001  8.910424e-001  0.000000e+000
    outer loop
      vertex -1.522041e+001 -7.199904e+000  0.000000e+000
      vertex -1.522041e+001 -7.199904e+000  2.000000e+000
      vertex  1.218619e+001 -2.116153e+001  0.000000e+000
    endloop
  endfacet
  facet normal  4.539200e-001  8.910424e-001  -0.000000e+000
    outer loop
      vertex  1.218619e+001 -2.116153e+001  0.000000e+000
      vertex -1.522041e+001 -7.199904e+000  2.000000e+000
      vertex  1.218619e+001 -2.116153e+001  2.000000e+000
    endloop
  endfacet
  facet normal -8.482997e-001  5.295165e-001  0.000000e+000
    outer loop
      vertex  1.218619e+001 -2.116153e+001  0.000000e+000
      vertex  1.218619e+001 -2.116153e+001  2.000000e+000
      vertex  2.530165e+001 -1.502228e-001  0.000000e+000
    endloop
  endfacet
  facet normal -8.482997e-001  5.295165e-001  0.000000e+000
    outer loop
      vertex  2.530165e+001 -1.502228e-001  0.000000e+000
      vertex  1.218619e+001 -2.116153e+001  2.000000e+000
      vertex  2.530165e+001 -1.502228e-001  2.000000e+000
    endloop
  endfacet
  facet normal -9.623557e-001 -2.717930e-001  -0.000000e+000
    outer loop
      vertex  2.530165e+001 -1.502228e-001  0.000000e+000
      vertex  2.530165e+001 -1.502228e-001  2.000000e+000
      vertex  1.816120e+001  2.513245e+001  0.000000e+000
    endloop
  endfacet
  facet normal -9.623557e-001 -2.717930e-001  0.000000e+000
    outer loop
      vertex  1.816120e+001  2.513245e+001  0.000000e+000
      vertex  2.530165e+001 -1.502228e-001  2.000000e+000
      vertex  1.816120e+001  2.513245e+001  2.000000e+000
    endloop
  endfacet
  facet normal  8.535122e-001  5.210728e-001  0.000000e+000
    outer loop
      vertex  1.816120e+001  2.513245e+001  0.000000e+000
      vertex  1.816120e+001  2.513245e+001  2.000000e+000
      vertex  3.461401e+001 -1.817092e+000  0.000000e+000
    endloop
  endfacet
  facet normal  8.535122e-001  5.210728e-001  -0.000000e+000
    outer loop
      vertex  3.461401e+001 -1.817092e+000  0.000000e+000
      vertex  1.816120e+001  2.513245e+001  2.000000e+000
      vertex  3.461401e+001 -1.817092e+000  2.000000e+000
    endloop
  endfacet
  facet normal  8.420693e-001 -5.393694e-001  0.000000e+000
    outer loop
      vertex  3.461401e+001 -1.817092e+000  0.000000e+000
      vertex  3.461401e+001 -1.817092e+000  2.000000e+000
      vertex  1.523008e+001 -3.207948e+001  0.000000e+000
    endloop
  endfacet
  facet normal  8.420693e-001 -5.393694e-001  0.000000e+000
    outer loop
      vertex  1.523008e+001 -3.207948e+001  0.000000e+000
      vertex  3.461401e+001 -1.817092e+000  2.000000e+000
      vertex  1.523008e+001 -3.207948e+001  2.000000e+000
    endloop
  endfacet
  facet normal -4.335334e-001 -9.011375e-001  -0.000000e+000
    outer loop
      vertex  1.523008e+001 -3.207948e+001  0.000000e+000
      vertex  1.523008e+001 -3.207948e+001  2.000000e+000
      vertex -2.643365e+001 -1.203524e+001  0.000000e+000
    endloop
  endfacet
  facet normal -4.335334e-001 -9.011375e-001  0.000000e+000
    outer loop
      vertex -2.643365e+001 -1.203524e+001  0.000000e+000
      vertex  1.523008e+001 -3.207948e+001  2.000000e+000
      vertex -2.643365e+001 -1.203524e+001  2.000000e+000
    endloop
  endfacet
  facet normal -9.325614e-001  3.610113e-001  0.000000e+000
    outer loop
      vertex -2.643365e+001 -1.203524e+001  0.000000e+000
      vertex -2.643365e+001 -1.203524e+001  2.000000e+000
      vertex -1.248690e+001  2.399188e+001  0.000000e+000
    endloop
  endfacet
  facet normal -9.325614e-001  3.610113e-001  0.000000e+000
    outer loop
      vertex -1.248690e+001  2.399188e+001  0.000000e+000
      vertex -2.643365e+001 -1.203524e+001  2.000000e+000
      vertex -1.248690e+001  2.399188e+001  2.000000e+000
    endloop
  endfacet
  facet normal -6.783339e-002  9.976966e-001  0.000000e+000
    outer loop
      vertex -1.248690e+001  2.399188e+001  0.000000e+000
      vertex -1.248690e+001  2.399188e+001  2.000000e+000
      vertex  1.624725e+001  2.594551e+001  0.000000e+000
    endloop
  endfacet
  facet normal -6.783339e-002  9.976966e-001  0.000000e+000
    outer loop
      vertex  1.624725e+001  2.594551e+001  0.000000e+000
      vertex -1.248690e+001  2.399188e+001  2.000000e+000
      vertex  1.624725e+001  2.594551e+001  2.000000e+000
    endloop
  endfacet
  facet normal  9.625279e-001  2.711826e-001  0.000000e+000
    outer loop
      vertex  1.624725e+001  2.594551e+001  0.000000e+000
      vertex  1.624725e+001  2.594551e+001  2.000000e+000
      vertex  2.368261e+001 -4.453546e-001  0.000000e+000
    endloop
  endfacet
  facet normal  9.625279e-001  2.711826e-001  -0.000000e+000
    outer loop
      vertex  2.368261e+001 -4.453546e-001  0.000000e+000
      vertex  1.624725e+001  2.594551e+001  2.000000e+000
      vertex  2.368261e+001 -4.453546e-001  2.000000e+000
    endloop
  endfacet
  facet normal  8.458999e-001 -5.333416e-001  0.000000e+000
    outer loop
      vertex  2.368261e+001 -4.453546e-001  0.000000e+000
      vertex  2.368261e+001 -4.453546e-001  2.000000e+000
      vertex  1.188314e+001 -1.915975e+001  0.000000e+000
    endloop
  endfacet
  facet normal  8.458999e-001 -5.333416e-001  0.000000e+000
    outer loop
      vertex  1.188314e+001 -1.915975e+001  0.000000e+000
      vertex  2.368261e+001 -4.453546e-001  2.000000e+000
      vertex  1.188314e+001 -1.915975e+001  2.000000e+000
    endloop
  endfacet
  facet normal -4.433730e-001 -8.963371e-001  -0.000000e+000
    outer loop
      vertex  1.188314e+001 -1.915975e+001  0.000000e+000
      vertex  1.188314e+001 -1.915975e+001  2.000000e+000
      vertex -1.328707e+001 -6.709309e+000  0.000000e+000
    endloop
  endfacet
  facet normal -4.433730e-001 -8.963371e-001  0.000000e+000
    outer loop
      vertex -1.328707e+001 -6.709309e+000  0.000000e+000
      vertex  1.188314e+001 -1.915975e+001  2.000000e+000
      vertex -1.328707e+001 -6.709309e+000  2.000000e+000
    endloop
  endfacet
  facet normal -9.339874e-001  3.573059e-001  0.000000e+000
    outer loop
      vertex -5.162357e+000  1.452845e+001  2.000000e+000
      vertex -5.162357e+000  1.452845e+001  0.000000e+000
      vertex -1.328707e+001 -6.709309e+000  2.000000e+000
    endloop
  endfacet
  facet normal -9.339874e-001  3.573059e-001  0.000000e+000
    outer loop
      vertex -1.328707e+001 -6.709309e+000  2.000000e+000
      vertex -5.162357e+000  1.452845e+001  0.000000e+000
      vertex -1.328707e+001 -6.709309e+000  0.000000e+000
    endloop
  endfacet
  facet normal -1.181162e-001  9.929997e-001  0.000000e+000
    outer loop
      vertex  1.031730e+001  1.636973e+001  2.000000e+000
      vertex  1.031730e+001  1.636973e+001  0.000000e+000
      vertex -5.162357e+000  1.452845e+001  2.000000e+000
    endloop
  endfacet
  facet normal -1.181162e-001  9.929997e-001  0.000000e+000
    outer loop
      vertex -5.162357e+000  1.452845e+001  2.000000e+000
      vertex  1.031730e+001  1.636973e+001  0.000000e+000
      vertex -5.162357e+000  1.452845e+001  0.000000e+000
    endloop
  endfacet
  facet normal  9.073780e-002 -9.958748e-001  0.000000e+000
    outer loop
      vertex -4.360942e-001  7.830427e+000  2.000000e+000
      vertex -4.360942e-001  7.830427e+000  0.000000e+000
      vertex  5.643919e+000  8.384399e+000  2.000000e+000
    endloop
  endfacet
  facet normal  9.073780e-002 -9.958748e-001  0.000000e+000
    outer loop
      vertex  5.643919e+000  8.384399e+000  2.000000e+000
      vertex -4.360942e-001  7.830427e+000  0.000000e+000
      vertex  5.643919e+000  8.384399e+000  0.000000e+000
    endloop
  endfacet
  facet normal  9.419571e-001 -3.357333e-001  0.000000e+000
    outer loop
      vertex -4.313727e+000 -3.048934e+000  2.000000e+000
      vertex -4.313727e+000 -3.048934e+000  0.000000e+000
      vertex -4.360942e-001  7.830427e+000  2.000000e+000
    endloop
  endfacet
  facet normal  9.419571e-001 -3.357333e-001  0.000000e+000
    outer loop
      vertex -4.360942e-001  7.830427e+000  2.000000e+000
      vertex -4.313727e+000 -3.048934e+000  0.000000e+000
      vertex -4.360942e-001  7.830427e+000  0.000000e+000
    endloop
  endfacet
endsolid CATIA STL
