solid CATIA STL
  facet normal  0.000000e+000  0.000000e+000 -1.000000e+000
    outer loop
      vertex  3.488259e+001 -1.656685e+001  0.000000e+000
      vertex  3.128259e+001 -1.656685e+001  0.000000e+000
      vertex  3.488259e+001 -1.066685e+001  0.000000e+000
    endloop
  endfacet
  facet normal  0.000000e+000  0.000000e+000 -1.000000e+000
    outer loop
      vertex  3.288259e+001 -2.666685e+001  0.000000e+000
      vertex  2.988259e+001 -2.666685e+001  0.000000e+000
      vertex  3.488259e+001 -2.466685e+001  0.000000e+000
    endloop
  endfacet
  facet normal  0.000000e+000  0.000000e+000 -1.000000e+000
    outer loop
      vertex  3.488259e+001 -1.876685e+001  0.000000e+000
      vertex  3.488259e+001 -2.466685e+001  0.000000e+000
      vertex  3.128259e+001 -1.876685e+001  0.000000e+000
    endloop
  endfacet
  facet normal  0.000000e+000  -0.000000e+000 -1.000000e+000
    outer loop
      vertex  3.128259e+001 -1.876685e+001  0.000000e+000
      vertex  3.488259e+001 -2.466685e+001  0.000000e+000
      vertex  2.988259e+001 -2.666685e+001  0.000000e+000
    endloop
  endfacet
  facet normal  0.000000e+000  0.000000e+000 -1.000000e+000
    outer loop
      vertex  3.128259e+001 -1.876685e+001  0.000000e+000
      vertex  2.988259e+001 -2.666685e+001  0.000000e+000
      vertex  3.128259e+001 -1.656685e+001  0.000000e+000
    endloop
  endfacet
  facet normal  -0.000000e+000  0.000000e+000 -1.000000e+000
    outer loop
      vertex  3.128259e+001 -1.656685e+001  0.000000e+000
      vertex  2.988259e+001 -2.666685e+001  0.000000e+000
      vertex  2.988259e+001 -8.666848e+000  0.000000e+000
    endloop
  endfacet
  facet normal  0.000000e+000  0.000000e+000 -1.000000e+000
    outer loop
      vertex  3.128259e+001 -1.656685e+001  0.000000e+000
      vertex  2.988259e+001 -8.666848e+000  0.000000e+000
      vertex  3.488259e+001 -1.066685e+001  0.000000e+000
    endloop
  endfacet
  facet normal  0.000000e+000  0.000000e+000 -1.000000e+000
    outer loop
      vertex  3.488259e+001 -1.066685e+001  0.000000e+000
      vertex  2.988259e+001 -8.666848e+000  0.000000e+000
      vertex  3.288259e+001 -8.666848e+000  0.000000e+000
    endloop
  endfacet
  facet normal  0.000000e+000  0.000000e+000  1.000000e+000
    outer loop
      vertex  3.488259e+001 -1.066685e+001  2.000000e+000
      vertex  3.128259e+001 -1.656685e+001  2.000000e+000
      vertex  3.488259e+001 -1.656685e+001  2.000000e+000
    endloop
  endfacet
  facet normal  0.000000e+000  0.000000e+000  1.000000e+000
    outer loop
      vertex  3.488259e+001 -2.466685e+001  2.000000e+000
      vertex  2.988259e+001 -2.666685e+001  2.000000e+000
      vertex  3.288259e+001 -2.666685e+001  2.000000e+000
    endloop
  endfacet
  facet normal  0.000000e+000  0.000000e+000  1.000000e+000
    outer loop
      vertex  3.488259e+001 -2.466685e+001  2.000000e+000
      vertex  3.488259e+001 -1.876685e+001  2.000000e+000
      vertex  2.988259e+001 -2.666685e+001  2.000000e+000
    endloop
  endfacet
  facet normal  0.000000e+000  0.000000e+000  1.000000e+000
    outer loop
      vertex  2.988259e+001 -2.666685e+001  2.000000e+000
      vertex  3.488259e+001 -1.876685e+001  2.000000e+000
      vertex  3.128259e+001 -1.876685e+001  2.000000e+000
    endloop
  endfacet
  facet normal  0.000000e+000  0.000000e+000  1.000000e+000
    outer loop
      vertex  2.988259e+001 -2.666685e+001  2.000000e+000
      vertex  3.128259e+001 -1.876685e+001  2.000000e+000
      vertex  2.988259e+001 -8.666848e+000  2.000000e+000
    endloop
  endfacet
  facet normal  0.000000e+000  0.000000e+000  1.000000e+000
    outer loop
      vertex  2.988259e+001 -8.666848e+000  2.000000e+000
      vertex  3.128259e+001 -1.876685e+001  2.000000e+000
      vertex  3.128259e+001 -1.656685e+001  2.000000e+000
    endloop
  endfacet
  facet normal  0.000000e+000  -0.000000e+000  1.000000e+000
    outer loop
      vertex  2.988259e+001 -8.666848e+000  2.000000e+000
      vertex  3.128259e+001 -1.656685e+001  2.000000e+000
      vertex  3.288259e+001 -8.666848e+000  2.000000e+000
    endloop
  endfacet
  facet normal  0.000000e+000  0.000000e+000  9.999999e-001
    outer loop
      vertex  3.288259e+001 -8.666848e+000  2.000000e+000
      vertex  3.128259e+001 -1.656685e+001  2.000000e+000
      vertex  3.488259e+001 -1.066685e+001  2.000000e+000
    endloop
  endfacet
  facet normal  1.000000e+000  0.000000e+000  0.000000e+000
    outer loop
      vertex  3.488259e+001 -1.066685e+001  0.000000e+000
      vertex  3.488259e+001 -1.066685e+001  2.000000e+000
      vertex  3.488259e+001 -1.656685e+001  0.000000e+000
    endloop
  endfacet
  facet normal  1.000000e+000  0.000000e+000  0.000000e+000
    outer loop
      vertex  3.488259e+001 -1.656685e+001  0.000000e+000
      vertex  3.488259e+001 -1.066685e+001  2.000000e+000
      vertex  3.488259e+001 -1.656685e+001  2.000000e+000
    endloop
  endfacet
  facet normal  0.000000e+000  1.000000e+000  -0.000000e+000
    outer loop
      vertex  3.288259e+001 -8.666848e+000  2.000000e+000
      vertex  3.288259e+001 -8.666848e+000  0.000000e+000
      vertex  2.988259e+001 -8.666848e+000  2.000000e+000
    endloop
  endfacet
  facet normal  0.000000e+000  1.000000e+000  0.000000e+000
    outer loop
      vertex  2.988259e+001 -8.666848e+000  2.000000e+000
      vertex  3.288259e+001 -8.666848e+000  0.000000e+000
      vertex  2.988259e+001 -8.666848e+000  0.000000e+000
    endloop
  endfacet
  facet normal  7.071068e-001  7.071068e-001  0.000000e+000
    outer loop
      vertex  3.288259e+001 -8.666848e+000  0.000000e+000
      vertex  3.288259e+001 -8.666848e+000  2.000000e+000
      vertex  3.488259e+001 -1.066685e+001  0.000000e+000
    endloop
  endfacet
  facet normal  7.071068e-001  7.071068e-001  -0.000000e+000
    outer loop
      vertex  3.488259e+001 -1.066685e+001  0.000000e+000
      vertex  3.288259e+001 -8.666848e+000  2.000000e+000
      vertex  3.488259e+001 -1.066685e+001  2.000000e+000
    endloop
  endfacet
  facet normal  9.999999e-001  0.000000e+000  0.000000e+000
    outer loop
      vertex  3.488259e+001 -1.876685e+001  0.000000e+000
      vertex  3.488259e+001 -1.876685e+001  2.000000e+000
      vertex  3.488259e+001 -2.466685e+001  0.000000e+000
    endloop
  endfacet
  facet normal  9.999999e-001  0.000000e+000  0.000000e+000
    outer loop
      vertex  3.488259e+001 -2.466685e+001  0.000000e+000
      vertex  3.488259e+001 -1.876685e+001  2.000000e+000
      vertex  3.488259e+001 -2.466685e+001  2.000000e+000
    endloop
  endfacet
  facet normal  0.000000e+000 -1.000000e+000  0.000000e+000
    outer loop
      vertex  2.988259e+001 -2.666685e+001  2.000000e+000
      vertex  2.988259e+001 -2.666685e+001  0.000000e+000
      vertex  3.288259e+001 -2.666685e+001  2.000000e+000
    endloop
  endfacet
  facet normal  0.000000e+000 -1.000000e+000  -0.000000e+000
    outer loop
      vertex  3.288259e+001 -2.666685e+001  2.000000e+000
      vertex  2.988259e+001 -2.666685e+001  0.000000e+000
      vertex  3.288259e+001 -2.666685e+001  0.000000e+000
    endloop
  endfacet
  facet normal  7.071068e-001 -7.071068e-001  0.000000e+000
    outer loop
      vertex  3.488259e+001 -2.466685e+001  0.000000e+000
      vertex  3.488259e+001 -2.466685e+001  2.000000e+000
      vertex  3.288259e+001 -2.666685e+001  0.000000e+000
    endloop
  endfacet
  facet normal  7.071068e-001 -7.071068e-001  0.000000e+000
    outer loop
      vertex  3.288259e+001 -2.666685e+001  0.000000e+000
      vertex  3.488259e+001 -2.466685e+001  2.000000e+000
      vertex  3.288259e+001 -2.666685e+001  2.000000e+000
    endloop
  endfacet
  facet normal  0.000000e+000  0.000000e+000 -1.000000e+000
    outer loop
      vertex  2.219812e+001 -2.973541e+001  0.000000e+000
      vertex  2.219812e+001  1.526459e+001  0.000000e+000
      vertex  2.359812e+001  1.526459e+001  0.000000e+000
    endloop
  endfacet
  facet normal  0.000000e+000  -0.000000e+000 -1.000000e+000
    outer loop
      vertex  2.219812e+001 -2.973541e+001  0.000000e+000
      vertex  2.359812e+001  1.526459e+001  0.000000e+000
      vertex  2.359812e+001  7.264585e+000  0.000000e+000
    endloop
  endfacet
  facet normal  0.000000e+000  -0.000000e+000 -1.000000e+000
    outer loop
      vertex  2.219812e+001 -2.973541e+001  0.000000e+000
      vertex  2.359812e+001  7.264585e+000  0.000000e+000
      vertex  2.579812e+001  7.264585e+000  0.000000e+000
    endloop
  endfacet
  facet normal  0.000000e+000  -0.000000e+000 -1.000000e+000
    outer loop
      vertex  2.219812e+001 -2.973541e+001  0.000000e+000
      vertex  2.579812e+001  7.264585e+000  0.000000e+000
      vertex  2.719812e+001 -2.973541e+001  0.000000e+000
    endloop
  endfacet
  facet normal  0.000000e+000  -0.000000e+000 -1.000000e+000
    outer loop
      vertex  1.719812e+001 -3.173541e+001  0.000000e+000
      vertex  1.919812e+001 -2.973541e+001  0.000000e+000
      vertex  2.219812e+001 -2.973541e+001  0.000000e+000
    endloop
  endfacet
  facet normal  0.000000e+000  -0.000000e+000 -1.000000e+000
    outer loop
      vertex  1.719812e+001 -3.173541e+001  0.000000e+000
      vertex  2.219812e+001 -2.973541e+001  0.000000e+000
      vertex  2.719812e+001 -2.973541e+001  0.000000e+000
    endloop
  endfacet
  facet normal  0.000000e+000  -0.000000e+000 -1.000000e+000
    outer loop
      vertex  1.719812e+001 -3.173541e+001  0.000000e+000
      vertex  2.719812e+001 -2.973541e+001  0.000000e+000
      vertex  3.019812e+001 -2.973541e+001  0.000000e+000
    endloop
  endfacet
  facet normal  0.000000e+000  -0.000000e+000 -1.000000e+000
    outer loop
      vertex  1.719812e+001 -3.173541e+001  0.000000e+000
      vertex  3.019812e+001 -2.973541e+001  0.000000e+000
      vertex  3.219812e+001 -3.173541e+001  0.000000e+000
    endloop
  endfacet
  facet normal  -0.000000e+000  0.000000e+000 -9.999999e-001
    outer loop
      vertex  1.719812e+001 -3.173541e+001  0.000000e+000
      vertex  3.219812e+001 -3.173541e+001  0.000000e+000
      vertex  2.579812e+001 -3.313541e+001  0.000000e+000
    endloop
  endfacet
  facet normal  0.000000e+000  0.000000e+000 -1.000000e+000
    outer loop
      vertex  1.719812e+001 -3.173541e+001  0.000000e+000
      vertex  2.579812e+001 -3.313541e+001  0.000000e+000
      vertex  2.359812e+001 -3.313541e+001  0.000000e+000
    endloop
  endfacet
  facet normal  -0.000000e+000  -0.000000e+000 -1.000000e+000
    outer loop
      vertex  1.719812e+001 -3.173541e+001  0.000000e+000
      vertex  2.359812e+001 -3.313541e+001  0.000000e+000
      vertex  2.359812e+001 -3.473542e+001  0.000000e+000
    endloop
  endfacet
  facet normal  0.000000e+000  0.000000e+000 -1.000000e+000
    outer loop
      vertex  1.719812e+001 -3.173541e+001  0.000000e+000
      vertex  2.359812e+001 -3.473542e+001  0.000000e+000
      vertex  1.719812e+001 -3.473542e+001  0.000000e+000
    endloop
  endfacet
  facet normal  0.000000e+000  0.000000e+000 -1.000000e+000
    outer loop
      vertex  2.719812e+001 -2.973541e+001  0.000000e+000
      vertex  2.579812e+001  7.264585e+000  0.000000e+000
      vertex  2.719812e+001  1.526459e+001  0.000000e+000
    endloop
  endfacet
  facet normal  -0.000000e+000  0.000000e+000 -1.000000e+000
    outer loop
      vertex  2.719812e+001  1.526459e+001  0.000000e+000
      vertex  2.579812e+001  7.264585e+000  0.000000e+000
      vertex  2.579812e+001  1.526459e+001  0.000000e+000
    endloop
  endfacet
  facet normal  0.000000e+000  0.000000e+000 -1.000000e+000
    outer loop
      vertex  3.219812e+001 -3.473542e+001  0.000000e+000
      vertex  2.579812e+001 -3.473542e+001  0.000000e+000
      vertex  3.219812e+001 -3.173541e+001  0.000000e+000
    endloop
  endfacet
  facet normal  0.000000e+000  0.000000e+000 -1.000000e+000
    outer loop
      vertex  3.219812e+001 -3.173541e+001  0.000000e+000
      vertex  2.579812e+001 -3.473542e+001  0.000000e+000
      vertex  2.579812e+001 -3.313541e+001  0.000000e+000
    endloop
  endfacet
  facet normal  0.000000e+000  0.000000e+000  1.000000e+000
    outer loop
      vertex  2.219812e+001 -2.973541e+001  2.000000e+000
      vertex  2.719812e+001 -2.973541e+001  2.000000e+000
      vertex  2.579812e+001  7.264585e+000  2.000000e+000
    endloop
  endfacet
  facet normal  0.000000e+000  0.000000e+000  1.000000e+000
    outer loop
      vertex  2.219812e+001 -2.973541e+001  2.000000e+000
      vertex  2.579812e+001  7.264585e+000  2.000000e+000
      vertex  2.359812e+001  7.264585e+000  2.000000e+000
    endloop
  endfacet
  facet normal  0.000000e+000  -0.000000e+000  1.000000e+000
    outer loop
      vertex  2.219812e+001 -2.973541e+001  2.000000e+000
      vertex  2.359812e+001  7.264585e+000  2.000000e+000
      vertex  2.359812e+001  1.526459e+001  2.000000e+000
    endloop
  endfacet
  facet normal  0.000000e+000  0.000000e+000  1.000000e+000
    outer loop
      vertex  2.219812e+001 -2.973541e+001  2.000000e+000
      vertex  2.359812e+001  1.526459e+001  2.000000e+000
      vertex  2.219812e+001  1.526459e+001  2.000000e+000
    endloop
  endfacet
  facet normal  0.000000e+000  0.000000e+000  1.000000e+000
    outer loop
      vertex  1.719812e+001 -3.173541e+001  2.000000e+000
      vertex  1.719812e+001 -3.473542e+001  2.000000e+000
      vertex  2.359812e+001 -3.473542e+001  2.000000e+000
    endloop
  endfacet
  facet normal  0.000000e+000  -0.000000e+000  1.000000e+000
    outer loop
      vertex  1.719812e+001 -3.173541e+001  2.000000e+000
      vertex  2.359812e+001 -3.473542e+001  2.000000e+000
      vertex  2.359812e+001 -3.313541e+001  2.000000e+000
    endloop
  endfacet
  facet normal  0.000000e+000  -0.000000e+000  1.000000e+000
    outer loop
      vertex  1.719812e+001 -3.173541e+001  2.000000e+000
      vertex  2.359812e+001 -3.313541e+001  2.000000e+000
      vertex  2.579812e+001 -3.313541e+001  2.000000e+000
    endloop
  endfacet
  facet normal  0.000000e+000  -0.000000e+000  9.999999e-001
    outer loop
      vertex  1.719812e+001 -3.173541e+001  2.000000e+000
      vertex  2.579812e+001 -3.313541e+001  2.000000e+000
      vertex  3.219812e+001 -3.173541e+001  2.000000e+000
    endloop
  endfacet
  facet normal  0.000000e+000  0.000000e+000  1.000000e+000
    outer loop
      vertex  1.719812e+001 -3.173541e+001  2.000000e+000
      vertex  3.219812e+001 -3.173541e+001  2.000000e+000
      vertex  3.019812e+001 -2.973541e+001  2.000000e+000
    endloop
  endfacet
  facet normal  0.000000e+000  0.000000e+000  1.000000e+000
    outer loop
      vertex  1.719812e+001 -3.173541e+001  2.000000e+000
      vertex  3.019812e+001 -2.973541e+001  2.000000e+000
      vertex  2.719812e+001 -2.973541e+001  2.000000e+000
    endloop
  endfacet
  facet normal  0.000000e+000  0.000000e+000  1.000000e+000
    outer loop
      vertex  1.719812e+001 -3.173541e+001  2.000000e+000
      vertex  2.719812e+001 -2.973541e+001  2.000000e+000
      vertex  2.219812e+001 -2.973541e+001  2.000000e+000
    endloop
  endfacet
  facet normal  0.000000e+000  0.000000e+000  1.000000e+000
    outer loop
      vertex  1.719812e+001 -3.173541e+001  2.000000e+000
      vertex  2.219812e+001 -2.973541e+001  2.000000e+000
      vertex  1.919812e+001 -2.973541e+001  2.000000e+000
    endloop
  endfacet
  facet normal  0.000000e+000  0.000000e+000  1.000000e+000
    outer loop
      vertex  2.579812e+001  7.264585e+000  2.000000e+000
      vertex  2.719812e+001 -2.973541e+001  2.000000e+000
      vertex  2.579812e+001  1.526459e+001  2.000000e+000
    endloop
  endfacet
  facet normal  -0.000000e+000  0.000000e+000  1.000000e+000
    outer loop
      vertex  2.579812e+001  1.526459e+001  2.000000e+000
      vertex  2.719812e+001 -2.973541e+001  2.000000e+000
      vertex  2.719812e+001  1.526459e+001  2.000000e+000
    endloop
  endfacet
  facet normal  0.000000e+000  0.000000e+000  1.000000e+000
    outer loop
      vertex  2.579812e+001 -3.473542e+001  2.000000e+000
      vertex  3.219812e+001 -3.473542e+001  2.000000e+000
      vertex  2.579812e+001 -3.313541e+001  2.000000e+000
    endloop
  endfacet
  facet normal  -0.000000e+000  0.000000e+000  1.000000e+000
    outer loop
      vertex  2.579812e+001 -3.313541e+001  2.000000e+000
      vertex  3.219812e+001 -3.473542e+001  2.000000e+000
      vertex  3.219812e+001 -3.173541e+001  2.000000e+000
    endloop
  endfacet
  facet normal  0.000000e+000  1.000000e+000  0.000000e+000
    outer loop
      vertex  2.719812e+001 -2.973541e+001  0.000000e+000
      vertex  2.719812e+001 -2.973541e+001  2.000000e+000
      vertex  3.019812e+001 -2.973541e+001  0.000000e+000
    endloop
  endfacet
  facet normal  0.000000e+000  1.000000e+000  -0.000000e+000
    outer loop
      vertex  3.019812e+001 -2.973541e+001  0.000000e+000
      vertex  2.719812e+001 -2.973541e+001  2.000000e+000
      vertex  3.019812e+001 -2.973541e+001  2.000000e+000
    endloop
  endfacet
  facet normal  1.000000e+000  0.000000e+000  0.000000e+000
    outer loop
      vertex  3.219812e+001 -3.473542e+001  2.000000e+000
      vertex  3.219812e+001 -3.473542e+001  0.000000e+000
      vertex  3.219812e+001 -3.173541e+001  2.000000e+000
    endloop
  endfacet
  facet normal  1.000000e+000  0.000000e+000  0.000000e+000
    outer loop
      vertex  3.219812e+001 -3.173541e+001  2.000000e+000
      vertex  3.219812e+001 -3.473542e+001  0.000000e+000
      vertex  3.219812e+001 -3.173541e+001  0.000000e+000
    endloop
  endfacet
  facet normal  7.071071e-001  7.071064e-001  0.000000e+000
    outer loop
      vertex  3.019812e+001 -2.973541e+001  0.000000e+000
      vertex  3.019812e+001 -2.973541e+001  2.000000e+000
      vertex  3.219812e+001 -3.173541e+001  0.000000e+000
    endloop
  endfacet
  facet normal  7.071071e-001  7.071064e-001  -0.000000e+000
    outer loop
      vertex  3.219812e+001 -3.173541e+001  0.000000e+000
      vertex  3.019812e+001 -2.973541e+001  2.000000e+000
      vertex  3.219812e+001 -3.173541e+001  2.000000e+000
    endloop
  endfacet
  facet normal  0.000000e+000  1.000000e+000  0.000000e+000
    outer loop
      vertex  1.919812e+001 -2.973541e+001  0.000000e+000
      vertex  1.919812e+001 -2.973541e+001  2.000000e+000
      vertex  2.219812e+001 -2.973541e+001  0.000000e+000
    endloop
  endfacet
  facet normal  0.000000e+000  1.000000e+000  -0.000000e+000
    outer loop
      vertex  2.219812e+001 -2.973541e+001  0.000000e+000
      vertex  1.919812e+001 -2.973541e+001  2.000000e+000
      vertex  2.219812e+001 -2.973541e+001  2.000000e+000
    endloop
  endfacet
  facet normal -1.000000e+000  0.000000e+000  0.000000e+000
    outer loop
      vertex  1.719812e+001 -3.173541e+001  2.000000e+000
      vertex  1.719812e+001 -3.173541e+001  0.000000e+000
      vertex  1.719812e+001 -3.473542e+001  2.000000e+000
    endloop
  endfacet
  facet normal -1.000000e+000  0.000000e+000  0.000000e+000
    outer loop
      vertex  1.719812e+001 -3.473542e+001  2.000000e+000
      vertex  1.719812e+001 -3.173541e+001  0.000000e+000
      vertex  1.719812e+001 -3.473542e+001  0.000000e+000
    endloop
  endfacet
  facet normal -7.071068e-001  7.071068e-001  0.000000e+000
    outer loop
      vertex  1.719812e+001 -3.173541e+001  0.000000e+000
      vertex  1.719812e+001 -3.173541e+001  2.000000e+000
      vertex  1.919812e+001 -2.973541e+001  0.000000e+000
    endloop
  endfacet
  facet normal -7.071068e-001  7.071068e-001  0.000000e+000
    outer loop
      vertex  1.919812e+001 -2.973541e+001  0.000000e+000
      vertex  1.719812e+001 -3.173541e+001  2.000000e+000
      vertex  1.919812e+001 -2.973541e+001  2.000000e+000
    endloop
  endfacet
  facet normal  0.000000e+000  0.000000e+000  1.000000e+000
    outer loop
      vertex  2.988166e+001 -5.560903e+001  2.000000e+000
      vertex  3.017053e+001 -5.490027e+001  2.000000e+000
      vertex  2.908164e+001 -5.740334e+001  2.000000e+000
    endloop
  endfacet
  facet normal  0.000000e+000  0.000000e+000  1.000000e+000
    outer loop
      vertex  2.988166e+001 -5.560903e+001  2.000000e+000
      vertex  2.908164e+001 -5.740334e+001  2.000000e+000
      vertex  3.017857e+001 -5.631446e+001  2.000000e+000
    endloop
  endfacet
  facet normal  0.000000e+000  0.000000e+000  1.000000e+000
    outer loop
      vertex  2.488165e+001 -5.570494e+001  2.000000e+000
      vertex  2.257964e+001 -5.970494e+001  2.000000e+000
      vertex  2.488165e+001 -5.970494e+001  2.000000e+000
    endloop
  endfacet
  facet normal  0.000000e+000  0.000000e+000  1.000000e+000
    outer loop
      vertex  3.238165e+001 -5.740334e+001  2.000000e+000
      vertex  3.188163e+001 -5.559765e+001  2.000000e+000
      vertex  3.159276e+001 -5.630641e+001  2.000000e+000
    endloop
  endfacet
  facet normal  0.000000e+000  0.000000e+000  1.000000e+000
    outer loop
      vertex  3.238165e+001 -5.740334e+001  2.000000e+000
      vertex  3.159276e+001 -5.630641e+001  2.000000e+000
      vertex  3.088733e+001 -5.660332e+001  2.000000e+000
    endloop
  endfacet
  facet normal  0.000000e+000  0.000000e+000  1.000000e+000
    outer loop
      vertex  3.238165e+001 -5.740334e+001  2.000000e+000
      vertex  3.088733e+001 -5.660332e+001  2.000000e+000
      vertex  3.017857e+001 -5.631446e+001  2.000000e+000
    endloop
  endfacet
  facet normal  0.000000e+000  0.000000e+000  9.999999e-001
    outer loop
      vertex  3.238165e+001 -5.740334e+001  2.000000e+000
      vertex  3.017857e+001 -5.631446e+001  2.000000e+000
      vertex  2.908164e+001 -5.740334e+001  2.000000e+000
    endloop
  endfacet
  facet normal  0.000000e+000  0.000000e+000  1.000000e+000
    outer loop
      vertex  2.908164e+001 -5.380334e+001  2.000000e+000
      vertex  2.908164e+001 -5.740334e+001  2.000000e+000
      vertex  3.017053e+001 -5.490027e+001  2.000000e+000
    endloop
  endfacet
  facet normal  0.000000e+000  -0.000000e+000  1.000000e+000
    outer loop
      vertex  2.908164e+001 -5.380334e+001  2.000000e+000
      vertex  3.017053e+001 -5.490027e+001  2.000000e+000
      vertex  3.087596e+001 -5.460336e+001  2.000000e+000
    endloop
  endfacet
  facet normal  0.000000e+000  -0.000000e+000  1.000000e+000
    outer loop
      vertex  2.908164e+001 -5.380334e+001  2.000000e+000
      vertex  3.087596e+001 -5.460336e+001  2.000000e+000
      vertex  5.242175e+001 -5.456185e+001  2.000000e+000
    endloop
  endfacet
  facet normal  0.000000e+000  0.000000e+000  1.000000e+000
    outer loop
      vertex  2.908164e+001 -5.380334e+001  2.000000e+000
      vertex  5.242175e+001 -5.456185e+001  2.000000e+000
      vertex  3.238165e+001 -5.380334e+001  2.000000e+000
    endloop
  endfacet
  facet normal  0.000000e+000  0.000000e+000  1.000000e+000
    outer loop
      vertex  1.447693e+001 -3.748567e+001  2.000000e+000
      vertex  1.183929e+001 -7.110238e+000  2.000000e+000
      vertex  8.686786e+000 -9.303144e+000  2.000000e+000
    endloop
  endfacet
  facet normal  0.000000e+000  0.000000e+000  1.000000e+000
    outer loop
      vertex  1.447693e+001 -3.748567e+001  2.000000e+000
      vertex  8.686786e+000 -9.303144e+000  2.000000e+000
      vertex  7.809258e+000 -1.110035e+001  2.000000e+000
    endloop
  endfacet
  facet normal  0.000000e+000  0.000000e+000  1.000000e+000
    outer loop
      vertex  1.447693e+001 -3.748567e+001  2.000000e+000
      vertex  7.809258e+000 -1.110035e+001  2.000000e+000
      vertex  7.762287e+000 -1.570358e+001  2.000000e+000
    endloop
  endfacet
  facet normal  0.000000e+000  0.000000e+000  1.000000e+000
    outer loop
      vertex  1.447693e+001 -3.748567e+001  2.000000e+000
      vertex  7.762287e+000 -1.570358e+001  2.000000e+000
      vertex  8.423688e+000 -4.051911e+001  2.000000e+000
    endloop
  endfacet
  facet normal  -0.000000e+000  0.000000e+000  1.000000e+000
    outer loop
      vertex  1.447693e+001 -3.748567e+001  2.000000e+000
      vertex  8.423688e+000 -4.051911e+001  2.000000e+000
      vertex  1.202802e+001 -4.980930e+001  2.000000e+000
    endloop
  endfacet
  facet normal  -0.000000e+000  0.000000e+000  1.000000e+000
    outer loop
      vertex  1.447693e+001 -3.748567e+001  2.000000e+000
      vertex  1.202802e+001 -4.980930e+001  2.000000e+000
      vertex  2.808164e+001 -5.280334e+001  2.000000e+000
    endloop
  endfacet
  facet normal  0.000000e+000  -0.000000e+000  1.000000e+000
    outer loop
      vertex  1.447693e+001 -3.748567e+001  2.000000e+000
      vertex  2.808164e+001 -5.280334e+001  2.000000e+000
      vertex  3.238165e+001 -5.280334e+001  2.000000e+000
    endloop
  endfacet
  facet normal  0.000000e+000  -0.000000e+000  9.999999e-001
    outer loop
      vertex  1.447693e+001 -3.748567e+001  2.000000e+000
      vertex  3.238165e+001 -5.280334e+001  2.000000e+000
      vertex  3.882973e+001 -4.315937e+001  2.000000e+000
    endloop
  endfacet
  facet normal  -0.000000e+000  0.000000e+000  1.000000e+000
    outer loop
      vertex  5.242175e+001 -5.456185e+001  2.000000e+000
      vertex  3.087596e+001 -5.460336e+001  2.000000e+000
      vertex  3.158472e+001 -5.489222e+001  2.000000e+000
    endloop
  endfacet
  facet normal  -0.000000e+000  0.000000e+000  1.000000e+000
    outer loop
      vertex  5.242175e+001 -5.456185e+001  2.000000e+000
      vertex  3.158472e+001 -5.489222e+001  2.000000e+000
      vertex  3.188163e+001 -5.559765e+001  2.000000e+000
    endloop
  endfacet
  facet normal  -0.000000e+000  0.000000e+000  1.000000e+000
    outer loop
      vertex  5.242175e+001 -5.456185e+001  2.000000e+000
      vertex  3.188163e+001 -5.559765e+001  2.000000e+000
      vertex  3.238165e+001 -5.740334e+001  2.000000e+000
    endloop
  endfacet
  facet normal  -0.000000e+000  0.000000e+000  1.000000e+000
    outer loop
      vertex  5.242175e+001 -5.456185e+001  2.000000e+000
      vertex  3.238165e+001 -5.740334e+001  2.000000e+000
      vertex  3.238165e+001 -5.840334e+001  2.000000e+000
    endloop
  endfacet
  facet normal  -0.000000e+000  0.000000e+000  1.000000e+000
    outer loop
      vertex  5.242175e+001 -5.456185e+001  2.000000e+000
      vertex  3.238165e+001 -5.840334e+001  2.000000e+000
      vertex  3.122211e+001 -5.970494e+001  2.000000e+000
    endloop
  endfacet
  facet normal  0.000000e+000  0.000000e+000  1.000000e+000
    outer loop
      vertex  3.122211e+001 -5.970494e+001  2.000000e+000
      vertex  3.238165e+001 -5.840334e+001  2.000000e+000
      vertex  2.708164e+001 -5.970494e+001  2.000000e+000
    endloop
  endfacet
  facet normal  0.000000e+000  0.000000e+000  1.000000e+000
    outer loop
      vertex  2.708164e+001 -5.970494e+001  2.000000e+000
      vertex  3.238165e+001 -5.840334e+001  2.000000e+000
      vertex  2.808164e+001 -5.840334e+001  2.000000e+000
    endloop
  endfacet
  facet normal  0.000000e+000  0.000000e+000  1.000000e+000
    outer loop
      vertex  2.708164e+001 -5.970494e+001  2.000000e+000
      vertex  2.808164e+001 -5.840334e+001  2.000000e+000
      vertex  2.708164e+001 -5.570494e+001  2.000000e+000
    endloop
  endfacet
  facet normal  -0.000000e+000  0.000000e+000  1.000000e+000
    outer loop
      vertex  2.708164e+001 -5.570494e+001  2.000000e+000
      vertex  2.808164e+001 -5.840334e+001  2.000000e+000
      vertex  2.808164e+001 -5.280334e+001  2.000000e+000
    endloop
  endfacet
  facet normal  0.000000e+000  0.000000e+000  9.999999e-001
    outer loop
      vertex  2.708164e+001 -5.570494e+001  2.000000e+000
      vertex  2.808164e+001 -5.280334e+001  2.000000e+000
      vertex  2.488165e+001 -5.570494e+001  2.000000e+000
    endloop
  endfacet
  facet normal  0.000000e+000  -0.000000e+000  1.000000e+000
    outer loop
      vertex  2.488165e+001 -5.570494e+001  2.000000e+000
      vertex  2.808164e+001 -5.280334e+001  2.000000e+000
      vertex  1.202802e+001 -4.980930e+001  2.000000e+000
    endloop
  endfacet
  facet normal  0.000000e+000  0.000000e+000  1.000000e+000
    outer loop
      vertex  2.488165e+001 -5.570494e+001  2.000000e+000
      vertex  1.202802e+001 -4.980930e+001  2.000000e+000
      vertex  2.257964e+001 -5.970494e+001  2.000000e+000
    endloop
  endfacet
  facet normal  0.000000e+000  0.000000e+000  1.000000e+000
    outer loop
      vertex  7.762287e+000 -1.570358e+001  2.000000e+000
      vertex  7.809258e+000 -1.110035e+001  2.000000e+000
      vertex  4.158497e+000 -1.403664e+001  2.000000e+000
    endloop
  endfacet
  facet normal  0.000000e+000  0.000000e+000  1.000000e+000
    outer loop
      vertex  4.158497e+000 -1.403664e+001  2.000000e+000
      vertex  7.809258e+000 -1.110035e+001  2.000000e+000
      vertex  6.012053e+000 -1.022282e+001  2.000000e+000
    endloop
  endfacet
  facet normal  0.000000e+000  0.000000e+000  9.999999e-001
    outer loop
      vertex  4.158497e+000 -1.403664e+001  2.000000e+000
      vertex  6.012053e+000 -1.022282e+001  2.000000e+000
      vertex -1.564380e+001 -1.248954e+001  2.000000e+000
    endloop
  endfacet
  facet normal  0.000000e+000  0.000000e+000  9.999999e-001
    outer loop
      vertex -1.564380e+001 -1.248954e+001  2.000000e+000
      vertex  6.012053e+000 -1.022282e+001  2.000000e+000
      vertex  3.783835e+000 -1.022802e+001  2.000000e+000
    endloop
  endfacet
  facet normal  0.000000e+000  0.000000e+000  1.000000e+000
    outer loop
      vertex  8.686786e+000 -9.303144e+000  2.000000e+000
      vertex  1.183929e+001 -7.110238e+000  2.000000e+000
      vertex  6.889580e+000 -8.425616e+000  2.000000e+000
    endloop
  endfacet
  facet normal  0.000000e+000  0.000000e+000  1.000000e+000
    outer loop
      vertex  6.889580e+000 -8.425616e+000  2.000000e+000
      vertex  1.183929e+001 -7.110238e+000  2.000000e+000
      vertex  8.036627e+000 -5.444783e+000  2.000000e+000
    endloop
  endfacet
  facet normal  0.000000e+000  0.000000e+000  1.000000e+000
    outer loop
      vertex  6.889580e+000 -8.425616e+000  2.000000e+000
      vertex  8.036627e+000 -5.444783e+000  2.000000e+000
      vertex  5.343063e+000 -7.034673e+000  2.000000e+000
    endloop
  endfacet
  facet normal  0.000000e+000  0.000000e+000  1.000000e+000
    outer loop
      vertex  3.783835e+000 -1.022802e+001  2.000000e+000
      vertex  6.012053e+000 -1.022282e+001  2.000000e+000
      vertex  5.343063e+000 -7.034673e+000  2.000000e+000
    endloop
  endfacet
  facet normal  0.000000e+000  0.000000e+000  1.000000e+000
    outer loop
      vertex  5.343063e+000 -7.034673e+000  2.000000e+000
      vertex  6.012053e+000 -1.022282e+001  2.000000e+000
      vertex  6.889580e+000 -8.425616e+000  2.000000e+000
    endloop
  endfacet
  facet normal  0.000000e+000  0.000000e+000  1.000000e+000
    outer loop
      vertex  3.238165e+001 -5.380334e+001  2.000000e+000
      vertex  5.242175e+001 -5.456185e+001  2.000000e+000
      vertex  3.238165e+001 -5.280334e+001  2.000000e+000
    endloop
  endfacet
  facet normal  -0.000000e+000  0.000000e+000  1.000000e+000
    outer loop
      vertex  3.238165e+001 -5.280334e+001  2.000000e+000
      vertex  5.242175e+001 -5.456185e+001  2.000000e+000
      vertex  3.882973e+001 -4.315937e+001  2.000000e+000
    endloop
  endfacet
  facet normal  1.000000e+000  0.000000e+000  0.000000e+000
    outer loop
      vertex  3.238165e+001 -5.280334e+001  2.000000e+000
      vertex  3.238165e+001 -5.280334e+001  2.430000e+000
      vertex  3.238165e+001 -5.380334e+001  2.000000e+000
    endloop
  endfacet
  facet normal  1.000000e+000  0.000000e+000  0.000000e+000
    outer loop
      vertex  3.238165e+001 -5.380334e+001  2.000000e+000
      vertex  3.238165e+001 -5.280334e+001  2.430000e+000
      vertex  3.238165e+001 -5.380334e+001  2.430000e+000
    endloop
  endfacet
  facet normal  0.000000e+000 -1.000000e+000  -0.000000e+000
    outer loop
      vertex  3.238165e+001 -5.380334e+001  2.000000e+000
      vertex  3.238165e+001 -5.380334e+001  2.430000e+000
      vertex  2.908164e+001 -5.380334e+001  2.000000e+000
    endloop
  endfacet
  facet normal  0.000000e+000 -1.000000e+000  0.000000e+000
    outer loop
      vertex  2.908164e+001 -5.380334e+001  2.000000e+000
      vertex  3.238165e+001 -5.380334e+001  2.430000e+000
      vertex  2.908164e+001 -5.380334e+001  2.430000e+000
    endloop
  endfacet
  facet normal  9.999999e-001  0.000000e+000  0.000000e+000
    outer loop
      vertex  2.908164e+001 -5.380334e+001  2.000000e+000
      vertex  2.908164e+001 -5.380334e+001  2.430000e+000
      vertex  2.908164e+001 -5.740334e+001  2.000000e+000
    endloop
  endfacet
  facet normal  9.999999e-001  0.000000e+000  0.000000e+000
    outer loop
      vertex  2.908164e+001 -5.740334e+001  2.000000e+000
      vertex  2.908164e+001 -5.380334e+001  2.430000e+000
      vertex  2.908164e+001 -5.740334e+001  2.430000e+000
    endloop
  endfacet
  facet normal  0.000000e+000  1.000000e+000  0.000000e+000
    outer loop
      vertex  2.908164e+001 -5.740334e+001  2.000000e+000
      vertex  2.908164e+001 -5.740334e+001  2.430000e+000
      vertex  3.238165e+001 -5.740334e+001  2.000000e+000
    endloop
  endfacet
  facet normal  0.000000e+000  1.000000e+000  -0.000000e+000
    outer loop
      vertex  3.238165e+001 -5.740334e+001  2.000000e+000
      vertex  2.908164e+001 -5.740334e+001  2.430000e+000
      vertex  3.238165e+001 -5.740334e+001  2.430000e+000
    endloop
  endfacet
  facet normal  1.000000e+000  0.000000e+000  0.000000e+000
    outer loop
      vertex  3.238165e+001 -5.740334e+001  2.000000e+000
      vertex  3.238165e+001 -5.740334e+001  2.430000e+000
      vertex  3.238165e+001 -5.840334e+001  2.000000e+000
    endloop
  endfacet
  facet normal  1.000000e+000  0.000000e+000  0.000000e+000
    outer loop
      vertex  3.238165e+001 -5.840334e+001  2.000000e+000
      vertex  3.238165e+001 -5.740334e+001  2.430000e+000
      vertex  3.238165e+001 -5.840334e+001  2.430000e+000
    endloop
  endfacet
  facet normal  0.000000e+000 -1.000000e+000  -0.000000e+000
    outer loop
      vertex  3.238165e+001 -5.840334e+001  2.000000e+000
      vertex  3.238165e+001 -5.840334e+001  2.430000e+000
      vertex  2.808164e+001 -5.840334e+001  2.000000e+000
    endloop
  endfacet
  facet normal  0.000000e+000 -1.000000e+000  0.000000e+000
    outer loop
      vertex  2.808164e+001 -5.840334e+001  2.000000e+000
      vertex  3.238165e+001 -5.840334e+001  2.430000e+000
      vertex  2.808164e+001 -5.840334e+001  2.430000e+000
    endloop
  endfacet
  facet normal -1.000000e+000  0.000000e+000  0.000000e+000
    outer loop
      vertex  2.808164e+001 -5.840334e+001  2.000000e+000
      vertex  2.808164e+001 -5.840334e+001  2.430000e+000
      vertex  2.808164e+001 -5.280334e+001  2.000000e+000
    endloop
  endfacet
  facet normal -1.000000e+000  0.000000e+000  0.000000e+000
    outer loop
      vertex  2.808164e+001 -5.280334e+001  2.000000e+000
      vertex  2.808164e+001 -5.840334e+001  2.430000e+000
      vertex  2.808164e+001 -5.280334e+001  2.430000e+000
    endloop
  endfacet
  facet normal  0.000000e+000  1.000000e+000  0.000000e+000
    outer loop
      vertex  2.808164e+001 -5.280334e+001  2.000000e+000
      vertex  2.808164e+001 -5.280334e+001  2.430000e+000
      vertex  3.238165e+001 -5.280334e+001  2.000000e+000
    endloop
  endfacet
  facet normal  0.000000e+000  1.000000e+000  -0.000000e+000
    outer loop
      vertex  3.238165e+001 -5.280334e+001  2.000000e+000
      vertex  2.808164e+001 -5.280334e+001  2.430000e+000
      vertex  3.238165e+001 -5.280334e+001  2.430000e+000
    endloop
  endfacet
  facet normal  9.260411e-001 -3.774227e-001  0.000000e+000
    outer loop
      vertex  3.188163e+001 -5.559765e+001  2.000000e+000
      vertex  3.188163e+001 -5.559765e+001  2.430000e+000
      vertex  3.159276e+001 -5.630641e+001  2.000000e+000
    endloop
  endfacet
  facet normal  9.260411e-001 -3.774227e-001  0.000000e+000
    outer loop
      vertex  3.159276e+001 -5.630641e+001  2.000000e+000
      vertex  3.188163e+001 -5.559765e+001  2.430000e+000
      vertex  3.159276e+001 -5.630641e+001  2.430000e+000
    endloop
  endfacet
  facet normal  3.879353e-001 -9.216866e-001  0.000000e+000
    outer loop
      vertex  3.159276e+001 -5.630641e+001  2.000000e+000
      vertex  3.159276e+001 -5.630641e+001  2.430000e+000
      vertex  3.088733e+001 -5.660332e+001  2.000000e+000
    endloop
  endfacet
  facet normal  3.879353e-001 -9.216866e-001  0.000000e+000
    outer loop
      vertex  3.088733e+001 -5.660332e+001  2.000000e+000
      vertex  3.159276e+001 -5.630641e+001  2.430000e+000
      vertex  3.088733e+001 -5.660332e+001  2.430000e+000
    endloop
  endfacet
  facet normal -3.774239e-001 -9.260406e-001  -0.000000e+000
    outer loop
      vertex  3.088733e+001 -5.660332e+001  2.000000e+000
      vertex  3.088733e+001 -5.660332e+001  2.430000e+000
      vertex  3.017857e+001 -5.631446e+001  2.000000e+000
    endloop
  endfacet
  facet normal -3.774239e-001 -9.260406e-001  0.000000e+000
    outer loop
      vertex  3.017857e+001 -5.631446e+001  2.000000e+000
      vertex  3.088733e+001 -5.660332e+001  2.430000e+000
      vertex  3.017857e+001 -5.631446e+001  2.430000e+000
    endloop
  endfacet
  facet normal -9.216875e-001 -3.879332e-001  -0.000000e+000
    outer loop
      vertex  3.017857e+001 -5.631446e+001  2.000000e+000
      vertex  3.017857e+001 -5.631446e+001  2.430000e+000
      vertex  2.988166e+001 -5.560903e+001  2.000000e+000
    endloop
  endfacet
  facet normal -9.216875e-001 -3.879332e-001  0.000000e+000
    outer loop
      vertex  2.988166e+001 -5.560903e+001  2.000000e+000
      vertex  3.017857e+001 -5.631446e+001  2.430000e+000
      vertex  2.988166e+001 -5.560903e+001  2.430000e+000
    endloop
  endfacet
  facet normal -9.260411e-001  3.774227e-001  0.000000e+000
    outer loop
      vertex  2.988166e+001 -5.560903e+001  2.000000e+000
      vertex  2.988166e+001 -5.560903e+001  2.430000e+000
      vertex  3.017053e+001 -5.490027e+001  2.000000e+000
    endloop
  endfacet
  facet normal -9.260411e-001  3.774227e-001  0.000000e+000
    outer loop
      vertex  3.017053e+001 -5.490027e+001  2.000000e+000
      vertex  2.988166e+001 -5.560903e+001  2.430000e+000
      vertex  3.017053e+001 -5.490027e+001  2.430000e+000
    endloop
  endfacet
  facet normal -3.879353e-001  9.216866e-001  0.000000e+000
    outer loop
      vertex  3.017053e+001 -5.490027e+001  2.000000e+000
      vertex  3.017053e+001 -5.490027e+001  2.430000e+000
      vertex  3.087596e+001 -5.460336e+001  2.000000e+000
    endloop
  endfacet
  facet normal -3.879353e-001  9.216866e-001  0.000000e+000
    outer loop
      vertex  3.087596e+001 -5.460336e+001  2.000000e+000
      vertex  3.017053e+001 -5.490027e+001  2.430000e+000
      vertex  3.087596e+001 -5.460336e+001  2.430000e+000
    endloop
  endfacet
  facet normal  3.774239e-001  9.260406e-001  0.000000e+000
    outer loop
      vertex  3.087596e+001 -5.460336e+001  2.000000e+000
      vertex  3.087596e+001 -5.460336e+001  2.430000e+000
      vertex  3.158472e+001 -5.489222e+001  2.000000e+000
    endloop
  endfacet
  facet normal  3.774239e-001  9.260406e-001  -0.000000e+000
    outer loop
      vertex  3.158472e+001 -5.489222e+001  2.000000e+000
      vertex  3.087596e+001 -5.460336e+001  2.430000e+000
      vertex  3.158472e+001 -5.489222e+001  2.430000e+000
    endloop
  endfacet
  facet normal  9.216875e-001  3.879332e-001  0.000000e+000
    outer loop
      vertex  3.158472e+001 -5.489222e+001  2.000000e+000
      vertex  3.158472e+001 -5.489222e+001  2.430000e+000
      vertex  3.188163e+001 -5.559765e+001  2.000000e+000
    endloop
  endfacet
  facet normal  9.216875e-001  3.879332e-001  -0.000000e+000
    outer loop
      vertex  3.188163e+001 -5.559765e+001  2.000000e+000
      vertex  3.158472e+001 -5.489222e+001  2.430000e+000
      vertex  3.188163e+001 -5.559765e+001  2.430000e+000
    endloop
  endfacet
  facet normal  0.000000e+000  0.000000e+000  1.000000e+000
    outer loop
      vertex  3.238165e+001 -5.840334e+001  2.430000e+000
      vertex  3.238165e+001 -5.740334e+001  2.430000e+000
      vertex  2.808164e+001 -5.840334e+001  2.430000e+000
    endloop
  endfacet
  facet normal  0.000000e+000  0.000000e+000  1.000000e+000
    outer loop
      vertex  2.808164e+001 -5.840334e+001  2.430000e+000
      vertex  3.238165e+001 -5.740334e+001  2.430000e+000
      vertex  2.908164e+001 -5.740334e+001  2.430000e+000
    endloop
  endfacet
  facet normal  0.000000e+000  0.000000e+000  1.000000e+000
    outer loop
      vertex  2.808164e+001 -5.840334e+001  2.430000e+000
      vertex  2.908164e+001 -5.740334e+001  2.430000e+000
      vertex  2.808164e+001 -5.280334e+001  2.430000e+000
    endloop
  endfacet
  facet normal  0.000000e+000  0.000000e+000  1.000000e+000
    outer loop
      vertex  2.808164e+001 -5.280334e+001  2.430000e+000
      vertex  2.908164e+001 -5.740334e+001  2.430000e+000
      vertex  2.908164e+001 -5.380334e+001  2.430000e+000
    endloop
  endfacet
  facet normal  0.000000e+000  -0.000000e+000  1.000000e+000
    outer loop
      vertex  2.808164e+001 -5.280334e+001  2.430000e+000
      vertex  2.908164e+001 -5.380334e+001  2.430000e+000
      vertex  3.238165e+001 -5.280334e+001  2.430000e+000
    endloop
  endfacet
  facet normal  0.000000e+000  0.000000e+000  1.000000e+000
    outer loop
      vertex  3.238165e+001 -5.280334e+001  2.430000e+000
      vertex  2.908164e+001 -5.380334e+001  2.430000e+000
      vertex  3.238165e+001 -5.380334e+001  2.430000e+000
    endloop
  endfacet
  facet normal  0.000000e+000  0.000000e+000  1.000000e+000
    outer loop
      vertex  3.017053e+001 -5.490027e+001  2.430000e+000
      vertex  3.158472e+001 -5.489222e+001  2.430000e+000
      vertex  3.087596e+001 -5.460336e+001  2.430000e+000
    endloop
  endfacet
  facet normal  -0.000000e+000  0.000000e+000  1.000000e+000
    outer loop
      vertex  3.158472e+001 -5.489222e+001  2.430000e+000
      vertex  3.017053e+001 -5.490027e+001  2.430000e+000
      vertex  3.188163e+001 -5.559765e+001  2.430000e+000
    endloop
  endfacet
  facet normal  0.000000e+000  0.000000e+000  9.999999e-001
    outer loop
      vertex  3.188163e+001 -5.559765e+001  2.430000e+000
      vertex  3.017053e+001 -5.490027e+001  2.430000e+000
      vertex  2.988166e+001 -5.560903e+001  2.430000e+000
    endloop
  endfacet
  facet normal  -0.000000e+000  0.000000e+000  9.999999e-001
    outer loop
      vertex  3.188163e+001 -5.559765e+001  2.430000e+000
      vertex  2.988166e+001 -5.560903e+001  2.430000e+000
      vertex  3.159276e+001 -5.630641e+001  2.430000e+000
    endloop
  endfacet
  facet normal  0.000000e+000  0.000000e+000  1.000000e+000
    outer loop
      vertex  3.159276e+001 -5.630641e+001  2.430000e+000
      vertex  2.988166e+001 -5.560903e+001  2.430000e+000
      vertex  3.017857e+001 -5.631446e+001  2.430000e+000
    endloop
  endfacet
  facet normal  -0.000000e+000  0.000000e+000  1.000000e+000
    outer loop
      vertex  3.159276e+001 -5.630641e+001  2.430000e+000
      vertex  3.017857e+001 -5.631446e+001  2.430000e+000
      vertex  3.088733e+001 -5.660332e+001  2.430000e+000
    endloop
  endfacet
  facet normal  0.000000e+000 -1.000000e+000  -0.000000e+000
    outer loop
      vertex  2.359812e+001 -3.473542e+001  0.000000e+000
      vertex  2.359812e+001 -3.473542e+001  2.000000e+000
      vertex  1.719812e+001 -3.473542e+001  0.000000e+000
    endloop
  endfacet
  facet normal  0.000000e+000 -1.000000e+000  0.000000e+000
    outer loop
      vertex  1.719812e+001 -3.473542e+001  0.000000e+000
      vertex  2.359812e+001 -3.473542e+001  2.000000e+000
      vertex  1.719812e+001 -3.473542e+001  2.000000e+000
    endloop
  endfacet
  facet normal  0.000000e+000 -1.000000e+000  -0.000000e+000
    outer loop
      vertex  3.219812e+001 -3.473542e+001  0.000000e+000
      vertex  3.219812e+001 -3.473542e+001  2.000000e+000
      vertex  2.579812e+001 -3.473542e+001  0.000000e+000
    endloop
  endfacet
  facet normal  0.000000e+000 -1.000000e+000  0.000000e+000
    outer loop
      vertex  2.579812e+001 -3.473542e+001  0.000000e+000
      vertex  3.219812e+001 -3.473542e+001  2.000000e+000
      vertex  2.579812e+001 -3.473542e+001  2.000000e+000
    endloop
  endfacet
  facet normal  0.000000e+000  1.000000e+000  -0.000000e+000
    outer loop
      vertex  2.719812e+001  1.526459e+001  2.000000e+000
      vertex  2.719812e+001  1.526459e+001  0.000000e+000
      vertex  2.579812e+001  1.526459e+001  2.000000e+000
    endloop
  endfacet
  facet normal  0.000000e+000  1.000000e+000  0.000000e+000
    outer loop
      vertex  2.579812e+001  1.526459e+001  2.000000e+000
      vertex  2.719812e+001  1.526459e+001  0.000000e+000
      vertex  2.579812e+001  1.526459e+001  0.000000e+000
    endloop
  endfacet
  facet normal  0.000000e+000  1.000000e+000  -0.000000e+000
    outer loop
      vertex  2.359812e+001  1.526459e+001  2.000000e+000
      vertex  2.359812e+001  1.526459e+001  0.000000e+000
      vertex  2.219812e+001  1.526459e+001  2.000000e+000
    endloop
  endfacet
  facet normal  0.000000e+000  1.000000e+000  0.000000e+000
    outer loop
      vertex  2.219812e+001  1.526459e+001  2.000000e+000
      vertex  2.359812e+001  1.526459e+001  0.000000e+000
      vertex  2.219812e+001  1.526459e+001  0.000000e+000
    endloop
  endfacet
  facet normal  0.000000e+000 -1.000000e+000  0.000000e+000
    outer loop
      vertex  2.257964e+001 -5.970494e+001  2.000000e+000
      vertex  2.257964e+001 -5.970494e+001  0.000000e+000
      vertex  2.488165e+001 -5.970494e+001  2.000000e+000
    endloop
  endfacet
  facet normal  0.000000e+000 -1.000000e+000  -0.000000e+000
    outer loop
      vertex  2.488165e+001 -5.970494e+001  2.000000e+000
      vertex  2.257964e+001 -5.970494e+001  0.000000e+000
      vertex  2.488165e+001 -5.970494e+001  0.000000e+000
    endloop
  endfacet
  facet normal  0.000000e+000 -1.000000e+000  0.000000e+000
    outer loop
      vertex  2.708164e+001 -5.970494e+001  2.000000e+000
      vertex  2.708164e+001 -5.970494e+001  0.000000e+000
      vertex  3.122211e+001 -5.970494e+001  2.000000e+000
    endloop
  endfacet
  facet normal  0.000000e+000 -1.000000e+000  -0.000000e+000
    outer loop
      vertex  3.122211e+001 -5.970494e+001  2.000000e+000
      vertex  2.708164e+001 -5.970494e+001  0.000000e+000
      vertex  3.122211e+001 -5.970494e+001  0.000000e+000
    endloop
  endfacet
  facet normal  0.000000e+000  0.000000e+000 -1.000000e+000
    outer loop
      vertex  1.202802e+001 -4.980930e+001  0.000000e+000
      vertex  8.423688e+000 -4.051911e+001  0.000000e+000
      vertex  3.882973e+001 -4.315937e+001  0.000000e+000
    endloop
  endfacet
  facet normal  0.000000e+000  -0.000000e+000 -1.000000e+000
    outer loop
      vertex  1.202802e+001 -4.980930e+001  0.000000e+000
      vertex  3.882973e+001 -4.315937e+001  0.000000e+000
      vertex  5.242175e+001 -5.456185e+001  0.000000e+000
    endloop
  endfacet
  facet normal  -0.000000e+000  0.000000e+000 -9.999999e-001
    outer loop
      vertex  1.202802e+001 -4.980930e+001  0.000000e+000
      vertex  5.242175e+001 -5.456185e+001  0.000000e+000
      vertex  2.708164e+001 -5.570494e+001  0.000000e+000
    endloop
  endfacet
  facet normal  0.000000e+000  0.000000e+000 -1.000000e+000
    outer loop
      vertex  1.202802e+001 -4.980930e+001  0.000000e+000
      vertex  2.708164e+001 -5.570494e+001  0.000000e+000
      vertex  2.488165e+001 -5.570494e+001  0.000000e+000
    endloop
  endfacet
  facet normal  -0.000000e+000  -0.000000e+000 -1.000000e+000
    outer loop
      vertex  1.202802e+001 -4.980930e+001  0.000000e+000
      vertex  2.488165e+001 -5.570494e+001  0.000000e+000
      vertex  2.488165e+001 -5.970494e+001  0.000000e+000
    endloop
  endfacet
  facet normal  0.000000e+000  0.000000e+000 -1.000000e+000
    outer loop
      vertex  1.202802e+001 -4.980930e+001  0.000000e+000
      vertex  2.488165e+001 -5.970494e+001  0.000000e+000
      vertex  2.257964e+001 -5.970494e+001  0.000000e+000
    endloop
  endfacet
  facet normal  0.000000e+000  0.000000e+000 -9.999999e-001
    outer loop
      vertex  1.447693e+001 -3.748567e+001  0.000000e+000
      vertex  3.882973e+001 -4.315937e+001  0.000000e+000
      vertex  8.423688e+000 -4.051911e+001  0.000000e+000
    endloop
  endfacet
  facet normal  0.000000e+000  0.000000e+000 -1.000000e+000
    outer loop
      vertex  1.447693e+001 -3.748567e+001  0.000000e+000
      vertex  8.423688e+000 -4.051911e+001  0.000000e+000
      vertex  7.762287e+000 -1.570358e+001  0.000000e+000
    endloop
  endfacet
  facet normal  0.000000e+000  0.000000e+000 -1.000000e+000
    outer loop
      vertex  1.447693e+001 -3.748567e+001  0.000000e+000
      vertex  7.762287e+000 -1.570358e+001  0.000000e+000
      vertex  7.809258e+000 -1.110035e+001  0.000000e+000
    endloop
  endfacet
  facet normal  0.000000e+000  0.000000e+000 -1.000000e+000
    outer loop
      vertex  1.447693e+001 -3.748567e+001  0.000000e+000
      vertex  7.809258e+000 -1.110035e+001  0.000000e+000
      vertex  8.686786e+000 -9.303144e+000  0.000000e+000
    endloop
  endfacet
  facet normal  0.000000e+000  0.000000e+000 -1.000000e+000
    outer loop
      vertex  1.447693e+001 -3.748567e+001  0.000000e+000
      vertex  8.686786e+000 -9.303144e+000  0.000000e+000
      vertex  1.183929e+001 -7.110238e+000  0.000000e+000
    endloop
  endfacet
  facet normal  0.000000e+000  0.000000e+000 -1.000000e+000
    outer loop
      vertex  7.809258e+000 -1.110035e+001  0.000000e+000
      vertex  7.762287e+000 -1.570358e+001  0.000000e+000
      vertex  6.012053e+000 -1.022282e+001  0.000000e+000
    endloop
  endfacet
  facet normal  0.000000e+000  -0.000000e+000 -1.000000e+000
    outer loop
      vertex  6.012053e+000 -1.022282e+001  0.000000e+000
      vertex  7.762287e+000 -1.570358e+001  0.000000e+000
      vertex  4.158497e+000 -1.403664e+001  0.000000e+000
    endloop
  endfacet
  facet normal  0.000000e+000  0.000000e+000 -1.000000e+000
    outer loop
      vertex  6.012053e+000 -1.022282e+001  0.000000e+000
      vertex  4.158497e+000 -1.403664e+001  0.000000e+000
      vertex  3.783835e+000 -1.022802e+001  0.000000e+000
    endloop
  endfacet
  facet normal  0.000000e+000  -0.000000e+000 -1.000000e+000
    outer loop
      vertex  3.783835e+000 -1.022802e+001  0.000000e+000
      vertex  4.158497e+000 -1.403664e+001  0.000000e+000
      vertex -1.564380e+001 -1.248954e+001  0.000000e+000
    endloop
  endfacet
  facet normal  0.000000e+000  0.000000e+000 -1.000000e+000
    outer loop
      vertex  1.183929e+001 -7.110238e+000  0.000000e+000
      vertex  8.686786e+000 -9.303144e+000  0.000000e+000
      vertex  8.036627e+000 -5.444783e+000  0.000000e+000
    endloop
  endfacet
  facet normal  0.000000e+000  -0.000000e+000 -1.000000e+000
    outer loop
      vertex  8.036627e+000 -5.444783e+000  0.000000e+000
      vertex  8.686786e+000 -9.303144e+000  0.000000e+000
      vertex  6.889580e+000 -8.425616e+000  0.000000e+000
    endloop
  endfacet
  facet normal  0.000000e+000  0.000000e+000 -1.000000e+000
    outer loop
      vertex  8.036627e+000 -5.444783e+000  0.000000e+000
      vertex  6.889580e+000 -8.425616e+000  0.000000e+000
      vertex  5.343063e+000 -7.034673e+000  0.000000e+000
    endloop
  endfacet
  facet normal  0.000000e+000  0.000000e+000 -1.000000e+000
    outer loop
      vertex  6.012053e+000 -1.022282e+001  0.000000e+000
      vertex  3.783835e+000 -1.022802e+001  0.000000e+000
      vertex  6.889580e+000 -8.425616e+000  0.000000e+000
    endloop
  endfacet
  facet normal  -0.000000e+000  0.000000e+000 -1.000000e+000
    outer loop
      vertex  6.889580e+000 -8.425616e+000  0.000000e+000
      vertex  3.783835e+000 -1.022802e+001  0.000000e+000
      vertex  5.343063e+000 -7.034673e+000  0.000000e+000
    endloop
  endfacet
  facet normal  0.000000e+000  0.000000e+000 -1.000000e+000
    outer loop
      vertex  2.708164e+001 -5.970494e+001  0.000000e+000
      vertex  2.708164e+001 -5.570494e+001  0.000000e+000
      vertex  3.122211e+001 -5.970494e+001  0.000000e+000
    endloop
  endfacet
  facet normal  0.000000e+000  0.000000e+000 -1.000000e+000
    outer loop
      vertex  3.122211e+001 -5.970494e+001  0.000000e+000
      vertex  2.708164e+001 -5.570494e+001  0.000000e+000
      vertex  5.242175e+001 -5.456185e+001  0.000000e+000
    endloop
  endfacet
  facet normal  1.000000e+000  0.000000e+000  0.000000e+000
    outer loop
      vertex  2.488165e+001 -5.570494e+001  0.000000e+000
      vertex  2.488165e+001 -5.570494e+001  2.000000e+000
      vertex  2.488165e+001 -5.970494e+001  0.000000e+000
    endloop
  endfacet
  facet normal  1.000000e+000  0.000000e+000  0.000000e+000
    outer loop
      vertex  2.488165e+001 -5.970494e+001  0.000000e+000
      vertex  2.488165e+001 -5.570494e+001  2.000000e+000
      vertex  2.488165e+001 -5.970494e+001  2.000000e+000
    endloop
  endfacet
  facet normal  0.000000e+000 -9.999999e-001  -0.000000e+000
    outer loop
      vertex  2.708164e+001 -5.570494e+001  0.000000e+000
      vertex  2.708164e+001 -5.570494e+001  2.000000e+000
      vertex  2.488165e+001 -5.570494e+001  0.000000e+000
    endloop
  endfacet
  facet normal  0.000000e+000 -9.999999e-001  0.000000e+000
    outer loop
      vertex  2.488165e+001 -5.570494e+001  0.000000e+000
      vertex  2.708164e+001 -5.570494e+001  2.000000e+000
      vertex  2.488165e+001 -5.570494e+001  2.000000e+000
    endloop
  endfacet
  facet normal -1.000000e+000  0.000000e+000  0.000000e+000
    outer loop
      vertex  2.708164e+001 -5.970494e+001  0.000000e+000
      vertex  2.708164e+001 -5.970494e+001  2.000000e+000
      vertex  2.708164e+001 -5.570494e+001  0.000000e+000
    endloop
  endfacet
  facet normal -1.000000e+000  0.000000e+000  0.000000e+000
    outer loop
      vertex  2.708164e+001 -5.570494e+001  0.000000e+000
      vertex  2.708164e+001 -5.970494e+001  2.000000e+000
      vertex  2.708164e+001 -5.570494e+001  2.000000e+000
    endloop
  endfacet
  facet normal  0.000000e+000 -1.000000e+000  0.000000e+000
    outer loop
      vertex  3.128259e+001 -1.656685e+001  2.000000e+000
      vertex  3.128259e+001 -1.656685e+001  0.000000e+000
      vertex  3.488259e+001 -1.656685e+001  2.000000e+000
    endloop
  endfacet
  facet normal  0.000000e+000 -1.000000e+000  -0.000000e+000
    outer loop
      vertex  3.488259e+001 -1.656685e+001  2.000000e+000
      vertex  3.128259e+001 -1.656685e+001  0.000000e+000
      vertex  3.488259e+001 -1.656685e+001  0.000000e+000
    endloop
  endfacet
  facet normal  0.000000e+000  1.000000e+000  -0.000000e+000
    outer loop
      vertex  3.488259e+001 -1.876685e+001  2.000000e+000
      vertex  3.488259e+001 -1.876685e+001  0.000000e+000
      vertex  3.128259e+001 -1.876685e+001  2.000000e+000
    endloop
  endfacet
  facet normal  0.000000e+000  1.000000e+000  0.000000e+000
    outer loop
      vertex  3.128259e+001 -1.876685e+001  2.000000e+000
      vertex  3.488259e+001 -1.876685e+001  0.000000e+000
      vertex  3.128259e+001 -1.876685e+001  0.000000e+000
    endloop
  endfacet
  facet normal  1.000000e+000  0.000000e+000  0.000000e+000
    outer loop
      vertex  3.128259e+001 -1.656685e+001  0.000000e+000
      vertex  3.128259e+001 -1.656685e+001  2.000000e+000
      vertex  3.128259e+001 -1.876685e+001  0.000000e+000
    endloop
  endfacet
  facet normal  1.000000e+000  0.000000e+000  0.000000e+000
    outer loop
      vertex  3.128259e+001 -1.876685e+001  0.000000e+000
      vertex  3.128259e+001 -1.656685e+001  2.000000e+000
      vertex  3.128259e+001 -1.876685e+001  2.000000e+000
    endloop
  endfacet
  facet normal  1.000000e+000  0.000000e+000  0.000000e+000
    outer loop
      vertex  2.359812e+001  1.526459e+001  0.000000e+000
      vertex  2.359812e+001  1.526459e+001  2.000000e+000
      vertex  2.359812e+001  7.264585e+000  0.000000e+000
    endloop
  endfacet
  facet normal  1.000000e+000  0.000000e+000  0.000000e+000
    outer loop
      vertex  2.359812e+001  7.264585e+000  0.000000e+000
      vertex  2.359812e+001  1.526459e+001  2.000000e+000
      vertex  2.359812e+001  7.264585e+000  2.000000e+000
    endloop
  endfacet
  facet normal -1.000000e+000  0.000000e+000  0.000000e+000
    outer loop
      vertex  2.579812e+001  7.264585e+000  0.000000e+000
      vertex  2.579812e+001  7.264585e+000  2.000000e+000
      vertex  2.579812e+001  1.526459e+001  0.000000e+000
    endloop
  endfacet
  facet normal -1.000000e+000  0.000000e+000  0.000000e+000
    outer loop
      vertex  2.579812e+001  1.526459e+001  0.000000e+000
      vertex  2.579812e+001  7.264585e+000  2.000000e+000
      vertex  2.579812e+001  1.526459e+001  2.000000e+000
    endloop
  endfacet
  facet normal  0.000000e+000  9.999999e-001  0.000000e+000
    outer loop
      vertex  2.359812e+001  7.264585e+000  0.000000e+000
      vertex  2.359812e+001  7.264585e+000  2.000000e+000
      vertex  2.579812e+001  7.264585e+000  0.000000e+000
    endloop
  endfacet
  facet normal  0.000000e+000  9.999999e-001  -0.000000e+000
    outer loop
      vertex  2.579812e+001  7.264585e+000  0.000000e+000
      vertex  2.359812e+001  7.264585e+000  2.000000e+000
      vertex  2.579812e+001  7.264585e+000  2.000000e+000
    endloop
  endfacet
  facet normal  1.000000e+000  0.000000e+000  0.000000e+000
    outer loop
      vertex  2.359812e+001 -3.313541e+001  0.000000e+000
      vertex  2.359812e+001 -3.313541e+001  2.000000e+000
      vertex  2.359812e+001 -3.473542e+001  0.000000e+000
    endloop
  endfacet
  facet normal  1.000000e+000  0.000000e+000  0.000000e+000
    outer loop
      vertex  2.359812e+001 -3.473542e+001  0.000000e+000
      vertex  2.359812e+001 -3.313541e+001  2.000000e+000
      vertex  2.359812e+001 -3.473542e+001  2.000000e+000
    endloop
  endfacet
  facet normal  0.000000e+000 -9.999999e-001  -0.000000e+000
    outer loop
      vertex  2.579812e+001 -3.313541e+001  0.000000e+000
      vertex  2.579812e+001 -3.313541e+001  2.000000e+000
      vertex  2.359812e+001 -3.313541e+001  0.000000e+000
    endloop
  endfacet
  facet normal  0.000000e+000 -9.999999e-001  0.000000e+000
    outer loop
      vertex  2.359812e+001 -3.313541e+001  0.000000e+000
      vertex  2.579812e+001 -3.313541e+001  2.000000e+000
      vertex  2.359812e+001 -3.313541e+001  2.000000e+000
    endloop
  endfacet
  facet normal -1.000000e+000  0.000000e+000  0.000000e+000
    outer loop
      vertex  2.579812e+001 -3.473542e+001  0.000000e+000
      vertex  2.579812e+001 -3.473542e+001  2.000000e+000
      vertex  2.579812e+001 -3.313541e+001  0.000000e+000
    endloop
  endfacet
  facet normal -1.000000e+000  0.000000e+000  0.000000e+000
    outer loop
      vertex  2.579812e+001 -3.313541e+001  0.000000e+000
      vertex  2.579812e+001 -3.473542e+001  2.000000e+000
      vertex  2.579812e+001 -3.313541e+001  2.000000e+000
    endloop
  endfacet
  facet normal -1.000000e+000  0.000000e+000  0.000000e+000
    outer loop
      vertex  2.988259e+001 -2.666685e+001  0.000000e+000
      vertex  2.988259e+001 -2.666685e+001  2.000000e+000
      vertex  2.988259e+001 -8.666848e+000  0.000000e+000
    endloop
  endfacet
  facet normal -1.000000e+000  0.000000e+000  0.000000e+000
    outer loop
      vertex  2.988259e+001 -8.666848e+000  0.000000e+000
      vertex  2.988259e+001 -2.666685e+001  2.000000e+000
      vertex  2.988259e+001 -8.666848e+000  2.000000e+000
    endloop
  endfacet
  facet normal -1.000000e+000  0.000000e+000  0.000000e+000
    outer loop
      vertex  2.219812e+001  1.526459e+001  2.000000e+000
      vertex  2.219812e+001  1.526459e+001  0.000000e+000
      vertex  2.219812e+001 -2.973541e+001  2.000000e+000
    endloop
  endfacet
  facet normal -1.000000e+000  0.000000e+000  0.000000e+000
    outer loop
      vertex  2.219812e+001 -2.973541e+001  2.000000e+000
      vertex  2.219812e+001  1.526459e+001  0.000000e+000
      vertex  2.219812e+001 -2.973541e+001  0.000000e+000
    endloop
  endfacet
  facet normal  1.000000e+000  0.000000e+000  0.000000e+000
    outer loop
      vertex  2.719812e+001 -2.973541e+001  2.000000e+000
      vertex  2.719812e+001 -2.973541e+001  0.000000e+000
      vertex  2.719812e+001  1.526459e+001  2.000000e+000
    endloop
  endfacet
  facet normal  1.000000e+000  0.000000e+000  0.000000e+000
    outer loop
      vertex  2.719812e+001  1.526459e+001  2.000000e+000
      vertex  2.719812e+001 -2.973541e+001  0.000000e+000
      vertex  2.719812e+001  1.526459e+001  0.000000e+000
    endloop
  endfacet
  facet normal  8.986026e-001 -4.387637e-001  0.000000e+000
    outer loop
      vertex  6.012053e+000 -1.022282e+001  0.000000e+000
      vertex  6.889580e+000 -8.425616e+000  0.000000e+000
      vertex  6.012053e+000 -1.022282e+001  2.000000e+000
    endloop
  endfacet
  facet normal  8.986026e-001 -4.387637e-001  0.000000e+000
    outer loop
      vertex  6.012053e+000 -1.022282e+001  2.000000e+000
      vertex  6.889580e+000 -8.425616e+000  0.000000e+000
      vertex  6.889580e+000 -8.425616e+000  2.000000e+000
    endloop
  endfacet
  facet normal  4.387637e-001  8.986026e-001  0.000000e+000
    outer loop
      vertex  7.809258e+000 -1.110035e+001  0.000000e+000
      vertex  6.012053e+000 -1.022282e+001  0.000000e+000
      vertex  7.809258e+000 -1.110035e+001  2.000000e+000
    endloop
  endfacet
  facet normal  4.387637e-001  8.986026e-001  0.000000e+000
    outer loop
      vertex  7.809258e+000 -1.110035e+001  2.000000e+000
      vertex  6.012053e+000 -1.022282e+001  0.000000e+000
      vertex  6.012053e+000 -1.022282e+001  2.000000e+000
    endloop
  endfacet
  facet normal -8.986025e-001  4.387639e-001  0.000000e+000
    outer loop
      vertex  8.686786e+000 -9.303144e+000  0.000000e+000
      vertex  7.809258e+000 -1.110035e+001  0.000000e+000
      vertex  8.686786e+000 -9.303144e+000  2.000000e+000
    endloop
  endfacet
  facet normal -8.986025e-001  4.387639e-001  0.000000e+000
    outer loop
      vertex  8.686786e+000 -9.303144e+000  2.000000e+000
      vertex  7.809258e+000 -1.110035e+001  0.000000e+000
      vertex  7.809258e+000 -1.110035e+001  2.000000e+000
    endloop
  endfacet
  facet normal -4.387636e-001 -8.986026e-001  0.000000e+000
    outer loop
      vertex  6.889580e+000 -8.425616e+000  0.000000e+000
      vertex  8.686786e+000 -9.303144e+000  0.000000e+000
      vertex  6.889580e+000 -8.425616e+000  2.000000e+000
    endloop
  endfacet
  facet normal -4.387636e-001 -8.986026e-001  0.000000e+000
    outer loop
      vertex  6.889580e+000 -8.425616e+000  2.000000e+000
      vertex  8.686786e+000 -9.303144e+000  0.000000e+000
      vertex  8.686786e+000 -9.303144e+000  2.000000e+000
    endloop
  endfacet
  facet normal -6.840699e-001 -7.294164e-001  0.000000e+000
    outer loop
      vertex  1.202802e+001 -4.980930e+001  2.000000e+000
      vertex  1.202802e+001 -4.980930e+001  0.000000e+000
      vertex  2.257964e+001 -5.970494e+001  2.000000e+000
    endloop
  endfacet
  facet normal -6.840699e-001 -7.294164e-001  -0.000000e+000
    outer loop
      vertex  2.257964e+001 -5.970494e+001  2.000000e+000
      vertex  1.202802e+001 -4.980930e+001  0.000000e+000
      vertex  2.257964e+001 -5.970494e+001  0.000000e+000
    endloop
  endfacet
  facet normal -9.322932e-001 -3.617034e-001  0.000000e+000
    outer loop
      vertex  8.423688e+000 -4.051911e+001  2.000000e+000
      vertex  8.423688e+000 -4.051911e+001  0.000000e+000
      vertex  1.202802e+001 -4.980930e+001  2.000000e+000
    endloop
  endfacet
  facet normal -9.322932e-001 -3.617034e-001  -0.000000e+000
    outer loop
      vertex  1.202802e+001 -4.980930e+001  2.000000e+000
      vertex  8.423688e+000 -4.051911e+001  0.000000e+000
      vertex  1.202802e+001 -4.980930e+001  0.000000e+000
    endloop
  endfacet
  facet normal -9.996451e-001 -2.664326e-002  0.000000e+000
    outer loop
      vertex  7.762287e+000 -1.570358e+001  2.000000e+000
      vertex  7.762287e+000 -1.570358e+001  0.000000e+000
      vertex  8.423688e+000 -4.051911e+001  2.000000e+000
    endloop
  endfacet
  facet normal -9.996451e-001 -2.664326e-002  -0.000000e+000
    outer loop
      vertex  8.423688e+000 -4.051911e+001  2.000000e+000
      vertex  7.762287e+000 -1.570358e+001  0.000000e+000
      vertex  8.423688e+000 -4.051911e+001  0.000000e+000
    endloop
  endfacet
  facet normal -4.198167e-001 -9.076089e-001  0.000000e+000
    outer loop
      vertex  4.158497e+000 -1.403664e+001  2.000000e+000
      vertex  4.158497e+000 -1.403664e+001  0.000000e+000
      vertex  7.762287e+000 -1.570358e+001  2.000000e+000
    endloop
  endfacet
  facet normal -4.198167e-001 -9.076089e-001  -0.000000e+000
    outer loop
      vertex  7.762287e+000 -1.570358e+001  2.000000e+000
      vertex  4.158497e+000 -1.403664e+001  0.000000e+000
      vertex  7.762287e+000 -1.570358e+001  0.000000e+000
    endloop
  endfacet
  facet normal -7.788993e-002 -9.969619e-001  0.000000e+000
    outer loop
      vertex -1.564380e+001 -1.248954e+001  2.000000e+000
      vertex -1.564380e+001 -1.248954e+001  0.000000e+000
      vertex  4.158497e+000 -1.403664e+001  2.000000e+000
    endloop
  endfacet
  facet normal -7.788993e-002 -9.969619e-001  -0.000000e+000
    outer loop
      vertex  4.158497e+000 -1.403664e+001  2.000000e+000
      vertex -1.564380e+001 -1.248954e+001  0.000000e+000
      vertex  4.158497e+000 -1.403664e+001  0.000000e+000
    endloop
  endfacet
  facet normal -1.156266e-001  9.932927e-001  0.000000e+000
    outer loop
      vertex  3.783835e+000 -1.022802e+001  2.000000e+000
      vertex  3.783835e+000 -1.022802e+001  0.000000e+000
      vertex -1.564380e+001 -1.248954e+001  2.000000e+000
    endloop
  endfacet
  facet normal -1.156266e-001  9.932927e-001  0.000000e+000
    outer loop
      vertex -1.564380e+001 -1.248954e+001  2.000000e+000
      vertex  3.783835e+000 -1.022802e+001  0.000000e+000
      vertex -1.564380e+001 -1.248954e+001  0.000000e+000
    endloop
  endfacet
  facet normal -8.986024e-001  4.387637e-001  0.000000e+000
    outer loop
      vertex  5.343063e+000 -7.034673e+000  2.000000e+000
      vertex  5.343063e+000 -7.034673e+000  0.000000e+000
      vertex  3.783835e+000 -1.022802e+001  2.000000e+000
    endloop
  endfacet
  facet normal -8.986024e-001  4.387637e-001  0.000000e+000
    outer loop
      vertex  3.783835e+000 -1.022802e+001  2.000000e+000
      vertex  5.343063e+000 -7.034673e+000  0.000000e+000
      vertex  3.783835e+000 -1.022802e+001  0.000000e+000
    endloop
  endfacet
  facet normal -5.083119e-001  8.611731e-001  0.000000e+000
    outer loop
      vertex  5.343063e+000 -7.034673e+000  0.000000e+000
      vertex  5.343063e+000 -7.034673e+000  2.000000e+000
      vertex  8.036627e+000 -5.444783e+000  0.000000e+000
    endloop
  endfacet
  facet normal -5.083119e-001  8.611731e-001  0.000000e+000
    outer loop
      vertex  8.036627e+000 -5.444783e+000  0.000000e+000
      vertex  5.343063e+000 -7.034673e+000  2.000000e+000
      vertex  8.036627e+000 -5.444783e+000  2.000000e+000
    endloop
  endfacet
  facet normal  4.011803e-001  9.159992e-001  0.000000e+000
    outer loop
      vertex  8.036627e+000 -5.444783e+000  0.000000e+000
      vertex  8.036627e+000 -5.444783e+000  2.000000e+000
      vertex  1.183929e+001 -7.110238e+000  0.000000e+000
    endloop
  endfacet
  facet normal  4.011803e-001  9.159992e-001  -0.000000e+000
    outer loop
      vertex  1.183929e+001 -7.110238e+000  0.000000e+000
      vertex  8.036627e+000 -5.444783e+000  2.000000e+000
      vertex  1.183929e+001 -7.110238e+000  2.000000e+000
    endloop
  endfacet
  facet normal  9.962511e-001  8.650893e-002  -0.000000e+000
    outer loop
      vertex  1.447693e+001 -3.748567e+001  2.000000e+000
      vertex  1.447693e+001 -3.748567e+001  0.000000e+000
      vertex  1.183929e+001 -7.110238e+000  2.000000e+000
    endloop
  endfacet
  facet normal  9.962511e-001  8.650893e-002  0.000000e+000
    outer loop
      vertex  1.183929e+001 -7.110238e+000  2.000000e+000
      vertex  1.447693e+001 -3.748567e+001  0.000000e+000
      vertex  1.183929e+001 -7.110238e+000  0.000000e+000
    endloop
  endfacet
  facet normal  2.269027e-001  9.739174e-001  -0.000000e+000
    outer loop
      vertex  3.882973e+001 -4.315937e+001  2.000000e+000
      vertex  3.882973e+001 -4.315937e+001  0.000000e+000
      vertex  1.447693e+001 -3.748567e+001  2.000000e+000
    endloop
  endfacet
  facet normal  2.269027e-001  9.739174e-001  0.000000e+000
    outer loop
      vertex  1.447693e+001 -3.748567e+001  2.000000e+000
      vertex  3.882973e+001 -4.315937e+001  0.000000e+000
      vertex  1.447693e+001 -3.748567e+001  0.000000e+000
    endloop
  endfacet
  facet normal  6.427025e-001  7.661160e-001  -0.000000e+000
    outer loop
      vertex  5.242175e+001 -5.456185e+001  2.000000e+000
      vertex  5.242175e+001 -5.456185e+001  0.000000e+000
      vertex  3.882973e+001 -4.315937e+001  2.000000e+000
    endloop
  endfacet
  facet normal  6.427025e-001  7.661160e-001  0.000000e+000
    outer loop
      vertex  3.882973e+001 -4.315937e+001  2.000000e+000
      vertex  5.242175e+001 -5.456185e+001  0.000000e+000
      vertex  3.882973e+001 -4.315937e+001  0.000000e+000
    endloop
  endfacet
  facet normal  2.357640e-001 -9.718103e-001  0.000000e+000
    outer loop
      vertex  3.122211e+001 -5.970494e+001  2.000000e+000
      vertex  3.122211e+001 -5.970494e+001  0.000000e+000
      vertex  5.242175e+001 -5.456185e+001  2.000000e+000
    endloop
  endfacet
  facet normal  2.357640e-001 -9.718103e-001  0.000000e+000
    outer loop
      vertex  5.242175e+001 -5.456185e+001  2.000000e+000
      vertex  3.122211e+001 -5.970494e+001  0.000000e+000
      vertex  5.242175e+001 -5.456185e+001  0.000000e+000
    endloop
  endfacet
endsolid CATIA STL
