solid CATIA STL
  facet normal  -0.000000e+000  0.000000e+000  1.000000e+000
    outer loop
      vertex  4.388916e+001 -3.899100e+001  2.000000e+000
      vertex  4.360030e+001 -3.969976e+001  2.000000e+000
      vertex  4.408918e+001 -4.079668e+001  2.000000e+000
    endloop
  endfacet
  facet normal  -0.000000e+000  -0.000000e+000  1.000000e+000
    outer loop
      vertex  4.388916e+001 -3.899100e+001  2.000000e+000
      vertex  4.408918e+001 -4.079668e+001  2.000000e+000
      vertex  4.508918e+001 -4.279668e+001  2.000000e+000
    endloop
  endfacet
  facet normal  0.000000e+000  0.000000e+000  1.000000e+000
    outer loop
      vertex  4.388916e+001 -3.899100e+001  2.000000e+000
      vertex  4.508918e+001 -4.279668e+001  2.000000e+000
      vertex  4.408918e+001 -3.719669e+001  2.000000e+000
    endloop
  endfacet
  facet normal  0.000000e+000  0.000000e+000  1.000000e+000
    outer loop
      vertex  4.388916e+001 -3.899100e+001  2.000000e+000
      vertex  4.408918e+001 -3.719669e+001  2.000000e+000
      vertex  4.359225e+001 -3.828557e+001  2.000000e+000
    endloop
  endfacet
  facet normal  -0.000000e+000  0.000000e+000  1.000000e+000
    outer loop
      vertex  1.220579e+001  4.404444e+000  2.000000e+000
      vertex -1.836567e+001 -2.315994e-001  2.000000e+000
      vertex -3.520405e+001 -4.235816e+000  2.000000e+000
    endloop
  endfacet
  facet normal  -0.000000e+000  0.000000e+000  9.999999e-001
    outer loop
      vertex  1.220579e+001  4.404444e+000  2.000000e+000
      vertex -3.520405e+001 -4.235816e+000  2.000000e+000
      vertex  3.688918e+001 -2.779669e+001  2.000000e+000
    endloop
  endfacet
  facet normal  0.000000e+000  -0.000000e+000  1.000000e+000
    outer loop
      vertex  1.220579e+001  4.404444e+000  2.000000e+000
      vertex  3.688918e+001 -2.779669e+001  2.000000e+000
      vertex  3.908918e+001 -2.779669e+001  2.000000e+000
    endloop
  endfacet
  facet normal  0.000000e+000  -0.000000e+000  1.000000e+000
    outer loop
      vertex  1.220579e+001  4.404444e+000  2.000000e+000
      vertex  3.908918e+001 -2.779669e+001  2.000000e+000
      vertex  4.508918e+001 -2.750418e+000  2.000000e+000
    endloop
  endfacet
  facet normal  0.000000e+000  0.000000e+000  1.000000e+000
    outer loop
      vertex  4.108918e+001 -4.079668e+001  2.000000e+000
      vertex  4.408918e+001 -4.079668e+001  2.000000e+000
      vertex  4.360030e+001 -3.969976e+001  2.000000e+000
    endloop
  endfacet
  facet normal  0.000000e+000  0.000000e+000  1.000000e+000
    outer loop
      vertex  4.108918e+001 -4.079668e+001  2.000000e+000
      vertex  4.360030e+001 -3.969976e+001  2.000000e+000
      vertex  4.289487e+001 -3.999667e+001  2.000000e+000
    endloop
  endfacet
  facet normal  0.000000e+000  0.000000e+000  1.000000e+000
    outer loop
      vertex  4.108918e+001 -4.079668e+001  2.000000e+000
      vertex  4.289487e+001 -3.999667e+001  2.000000e+000
      vertex  4.218611e+001 -3.970780e+001  2.000000e+000
    endloop
  endfacet
  facet normal  0.000000e+000  0.000000e+000  1.000000e+000
    outer loop
      vertex  4.108918e+001 -4.079668e+001  2.000000e+000
      vertex  4.218611e+001 -3.970780e+001  2.000000e+000
      vertex  4.188920e+001 -3.900237e+001  2.000000e+000
    endloop
  endfacet
  facet normal  0.000000e+000  -0.000000e+000  1.000000e+000
    outer loop
      vertex  4.108918e+001 -4.079668e+001  2.000000e+000
      vertex  4.188920e+001 -3.900237e+001  2.000000e+000
      vertex  4.217806e+001 -3.829361e+001  2.000000e+000
    endloop
  endfacet
  facet normal  0.000000e+000  0.000000e+000  1.000000e+000
    outer loop
      vertex  4.108918e+001 -4.079668e+001  2.000000e+000
      vertex  4.217806e+001 -3.829361e+001  2.000000e+000
      vertex  4.108918e+001 -3.719669e+001  2.000000e+000
    endloop
  endfacet
  facet normal  0.000000e+000  -0.000000e+000  1.000000e+000
    outer loop
      vertex  4.108918e+001 -3.719669e+001  2.000000e+000
      vertex  4.217806e+001 -3.829361e+001  2.000000e+000
      vertex  4.288349e+001 -3.799670e+001  2.000000e+000
    endloop
  endfacet
  facet normal  -0.000000e+000  -0.000000e+000  1.000000e+000
    outer loop
      vertex  4.108918e+001 -3.719669e+001  2.000000e+000
      vertex  4.288349e+001 -3.799670e+001  2.000000e+000
      vertex  4.359225e+001 -3.828557e+001  2.000000e+000
    endloop
  endfacet
  facet normal  0.000000e+000  -0.000000e+000  1.000000e+000
    outer loop
      vertex  4.108918e+001 -3.719669e+001  2.000000e+000
      vertex  4.359225e+001 -3.828557e+001  2.000000e+000
      vertex  4.408918e+001 -3.719669e+001  2.000000e+000
    endloop
  endfacet
  facet normal  0.000000e+000  0.000000e+000  1.000000e+000
    outer loop
      vertex  3.908918e+001 -2.779669e+001  2.000000e+000
      vertex  3.908918e+001 -4.279668e+001  2.000000e+000
      vertex  4.008918e+001 -4.179668e+001  2.000000e+000
    endloop
  endfacet
  facet normal  0.000000e+000  -0.000000e+000  1.000000e+000
    outer loop
      vertex  3.908918e+001 -2.779669e+001  2.000000e+000
      vertex  4.008918e+001 -4.179668e+001  2.000000e+000
      vertex  4.008918e+001 -3.619669e+001  2.000000e+000
    endloop
  endfacet
  facet normal  0.000000e+000  -0.000000e+000  1.000000e+000
    outer loop
      vertex  3.908918e+001 -2.779669e+001  2.000000e+000
      vertex  4.008918e+001 -3.619669e+001  2.000000e+000
      vertex  4.408918e+001 -3.619669e+001  2.000000e+000
    endloop
  endfacet
  facet normal  0.000000e+000  -0.000000e+000  1.000000e+000
    outer loop
      vertex  3.908918e+001 -2.779669e+001  2.000000e+000
      vertex  4.408918e+001 -3.619669e+001  2.000000e+000
      vertex  4.508918e+001 -1.148450e+001  2.000000e+000
    endloop
  endfacet
  facet normal  0.000000e+000  -0.000000e+000  9.999999e-001
    outer loop
      vertex  3.908918e+001 -2.779669e+001  2.000000e+000
      vertex  4.508918e+001 -1.148450e+001  2.000000e+000
      vertex  4.508918e+001 -4.922367e+000  2.000000e+000
    endloop
  endfacet
  facet normal  0.000000e+000  -0.000000e+000  1.000000e+000
    outer loop
      vertex  3.908918e+001 -2.779669e+001  2.000000e+000
      vertex  4.508918e+001 -4.922367e+000  2.000000e+000
      vertex  4.508918e+001 -2.750418e+000  2.000000e+000
    endloop
  endfacet
  facet normal  0.000000e+000  0.000000e+000  1.000000e+000
    outer loop
      vertex  3.688918e+001 -2.779669e+001  2.000000e+000
      vertex -3.520405e+001 -4.235816e+000  2.000000e+000
      vertex -3.479048e+001 -6.192589e+000  2.000000e+000
    endloop
  endfacet
  facet normal  0.000000e+000  0.000000e+000  9.999999e-001
    outer loop
      vertex  3.688918e+001 -2.779669e+001  2.000000e+000
      vertex -3.479048e+001 -6.192589e+000  2.000000e+000
      vertex -2.683878e+001 -1.915876e+001  2.000000e+000
    endloop
  endfacet
  facet normal  0.000000e+000  0.000000e+000  9.999999e-001
    outer loop
      vertex  3.688918e+001 -2.779669e+001  2.000000e+000
      vertex -2.683878e+001 -1.915876e+001  2.000000e+000
      vertex -1.504416e+001 -2.779669e+001  2.000000e+000
    endloop
  endfacet
  facet normal  -0.000000e+000  0.000000e+000  1.000000e+000
    outer loop
      vertex  3.688918e+001 -2.779669e+001  2.000000e+000
      vertex -1.504416e+001 -2.779669e+001  2.000000e+000
      vertex -1.504416e+001 -4.279668e+001  2.000000e+000
    endloop
  endfacet
  facet normal  0.000000e+000  0.000000e+000  1.000000e+000
    outer loop
      vertex  3.688918e+001 -2.779669e+001  2.000000e+000
      vertex -1.504416e+001 -4.279668e+001  2.000000e+000
      vertex  3.688918e+001 -4.279668e+001  2.000000e+000
    endloop
  endfacet
  facet normal  0.000000e+000  0.000000e+000  1.000000e+000
    outer loop
      vertex -1.836567e+001 -2.315994e-001  2.000000e+000
      vertex -2.995817e+001  1.039131e+000  2.000000e+000
      vertex -3.520405e+001 -4.235816e+000  2.000000e+000
    endloop
  endfacet
  facet normal  0.000000e+000  -0.000000e+000  1.000000e+000
    outer loop
      vertex -3.520405e+001 -4.235816e+000  2.000000e+000
      vertex -2.995817e+001  1.039131e+000  2.000000e+000
      vertex -3.570407e+001  5.842179e-001  2.000000e+000
    endloop
  endfacet
  facet normal  0.000000e+000  0.000000e+000  1.000000e+000
    outer loop
      vertex -3.520405e+001 -4.235816e+000  2.000000e+000
      vertex -3.570407e+001  5.842179e-001  2.000000e+000
      vertex -3.716082e+001 -4.649386e+000  2.000000e+000
    endloop
  endfacet
  facet normal  0.000000e+000  -0.000000e+000  1.000000e+000
    outer loop
      vertex -3.716082e+001 -4.649386e+000  2.000000e+000
      vertex -3.570407e+001  5.842179e-001  2.000000e+000
      vertex -4.126290e+001 -3.094694e+000  2.000000e+000
    endloop
  endfacet
  facet normal  0.000000e+000  0.000000e+000  1.000000e+000
    outer loop
      vertex -3.716082e+001 -4.649386e+000  2.000000e+000
      vertex -4.126290e+001 -3.094694e+000  2.000000e+000
      vertex -3.674725e+001 -6.606159e+000  2.000000e+000
    endloop
  endfacet
  facet normal  0.000000e+000  0.000000e+000  9.999999e-001
    outer loop
      vertex -3.674725e+001 -6.606159e+000  2.000000e+000
      vertex -4.126290e+001 -3.094694e+000  2.000000e+000
      vertex -4.191413e+001 -8.383063e+000  2.000000e+000
    endloop
  endfacet
  facet normal  0.000000e+000  -0.000000e+000  1.000000e+000
    outer loop
      vertex -4.898098e+001 -1.367109e+001  2.000000e+000
      vertex -4.666171e+001 -1.888604e+001  2.000000e+000
      vertex -4.191413e+001 -8.383063e+000  2.000000e+000
    endloop
  endfacet
  facet normal  0.000000e+000  0.000000e+000  1.000000e+000
    outer loop
      vertex -4.191413e+001 -8.383063e+000  2.000000e+000
      vertex -4.666171e+001 -1.888604e+001  2.000000e+000
      vertex -4.009305e+001 -1.936640e+001  2.000000e+000
    endloop
  endfacet
  facet normal  0.000000e+000  -0.000000e+000  9.999999e-001
    outer loop
      vertex -4.191413e+001 -8.383063e+000  2.000000e+000
      vertex -4.009305e+001 -1.936640e+001  2.000000e+000
      vertex -3.674725e+001 -6.606159e+000  2.000000e+000
    endloop
  endfacet
  facet normal  0.000000e+000  0.000000e+000  1.000000e+000
    outer loop
      vertex -3.674725e+001 -6.606159e+000  2.000000e+000
      vertex -4.009305e+001 -1.936640e+001  2.000000e+000
      vertex -3.916869e+001 -2.071294e+001  2.000000e+000
    endloop
  endfacet
  facet normal  0.000000e+000  0.000000e+000  1.000000e+000
    outer loop
      vertex -3.674725e+001 -6.606159e+000  2.000000e+000
      vertex -3.916869e+001 -2.071294e+001  2.000000e+000
      vertex -3.479048e+001 -6.192589e+000  2.000000e+000
    endloop
  endfacet
  facet normal  0.000000e+000  0.000000e+000  1.000000e+000
    outer loop
      vertex -3.479048e+001 -6.192589e+000  2.000000e+000
      vertex -3.916869e+001 -2.071294e+001  2.000000e+000
      vertex -2.683878e+001 -1.915876e+001  2.000000e+000
    endloop
  endfacet
  facet normal  0.000000e+000  0.000000e+000  1.000000e+000
    outer loop
      vertex  4.008918e+001 -4.179668e+001  2.000000e+000
      vertex  3.908918e+001 -4.279668e+001  2.000000e+000
      vertex  4.408918e+001 -4.179668e+001  2.000000e+000
    endloop
  endfacet
  facet normal  0.000000e+000  0.000000e+000  1.000000e+000
    outer loop
      vertex  4.408918e+001 -4.179668e+001  2.000000e+000
      vertex  3.908918e+001 -4.279668e+001  2.000000e+000
      vertex  4.508918e+001 -4.279668e+001  2.000000e+000
    endloop
  endfacet
  facet normal  0.000000e+000  0.000000e+000  1.000000e+000
    outer loop
      vertex  4.408918e+001 -4.179668e+001  2.000000e+000
      vertex  4.508918e+001 -4.279668e+001  2.000000e+000
      vertex  4.408918e+001 -4.079668e+001  2.000000e+000
    endloop
  endfacet
  facet normal  0.000000e+000  0.000000e+000  9.999999e-001
    outer loop
      vertex -2.224416e+001 -4.279668e+001  2.000000e+000
      vertex -1.724416e+001 -4.279668e+001  2.000000e+000
      vertex -2.683878e+001 -1.915876e+001  2.000000e+000
    endloop
  endfacet
  facet normal  0.000000e+000  0.000000e+000  1.000000e+000
    outer loop
      vertex -2.683878e+001 -1.915876e+001  2.000000e+000
      vertex -1.724416e+001 -4.279668e+001  2.000000e+000
      vertex -1.724416e+001 -2.779669e+001  2.000000e+000
    endloop
  endfacet
  facet normal  0.000000e+000  -0.000000e+000  1.000000e+000
    outer loop
      vertex -2.683878e+001 -1.915876e+001  2.000000e+000
      vertex -1.724416e+001 -2.779669e+001  2.000000e+000
      vertex -1.504416e+001 -2.779669e+001  2.000000e+000
    endloop
  endfacet
  facet normal  0.000000e+000  0.000000e+000  1.000000e+000
    outer loop
      vertex -3.487706e+001  3.670691e+000  2.000000e+000
      vertex -3.570407e+001  5.842179e-001  2.000000e+000
      vertex -3.126209e+001  4.245831e+000  2.000000e+000
    endloop
  endfacet
  facet normal  0.000000e+000  0.000000e+000  1.000000e+000
    outer loop
      vertex -3.126209e+001  4.245831e+000  2.000000e+000
      vertex -3.570407e+001  5.842179e-001  2.000000e+000
      vertex -2.995817e+001  1.039131e+000  2.000000e+000
    endloop
  endfacet
  facet normal  0.000000e+000  0.000000e+000  1.000000e+000
    outer loop
      vertex  4.408918e+001 -3.719669e+001  2.000000e+000
      vertex  4.508918e+001 -4.279668e+001  2.000000e+000
      vertex  4.408918e+001 -3.619669e+001  2.000000e+000
    endloop
  endfacet
  facet normal  -0.000000e+000  0.000000e+000  1.000000e+000
    outer loop
      vertex  4.408918e+001 -3.619669e+001  2.000000e+000
      vertex  4.508918e+001 -4.279668e+001  2.000000e+000
      vertex  4.508918e+001 -1.148450e+001  2.000000e+000
    endloop
  endfacet
  facet normal  0.000000e+000  0.000000e+000  1.000000e+000
    outer loop
      vertex  4.508918e+001 -1.148450e+001  2.000000e+000
      vertex  4.915594e+001 -1.148450e+001  2.000000e+000
      vertex  4.508918e+001 -4.922367e+000  2.000000e+000
    endloop
  endfacet
  facet normal  -0.000000e+000  0.000000e+000  1.000000e+000
    outer loop
      vertex  4.508918e+001 -4.922367e+000  2.000000e+000
      vertex  4.915594e+001 -1.148450e+001  2.000000e+000
      vertex  4.915594e+001 -4.922367e+000  2.000000e+000
    endloop
  endfacet
  facet normal  1.000000e+000  0.000000e+000  0.000000e+000
    outer loop
      vertex  4.408918e+001 -3.619669e+001  2.000000e+000
      vertex  4.408918e+001 -3.619669e+001  2.430000e+000
      vertex  4.408918e+001 -3.719669e+001  2.000000e+000
    endloop
  endfacet
  facet normal  1.000000e+000  0.000000e+000  0.000000e+000
    outer loop
      vertex  4.408918e+001 -3.719669e+001  2.000000e+000
      vertex  4.408918e+001 -3.619669e+001  2.430000e+000
      vertex  4.408918e+001 -3.719669e+001  2.430000e+000
    endloop
  endfacet
  facet normal  0.000000e+000 -1.000000e+000  -0.000000e+000
    outer loop
      vertex  4.408918e+001 -3.719669e+001  2.000000e+000
      vertex  4.408918e+001 -3.719669e+001  2.430000e+000
      vertex  4.108918e+001 -3.719669e+001  2.000000e+000
    endloop
  endfacet
  facet normal  0.000000e+000 -1.000000e+000  0.000000e+000
    outer loop
      vertex  4.108918e+001 -3.719669e+001  2.000000e+000
      vertex  4.408918e+001 -3.719669e+001  2.430000e+000
      vertex  4.108918e+001 -3.719669e+001  2.430000e+000
    endloop
  endfacet
  facet normal  9.999999e-001  0.000000e+000  0.000000e+000
    outer loop
      vertex  4.108918e+001 -3.719669e+001  2.000000e+000
      vertex  4.108918e+001 -3.719669e+001  2.430000e+000
      vertex  4.108918e+001 -4.079668e+001  2.000000e+000
    endloop
  endfacet
  facet normal  9.999999e-001  0.000000e+000  0.000000e+000
    outer loop
      vertex  4.108918e+001 -4.079668e+001  2.000000e+000
      vertex  4.108918e+001 -3.719669e+001  2.430000e+000
      vertex  4.108918e+001 -4.079668e+001  2.430000e+000
    endloop
  endfacet
  facet normal  0.000000e+000  1.000000e+000  0.000000e+000
    outer loop
      vertex  4.108918e+001 -4.079668e+001  2.000000e+000
      vertex  4.108918e+001 -4.079668e+001  2.430000e+000
      vertex  4.408918e+001 -4.079668e+001  2.000000e+000
    endloop
  endfacet
  facet normal  0.000000e+000  1.000000e+000  -0.000000e+000
    outer loop
      vertex  4.408918e+001 -4.079668e+001  2.000000e+000
      vertex  4.108918e+001 -4.079668e+001  2.430000e+000
      vertex  4.408918e+001 -4.079668e+001  2.430000e+000
    endloop
  endfacet
  facet normal  1.000000e+000  0.000000e+000  0.000000e+000
    outer loop
      vertex  4.408918e+001 -4.079668e+001  2.000000e+000
      vertex  4.408918e+001 -4.079668e+001  2.430000e+000
      vertex  4.408918e+001 -4.179668e+001  2.000000e+000
    endloop
  endfacet
  facet normal  1.000000e+000  0.000000e+000  0.000000e+000
    outer loop
      vertex  4.408918e+001 -4.179668e+001  2.000000e+000
      vertex  4.408918e+001 -4.079668e+001  2.430000e+000
      vertex  4.408918e+001 -4.179668e+001  2.430000e+000
    endloop
  endfacet
  facet normal  0.000000e+000 -1.000000e+000  -0.000000e+000
    outer loop
      vertex  4.408918e+001 -4.179668e+001  2.000000e+000
      vertex  4.408918e+001 -4.179668e+001  2.430000e+000
      vertex  4.008918e+001 -4.179668e+001  2.000000e+000
    endloop
  endfacet
  facet normal  0.000000e+000 -1.000000e+000  0.000000e+000
    outer loop
      vertex  4.008918e+001 -4.179668e+001  2.000000e+000
      vertex  4.408918e+001 -4.179668e+001  2.430000e+000
      vertex  4.008918e+001 -4.179668e+001  2.430000e+000
    endloop
  endfacet
  facet normal -1.000000e+000  0.000000e+000  0.000000e+000
    outer loop
      vertex  4.008918e+001 -4.179668e+001  2.000000e+000
      vertex  4.008918e+001 -4.179668e+001  2.430000e+000
      vertex  4.008918e+001 -3.619669e+001  2.000000e+000
    endloop
  endfacet
  facet normal -1.000000e+000  0.000000e+000  0.000000e+000
    outer loop
      vertex  4.008918e+001 -3.619669e+001  2.000000e+000
      vertex  4.008918e+001 -4.179668e+001  2.430000e+000
      vertex  4.008918e+001 -3.619669e+001  2.430000e+000
    endloop
  endfacet
  facet normal  0.000000e+000  1.000000e+000  0.000000e+000
    outer loop
      vertex  4.008918e+001 -3.619669e+001  2.000000e+000
      vertex  4.008918e+001 -3.619669e+001  2.430000e+000
      vertex  4.408918e+001 -3.619669e+001  2.000000e+000
    endloop
  endfacet
  facet normal  0.000000e+000  1.000000e+000  -0.000000e+000
    outer loop
      vertex  4.408918e+001 -3.619669e+001  2.000000e+000
      vertex  4.008918e+001 -3.619669e+001  2.430000e+000
      vertex  4.408918e+001 -3.619669e+001  2.430000e+000
    endloop
  endfacet
  facet normal  9.260420e-001 -3.774205e-001  0.000000e+000
    outer loop
      vertex  4.388916e+001 -3.899100e+001  2.000000e+000
      vertex  4.388916e+001 -3.899100e+001  2.430000e+000
      vertex  4.360030e+001 -3.969976e+001  2.000000e+000
    endloop
  endfacet
  facet normal  9.260420e-001 -3.774205e-001  0.000000e+000
    outer loop
      vertex  4.360030e+001 -3.969976e+001  2.000000e+000
      vertex  4.388916e+001 -3.899100e+001  2.430000e+000
      vertex  4.360030e+001 -3.969976e+001  2.430000e+000
    endloop
  endfacet
  facet normal  3.879353e-001 -9.216866e-001  0.000000e+000
    outer loop
      vertex  4.360030e+001 -3.969976e+001  2.000000e+000
      vertex  4.360030e+001 -3.969976e+001  2.430000e+000
      vertex  4.289487e+001 -3.999667e+001  2.000000e+000
    endloop
  endfacet
  facet normal  3.879353e-001 -9.216866e-001  0.000000e+000
    outer loop
      vertex  4.289487e+001 -3.999667e+001  2.000000e+000
      vertex  4.360030e+001 -3.969976e+001  2.430000e+000
      vertex  4.289487e+001 -3.999667e+001  2.430000e+000
    endloop
  endfacet
  facet normal -3.774231e-001 -9.260409e-001  -0.000000e+000
    outer loop
      vertex  4.289487e+001 -3.999667e+001  2.000000e+000
      vertex  4.289487e+001 -3.999667e+001  2.430000e+000
      vertex  4.218611e+001 -3.970780e+001  2.000000e+000
    endloop
  endfacet
  facet normal -3.774231e-001 -9.260409e-001  0.000000e+000
    outer loop
      vertex  4.218611e+001 -3.970780e+001  2.000000e+000
      vertex  4.289487e+001 -3.999667e+001  2.430000e+000
      vertex  4.218611e+001 -3.970780e+001  2.430000e+000
    endloop
  endfacet
  facet normal -9.216884e-001 -3.879311e-001  -0.000000e+000
    outer loop
      vertex  4.218611e+001 -3.970780e+001  2.000000e+000
      vertex  4.218611e+001 -3.970780e+001  2.430000e+000
      vertex  4.188920e+001 -3.900237e+001  2.000000e+000
    endloop
  endfacet
  facet normal -9.216884e-001 -3.879311e-001  0.000000e+000
    outer loop
      vertex  4.188920e+001 -3.900237e+001  2.000000e+000
      vertex  4.218611e+001 -3.970780e+001  2.430000e+000
      vertex  4.188920e+001 -3.900237e+001  2.430000e+000
    endloop
  endfacet
  facet normal -9.260420e-001  3.774205e-001  0.000000e+000
    outer loop
      vertex  4.188920e+001 -3.900237e+001  2.000000e+000
      vertex  4.188920e+001 -3.900237e+001  2.430000e+000
      vertex  4.217806e+001 -3.829361e+001  2.000000e+000
    endloop
  endfacet
  facet normal -9.260420e-001  3.774205e-001  0.000000e+000
    outer loop
      vertex  4.217806e+001 -3.829361e+001  2.000000e+000
      vertex  4.188920e+001 -3.900237e+001  2.430000e+000
      vertex  4.217806e+001 -3.829361e+001  2.430000e+000
    endloop
  endfacet
  facet normal -3.879353e-001  9.216866e-001  0.000000e+000
    outer loop
      vertex  4.217806e+001 -3.829361e+001  2.000000e+000
      vertex  4.217806e+001 -3.829361e+001  2.430000e+000
      vertex  4.288349e+001 -3.799670e+001  2.000000e+000
    endloop
  endfacet
  facet normal -3.879353e-001  9.216866e-001  0.000000e+000
    outer loop
      vertex  4.288349e+001 -3.799670e+001  2.000000e+000
      vertex  4.217806e+001 -3.829361e+001  2.430000e+000
      vertex  4.288349e+001 -3.799670e+001  2.430000e+000
    endloop
  endfacet
  facet normal  3.774231e-001  9.260409e-001  0.000000e+000
    outer loop
      vertex  4.288349e+001 -3.799670e+001  2.000000e+000
      vertex  4.288349e+001 -3.799670e+001  2.430000e+000
      vertex  4.359225e+001 -3.828557e+001  2.000000e+000
    endloop
  endfacet
  facet normal  3.774231e-001  9.260409e-001  -0.000000e+000
    outer loop
      vertex  4.359225e+001 -3.828557e+001  2.000000e+000
      vertex  4.288349e+001 -3.799670e+001  2.430000e+000
      vertex  4.359225e+001 -3.828557e+001  2.430000e+000
    endloop
  endfacet
  facet normal  9.216884e-001  3.879311e-001  0.000000e+000
    outer loop
      vertex  4.359225e+001 -3.828557e+001  2.000000e+000
      vertex  4.359225e+001 -3.828557e+001  2.430000e+000
      vertex  4.388916e+001 -3.899100e+001  2.000000e+000
    endloop
  endfacet
  facet normal  9.216884e-001  3.879311e-001  -0.000000e+000
    outer loop
      vertex  4.388916e+001 -3.899100e+001  2.000000e+000
      vertex  4.359225e+001 -3.828557e+001  2.430000e+000
      vertex  4.388916e+001 -3.899100e+001  2.430000e+000
    endloop
  endfacet
  facet normal  0.000000e+000  0.000000e+000  1.000000e+000
    outer loop
      vertex  4.408918e+001 -4.179668e+001  2.430000e+000
      vertex  4.408918e+001 -4.079668e+001  2.430000e+000
      vertex  4.008918e+001 -4.179668e+001  2.430000e+000
    endloop
  endfacet
  facet normal  0.000000e+000  0.000000e+000  1.000000e+000
    outer loop
      vertex  4.008918e+001 -4.179668e+001  2.430000e+000
      vertex  4.408918e+001 -4.079668e+001  2.430000e+000
      vertex  4.108918e+001 -4.079668e+001  2.430000e+000
    endloop
  endfacet
  facet normal  0.000000e+000  0.000000e+000  1.000000e+000
    outer loop
      vertex  4.008918e+001 -4.179668e+001  2.430000e+000
      vertex  4.108918e+001 -4.079668e+001  2.430000e+000
      vertex  4.008918e+001 -3.619669e+001  2.430000e+000
    endloop
  endfacet
  facet normal  0.000000e+000  0.000000e+000  1.000000e+000
    outer loop
      vertex  4.008918e+001 -3.619669e+001  2.430000e+000
      vertex  4.108918e+001 -4.079668e+001  2.430000e+000
      vertex  4.108918e+001 -3.719669e+001  2.430000e+000
    endloop
  endfacet
  facet normal  0.000000e+000  -0.000000e+000  1.000000e+000
    outer loop
      vertex  4.008918e+001 -3.619669e+001  2.430000e+000
      vertex  4.108918e+001 -3.719669e+001  2.430000e+000
      vertex  4.408918e+001 -3.619669e+001  2.430000e+000
    endloop
  endfacet
  facet normal  0.000000e+000  0.000000e+000  1.000000e+000
    outer loop
      vertex  4.408918e+001 -3.619669e+001  2.430000e+000
      vertex  4.108918e+001 -3.719669e+001  2.430000e+000
      vertex  4.408918e+001 -3.719669e+001  2.430000e+000
    endloop
  endfacet
  facet normal  0.000000e+000  0.000000e+000  1.000000e+000
    outer loop
      vertex  4.217806e+001 -3.829361e+001  2.430000e+000
      vertex  4.359225e+001 -3.828557e+001  2.430000e+000
      vertex  4.288349e+001 -3.799670e+001  2.430000e+000
    endloop
  endfacet
  facet normal  -0.000000e+000  0.000000e+000  1.000000e+000
    outer loop
      vertex  4.359225e+001 -3.828557e+001  2.430000e+000
      vertex  4.217806e+001 -3.829361e+001  2.430000e+000
      vertex  4.388916e+001 -3.899100e+001  2.430000e+000
    endloop
  endfacet
  facet normal  0.000000e+000  0.000000e+000  9.999999e-001
    outer loop
      vertex  4.388916e+001 -3.899100e+001  2.430000e+000
      vertex  4.217806e+001 -3.829361e+001  2.430000e+000
      vertex  4.188920e+001 -3.900237e+001  2.430000e+000
    endloop
  endfacet
  facet normal  -0.000000e+000  0.000000e+000  9.999999e-001
    outer loop
      vertex  4.388916e+001 -3.899100e+001  2.430000e+000
      vertex  4.188920e+001 -3.900237e+001  2.430000e+000
      vertex  4.360030e+001 -3.969976e+001  2.430000e+000
    endloop
  endfacet
  facet normal  0.000000e+000  0.000000e+000  1.000000e+000
    outer loop
      vertex  4.360030e+001 -3.969976e+001  2.430000e+000
      vertex  4.188920e+001 -3.900237e+001  2.430000e+000
      vertex  4.218611e+001 -3.970780e+001  2.430000e+000
    endloop
  endfacet
  facet normal  -0.000000e+000  0.000000e+000  1.000000e+000
    outer loop
      vertex  4.360030e+001 -3.969976e+001  2.430000e+000
      vertex  4.218611e+001 -3.970780e+001  2.430000e+000
      vertex  4.289487e+001 -3.999667e+001  2.430000e+000
    endloop
  endfacet
  facet normal  0.000000e+000 -1.000000e+000  -0.000000e+000
    outer loop
      vertex  4.508918e+001 -4.279668e+001  0.000000e+000
      vertex  4.508918e+001 -4.279668e+001  2.000000e+000
      vertex  3.908918e+001 -4.279668e+001  0.000000e+000
    endloop
  endfacet
  facet normal  0.000000e+000 -1.000000e+000  0.000000e+000
    outer loop
      vertex  3.908918e+001 -4.279668e+001  0.000000e+000
      vertex  4.508918e+001 -4.279668e+001  2.000000e+000
      vertex  3.908918e+001 -4.279668e+001  2.000000e+000
    endloop
  endfacet
  facet normal  0.000000e+000 -1.000000e+000  -0.000000e+000
    outer loop
      vertex -1.724416e+001 -4.279668e+001  0.000000e+000
      vertex -1.724416e+001 -4.279668e+001  2.000000e+000
      vertex -2.224416e+001 -4.279668e+001  0.000000e+000
    endloop
  endfacet
  facet normal  0.000000e+000 -1.000000e+000  0.000000e+000
    outer loop
      vertex -2.224416e+001 -4.279668e+001  0.000000e+000
      vertex -1.724416e+001 -4.279668e+001  2.000000e+000
      vertex -2.224416e+001 -4.279668e+001  2.000000e+000
    endloop
  endfacet
  facet normal  0.000000e+000 -1.000000e+000  -0.000000e+000
    outer loop
      vertex  3.688918e+001 -4.279668e+001  0.000000e+000
      vertex  3.688918e+001 -4.279668e+001  2.000000e+000
      vertex -1.504416e+001 -4.279668e+001  0.000000e+000
    endloop
  endfacet
  facet normal  0.000000e+000 -1.000000e+000  0.000000e+000
    outer loop
      vertex -1.504416e+001 -4.279668e+001  0.000000e+000
      vertex  3.688918e+001 -4.279668e+001  2.000000e+000
      vertex -1.504416e+001 -4.279668e+001  2.000000e+000
    endloop
  endfacet
  facet normal  0.000000e+000  0.000000e+000 -1.000000e+000
    outer loop
      vertex -2.683878e+001 -1.915876e+001  0.000000e+000
      vertex  3.688918e+001 -2.779669e+001  0.000000e+000
      vertex -1.504416e+001 -2.779669e+001  0.000000e+000
    endloop
  endfacet
  facet normal  0.000000e+000  0.000000e+000 -1.000000e+000
    outer loop
      vertex -2.683878e+001 -1.915876e+001  0.000000e+000
      vertex -1.504416e+001 -2.779669e+001  0.000000e+000
      vertex -1.724416e+001 -2.779669e+001  0.000000e+000
    endloop
  endfacet
  facet normal  -0.000000e+000  -0.000000e+000 -1.000000e+000
    outer loop
      vertex -2.683878e+001 -1.915876e+001  0.000000e+000
      vertex -1.724416e+001 -2.779669e+001  0.000000e+000
      vertex -1.724416e+001 -4.279668e+001  0.000000e+000
    endloop
  endfacet
  facet normal  0.000000e+000  0.000000e+000 -9.999999e-001
    outer loop
      vertex -2.683878e+001 -1.915876e+001  0.000000e+000
      vertex -1.724416e+001 -4.279668e+001  0.000000e+000
      vertex -2.224416e+001 -4.279668e+001  0.000000e+000
    endloop
  endfacet
  facet normal  0.000000e+000  -0.000000e+000 -1.000000e+000
    outer loop
      vertex -1.836567e+001 -2.315994e-001  0.000000e+000
      vertex  1.220579e+001  4.404444e+000  0.000000e+000
      vertex  4.508918e+001 -2.750418e+000  0.000000e+000
    endloop
  endfacet
  facet normal  -0.000000e+000  0.000000e+000 -1.000000e+000
    outer loop
      vertex -1.836567e+001 -2.315994e-001  0.000000e+000
      vertex  4.508918e+001 -2.750418e+000  0.000000e+000
      vertex -3.520405e+001 -4.235816e+000  0.000000e+000
    endloop
  endfacet
  facet normal  0.000000e+000  0.000000e+000 -1.000000e+000
    outer loop
      vertex -1.836567e+001 -2.315994e-001  0.000000e+000
      vertex -3.520405e+001 -4.235816e+000  0.000000e+000
      vertex -3.570407e+001  5.842179e-001  0.000000e+000
    endloop
  endfacet
  facet normal  0.000000e+000  0.000000e+000 -9.999999e-001
    outer loop
      vertex -1.836567e+001 -2.315994e-001  0.000000e+000
      vertex -3.570407e+001  5.842179e-001  0.000000e+000
      vertex -2.995817e+001  1.039131e+000  0.000000e+000
    endloop
  endfacet
  facet normal  -0.000000e+000  -0.000000e+000 -1.000000e+000
    outer loop
      vertex  4.508918e+001 -4.922367e+000  0.000000e+000
      vertex  4.915594e+001 -4.922367e+000  0.000000e+000
      vertex  4.915594e+001 -1.148450e+001  0.000000e+000
    endloop
  endfacet
  facet normal  0.000000e+000  0.000000e+000 -9.999999e-001
    outer loop
      vertex  4.508918e+001 -4.922367e+000  0.000000e+000
      vertex  4.915594e+001 -1.148450e+001  0.000000e+000
      vertex -3.479048e+001 -6.192589e+000  0.000000e+000
    endloop
  endfacet
  facet normal  0.000000e+000  0.000000e+000 -1.000000e+000
    outer loop
      vertex  4.508918e+001 -4.922367e+000  0.000000e+000
      vertex -3.479048e+001 -6.192589e+000  0.000000e+000
      vertex -3.520405e+001 -4.235816e+000  0.000000e+000
    endloop
  endfacet
  facet normal  0.000000e+000  0.000000e+000 -1.000000e+000
    outer loop
      vertex  4.508918e+001 -4.922367e+000  0.000000e+000
      vertex -3.520405e+001 -4.235816e+000  0.000000e+000
      vertex  4.508918e+001 -2.750418e+000  0.000000e+000
    endloop
  endfacet
  facet normal  0.000000e+000  0.000000e+000 -1.000000e+000
    outer loop
      vertex -3.479048e+001 -6.192589e+000  0.000000e+000
      vertex  4.915594e+001 -1.148450e+001  0.000000e+000
      vertex  4.508918e+001 -1.148450e+001  0.000000e+000
    endloop
  endfacet
  facet normal  -0.000000e+000  0.000000e+000 -1.000000e+000
    outer loop
      vertex -3.479048e+001 -6.192589e+000  0.000000e+000
      vertex  4.508918e+001 -1.148450e+001  0.000000e+000
      vertex  3.688918e+001 -2.779669e+001  0.000000e+000
    endloop
  endfacet
  facet normal  0.000000e+000  0.000000e+000 -1.000000e+000
    outer loop
      vertex -3.479048e+001 -6.192589e+000  0.000000e+000
      vertex  3.688918e+001 -2.779669e+001  0.000000e+000
      vertex -2.683878e+001 -1.915876e+001  0.000000e+000
    endloop
  endfacet
  facet normal  0.000000e+000  0.000000e+000 -1.000000e+000
    outer loop
      vertex -4.666171e+001 -1.888604e+001  0.000000e+000
      vertex -4.898098e+001 -1.367109e+001  0.000000e+000
      vertex -4.009305e+001 -1.936640e+001  0.000000e+000
    endloop
  endfacet
  facet normal  0.000000e+000  0.000000e+000 -1.000000e+000
    outer loop
      vertex -4.009305e+001 -1.936640e+001  0.000000e+000
      vertex -4.898098e+001 -1.367109e+001  0.000000e+000
      vertex -4.191413e+001 -8.383063e+000  0.000000e+000
    endloop
  endfacet
  facet normal  0.000000e+000  0.000000e+000 -9.999999e-001
    outer loop
      vertex -4.009305e+001 -1.936640e+001  0.000000e+000
      vertex -4.191413e+001 -8.383063e+000  0.000000e+000
      vertex -3.916869e+001 -2.071294e+001  0.000000e+000
    endloop
  endfacet
  facet normal  0.000000e+000  0.000000e+000 -1.000000e+000
    outer loop
      vertex -3.916869e+001 -2.071294e+001  0.000000e+000
      vertex -4.191413e+001 -8.383063e+000  0.000000e+000
      vertex -3.674725e+001 -6.606159e+000  0.000000e+000
    endloop
  endfacet
  facet normal  0.000000e+000  -0.000000e+000 -1.000000e+000
    outer loop
      vertex -3.916869e+001 -2.071294e+001  0.000000e+000
      vertex -3.674725e+001 -6.606159e+000  0.000000e+000
      vertex -2.683878e+001 -1.915876e+001  0.000000e+000
    endloop
  endfacet
  facet normal  0.000000e+000  0.000000e+000 -1.000000e+000
    outer loop
      vertex -2.683878e+001 -1.915876e+001  0.000000e+000
      vertex -3.674725e+001 -6.606159e+000  0.000000e+000
      vertex -3.479048e+001 -6.192589e+000  0.000000e+000
    endloop
  endfacet
  facet normal  0.000000e+000  0.000000e+000 -1.000000e+000
    outer loop
      vertex -3.570407e+001  5.842179e-001  0.000000e+000
      vertex -3.520405e+001 -4.235816e+000  0.000000e+000
      vertex -4.126290e+001 -3.094694e+000  0.000000e+000
    endloop
  endfacet
  facet normal  0.000000e+000  0.000000e+000 -1.000000e+000
    outer loop
      vertex -4.126290e+001 -3.094694e+000  0.000000e+000
      vertex -3.520405e+001 -4.235816e+000  0.000000e+000
      vertex -3.716082e+001 -4.649386e+000  0.000000e+000
    endloop
  endfacet
  facet normal  -0.000000e+000  0.000000e+000 -1.000000e+000
    outer loop
      vertex -4.126290e+001 -3.094694e+000  0.000000e+000
      vertex -3.716082e+001 -4.649386e+000  0.000000e+000
      vertex -4.191413e+001 -8.383063e+000  0.000000e+000
    endloop
  endfacet
  facet normal  0.000000e+000  0.000000e+000 -9.999999e-001
    outer loop
      vertex -4.191413e+001 -8.383063e+000  0.000000e+000
      vertex -3.716082e+001 -4.649386e+000  0.000000e+000
      vertex -3.674725e+001 -6.606159e+000  0.000000e+000
    endloop
  endfacet
  facet normal  0.000000e+000  0.000000e+000 -1.000000e+000
    outer loop
      vertex  3.688918e+001 -4.279668e+001  0.000000e+000
      vertex -1.504416e+001 -4.279668e+001  0.000000e+000
      vertex  3.688918e+001 -2.779669e+001  0.000000e+000
    endloop
  endfacet
  facet normal  -0.000000e+000  0.000000e+000 -1.000000e+000
    outer loop
      vertex  3.688918e+001 -2.779669e+001  0.000000e+000
      vertex -1.504416e+001 -4.279668e+001  0.000000e+000
      vertex -1.504416e+001 -2.779669e+001  0.000000e+000
    endloop
  endfacet
  facet normal  0.000000e+000  -0.000000e+000 -1.000000e+000
    outer loop
      vertex -3.570407e+001  5.842179e-001  0.000000e+000
      vertex -3.487706e+001  3.670691e+000  0.000000e+000
      vertex -2.995817e+001  1.039131e+000  0.000000e+000
    endloop
  endfacet
  facet normal  0.000000e+000  0.000000e+000 -1.000000e+000
    outer loop
      vertex -2.995817e+001  1.039131e+000  0.000000e+000
      vertex -3.487706e+001  3.670691e+000  0.000000e+000
      vertex -3.126209e+001  4.245831e+000  0.000000e+000
    endloop
  endfacet
  facet normal  0.000000e+000  0.000000e+000 -9.999999e-001
    outer loop
      vertex  4.508918e+001 -4.279668e+001  0.000000e+000
      vertex  3.908918e+001 -4.279668e+001  0.000000e+000
      vertex  4.508918e+001 -1.148450e+001  0.000000e+000
    endloop
  endfacet
  facet normal  0.000000e+000  0.000000e+000 -1.000000e+000
    outer loop
      vertex  4.508918e+001 -1.148450e+001  0.000000e+000
      vertex  3.908918e+001 -4.279668e+001  0.000000e+000
      vertex  3.908918e+001 -2.779669e+001  0.000000e+000
    endloop
  endfacet
  facet normal  0.000000e+000  0.000000e+000 -1.000000e+000
    outer loop
      vertex  4.508918e+001 -1.148450e+001  0.000000e+000
      vertex  3.908918e+001 -2.779669e+001  0.000000e+000
      vertex  3.688918e+001 -2.779669e+001  0.000000e+000
    endloop
  endfacet
  facet normal  0.000000e+000 -1.000000e+000  -0.000000e+000
    outer loop
      vertex  3.908918e+001 -2.779669e+001  0.000000e+000
      vertex  3.908918e+001 -2.779669e+001  2.000000e+000
      vertex  3.688918e+001 -2.779669e+001  0.000000e+000
    endloop
  endfacet
  facet normal  0.000000e+000 -1.000000e+000  0.000000e+000
    outer loop
      vertex  3.688918e+001 -2.779669e+001  0.000000e+000
      vertex  3.908918e+001 -2.779669e+001  2.000000e+000
      vertex  3.688918e+001 -2.779669e+001  2.000000e+000
    endloop
  endfacet
  facet normal -1.000000e+000  0.000000e+000  0.000000e+000
    outer loop
      vertex  3.908918e+001 -4.279668e+001  0.000000e+000
      vertex  3.908918e+001 -4.279668e+001  2.000000e+000
      vertex  3.908918e+001 -2.779669e+001  0.000000e+000
    endloop
  endfacet
  facet normal -1.000000e+000  0.000000e+000  0.000000e+000
    outer loop
      vertex  3.908918e+001 -2.779669e+001  0.000000e+000
      vertex  3.908918e+001 -4.279668e+001  2.000000e+000
      vertex  3.908918e+001 -2.779669e+001  2.000000e+000
    endloop
  endfacet
  facet normal  1.000000e+000  0.000000e+000  0.000000e+000
    outer loop
      vertex  3.688918e+001 -2.779669e+001  0.000000e+000
      vertex  3.688918e+001 -2.779669e+001  2.000000e+000
      vertex  3.688918e+001 -4.279668e+001  0.000000e+000
    endloop
  endfacet
  facet normal  1.000000e+000  0.000000e+000  0.000000e+000
    outer loop
      vertex  3.688918e+001 -4.279668e+001  0.000000e+000
      vertex  3.688918e+001 -2.779669e+001  2.000000e+000
      vertex  3.688918e+001 -4.279668e+001  2.000000e+000
    endloop
  endfacet
  facet normal  1.000000e+000  0.000000e+000  0.000000e+000
    outer loop
      vertex -1.724416e+001 -2.779669e+001  0.000000e+000
      vertex -1.724416e+001 -2.779669e+001  2.000000e+000
      vertex -1.724416e+001 -4.279668e+001  0.000000e+000
    endloop
  endfacet
  facet normal  1.000000e+000  0.000000e+000  0.000000e+000
    outer loop
      vertex -1.724416e+001 -4.279668e+001  0.000000e+000
      vertex -1.724416e+001 -2.779669e+001  2.000000e+000
      vertex -1.724416e+001 -4.279668e+001  2.000000e+000
    endloop
  endfacet
  facet normal  0.000000e+000 -1.000000e+000  -0.000000e+000
    outer loop
      vertex -1.504416e+001 -2.779669e+001  0.000000e+000
      vertex -1.504416e+001 -2.779669e+001  2.000000e+000
      vertex -1.724416e+001 -2.779669e+001  0.000000e+000
    endloop
  endfacet
  facet normal  0.000000e+000 -1.000000e+000  0.000000e+000
    outer loop
      vertex -1.724416e+001 -2.779669e+001  0.000000e+000
      vertex -1.504416e+001 -2.779669e+001  2.000000e+000
      vertex -1.724416e+001 -2.779669e+001  2.000000e+000
    endloop
  endfacet
  facet normal -1.000000e+000  0.000000e+000  0.000000e+000
    outer loop
      vertex -1.504416e+001 -4.279668e+001  0.000000e+000
      vertex -1.504416e+001 -4.279668e+001  2.000000e+000
      vertex -1.504416e+001 -2.779669e+001  0.000000e+000
    endloop
  endfacet
  facet normal -1.000000e+000  0.000000e+000  0.000000e+000
    outer loop
      vertex -1.504416e+001 -2.779669e+001  0.000000e+000
      vertex -1.504416e+001 -4.279668e+001  2.000000e+000
      vertex -1.504416e+001 -2.779669e+001  2.000000e+000
    endloop
  endfacet
  facet normal  2.067853e-001 -9.783864e-001  0.000000e+000
    outer loop
      vertex -3.716082e+001 -4.649386e+000  0.000000e+000
      vertex -3.520405e+001 -4.235816e+000  0.000000e+000
      vertex -3.716082e+001 -4.649386e+000  2.000000e+000
    endloop
  endfacet
  facet normal  2.067853e-001 -9.783864e-001  0.000000e+000
    outer loop
      vertex -3.716082e+001 -4.649386e+000  2.000000e+000
      vertex -3.520405e+001 -4.235816e+000  0.000000e+000
      vertex -3.520405e+001 -4.235816e+000  2.000000e+000
    endloop
  endfacet
  facet normal  9.783864e-001  2.067852e-001  0.000000e+000
    outer loop
      vertex -3.674725e+001 -6.606159e+000  0.000000e+000
      vertex -3.716082e+001 -4.649386e+000  0.000000e+000
      vertex -3.674725e+001 -6.606159e+000  2.000000e+000
    endloop
  endfacet
  facet normal  9.783864e-001  2.067852e-001  0.000000e+000
    outer loop
      vertex -3.674725e+001 -6.606159e+000  2.000000e+000
      vertex -3.716082e+001 -4.649386e+000  0.000000e+000
      vertex -3.716082e+001 -4.649386e+000  2.000000e+000
    endloop
  endfacet
  facet normal -2.067853e-001  9.783864e-001  0.000000e+000
    outer loop
      vertex -3.479048e+001 -6.192589e+000  0.000000e+000
      vertex -3.674725e+001 -6.606159e+000  0.000000e+000
      vertex -3.479048e+001 -6.192589e+000  2.000000e+000
    endloop
  endfacet
  facet normal -2.067853e-001  9.783864e-001  0.000000e+000
    outer loop
      vertex -3.479048e+001 -6.192589e+000  2.000000e+000
      vertex -3.674725e+001 -6.606159e+000  0.000000e+000
      vertex -3.674725e+001 -6.606159e+000  2.000000e+000
    endloop
  endfacet
  facet normal -9.783864e-001 -2.067852e-001  0.000000e+000
    outer loop
      vertex -3.520405e+001 -4.235816e+000  0.000000e+000
      vertex -3.479048e+001 -6.192589e+000  0.000000e+000
      vertex -3.520405e+001 -4.235816e+000  2.000000e+000
    endloop
  endfacet
  facet normal -9.783864e-001 -2.067852e-001  0.000000e+000
    outer loop
      vertex -3.520405e+001 -4.235816e+000  2.000000e+000
      vertex -3.479048e+001 -6.192589e+000  0.000000e+000
      vertex -3.479048e+001 -6.192589e+000  2.000000e+000
    endloop
  endfacet
  facet normal -9.816282e-001 -1.908037e-001  0.000000e+000
    outer loop
      vertex -2.683878e+001 -1.915876e+001  2.000000e+000
      vertex -2.683878e+001 -1.915876e+001  0.000000e+000
      vertex -2.224416e+001 -4.279668e+001  2.000000e+000
    endloop
  endfacet
  facet normal -9.816282e-001 -1.908037e-001  -0.000000e+000
    outer loop
      vertex -2.224416e+001 -4.279668e+001  2.000000e+000
      vertex -2.683878e+001 -1.915876e+001  0.000000e+000
      vertex -2.224416e+001 -4.279668e+001  0.000000e+000
    endloop
  endfacet
  facet normal  1.250602e-001 -9.921492e-001  0.000000e+000
    outer loop
      vertex -3.916869e+001 -2.071294e+001  2.000000e+000
      vertex -3.916869e+001 -2.071294e+001  0.000000e+000
      vertex -2.683878e+001 -1.915876e+001  2.000000e+000
    endloop
  endfacet
  facet normal  1.250602e-001 -9.921492e-001  0.000000e+000
    outer loop
      vertex -2.683878e+001 -1.915876e+001  2.000000e+000
      vertex -3.916869e+001 -2.071294e+001  0.000000e+000
      vertex -2.683878e+001 -1.915876e+001  0.000000e+000
    endloop
  endfacet
  facet normal -8.244400e-001 -5.659494e-001  0.000000e+000
    outer loop
      vertex -4.009305e+001 -1.936640e+001  0.000000e+000
      vertex -3.916869e+001 -2.071294e+001  0.000000e+000
      vertex -4.009305e+001 -1.936640e+001  2.000000e+000
    endloop
  endfacet
  facet normal -8.244400e-001 -5.659494e-001  0.000000e+000
    outer loop
      vertex -4.009305e+001 -1.936640e+001  2.000000e+000
      vertex -3.916869e+001 -2.071294e+001  0.000000e+000
      vertex -3.916869e+001 -2.071294e+001  2.000000e+000
    endloop
  endfacet
  facet normal -7.293493e-002 -9.973367e-001  0.000000e+000
    outer loop
      vertex -4.666171e+001 -1.888604e+001  2.000000e+000
      vertex -4.666171e+001 -1.888604e+001  0.000000e+000
      vertex -4.009305e+001 -1.936640e+001  2.000000e+000
    endloop
  endfacet
  facet normal -7.293493e-002 -9.973367e-001  -0.000000e+000
    outer loop
      vertex -4.009305e+001 -1.936640e+001  2.000000e+000
      vertex -4.666171e+001 -1.888604e+001  0.000000e+000
      vertex -4.009305e+001 -1.936640e+001  0.000000e+000
    endloop
  endfacet
  facet normal -9.137122e-001 -4.063618e-001  0.000000e+000
    outer loop
      vertex -4.898098e+001 -1.367109e+001  2.000000e+000
      vertex -4.898098e+001 -1.367109e+001  0.000000e+000
      vertex -4.666171e+001 -1.888604e+001  2.000000e+000
    endloop
  endfacet
  facet normal -9.137122e-001 -4.063618e-001  -0.000000e+000
    outer loop
      vertex -4.666171e+001 -1.888604e+001  2.000000e+000
      vertex -4.898098e+001 -1.367109e+001  0.000000e+000
      vertex -4.666171e+001 -1.888604e+001  0.000000e+000
    endloop
  endfacet
  facet normal -5.991216e-001  8.006580e-001  0.000000e+000
    outer loop
      vertex -4.898098e+001 -1.367109e+001  0.000000e+000
      vertex -4.898098e+001 -1.367109e+001  2.000000e+000
      vertex -4.191413e+001 -8.383063e+000  0.000000e+000
    endloop
  endfacet
  facet normal -5.991216e-001  8.006580e-001  0.000000e+000
    outer loop
      vertex -4.191413e+001 -8.383063e+000  0.000000e+000
      vertex -4.898098e+001 -1.367109e+001  2.000000e+000
      vertex -4.191413e+001 -8.383063e+000  2.000000e+000
    endloop
  endfacet
  facet normal -9.925029e-001  1.222213e-001  0.000000e+000
    outer loop
      vertex -4.191413e+001 -8.383063e+000  0.000000e+000
      vertex -4.191413e+001 -8.383063e+000  2.000000e+000
      vertex -4.126290e+001 -3.094694e+000  0.000000e+000
    endloop
  endfacet
  facet normal -9.925029e-001  1.222213e-001  0.000000e+000
    outer loop
      vertex -4.126290e+001 -3.094694e+000  0.000000e+000
      vertex -4.191413e+001 -8.383063e+000  2.000000e+000
      vertex -4.126290e+001 -3.094694e+000  2.000000e+000
    endloop
  endfacet
  facet normal -5.518961e-001  8.339130e-001  0.000000e+000
    outer loop
      vertex -4.126290e+001 -3.094694e+000  0.000000e+000
      vertex -4.126290e+001 -3.094694e+000  2.000000e+000
      vertex -3.570407e+001  5.842179e-001  0.000000e+000
    endloop
  endfacet
  facet normal -5.518961e-001  8.339130e-001  0.000000e+000
    outer loop
      vertex -3.570407e+001  5.842179e-001  0.000000e+000
      vertex -4.126290e+001 -3.094694e+000  2.000000e+000
      vertex -3.570407e+001  5.842179e-001  2.000000e+000
    endloop
  endfacet
  facet normal -9.659261e-001  2.588182e-001  0.000000e+000
    outer loop
      vertex -3.487706e+001  3.670691e+000  2.000000e+000
      vertex -3.487706e+001  3.670691e+000  0.000000e+000
      vertex -3.570407e+001  5.842179e-001  2.000000e+000
    endloop
  endfacet
  facet normal -9.659261e-001  2.588182e-001  0.000000e+000
    outer loop
      vertex -3.570407e+001  5.842179e-001  2.000000e+000
      vertex -3.487706e+001  3.670691e+000  0.000000e+000
      vertex -3.570407e+001  5.842179e-001  0.000000e+000
    endloop
  endfacet
  facet normal -1.571233e-001  9.875790e-001  0.000000e+000
    outer loop
      vertex -3.126209e+001  4.245831e+000  2.000000e+000
      vertex -3.126209e+001  4.245831e+000  0.000000e+000
      vertex -3.487706e+001  3.670691e+000  2.000000e+000
    endloop
  endfacet
  facet normal -1.571233e-001  9.875790e-001  0.000000e+000
    outer loop
      vertex -3.487706e+001  3.670691e+000  2.000000e+000
      vertex -3.126209e+001  4.245831e+000  0.000000e+000
      vertex -3.487706e+001  3.670691e+000  0.000000e+000
    endloop
  endfacet
  facet normal  9.263455e-001  3.766748e-001  -0.000000e+000
    outer loop
      vertex -2.995817e+001  1.039131e+000  2.000000e+000
      vertex -2.995817e+001  1.039131e+000  0.000000e+000
      vertex -3.126209e+001  4.245831e+000  2.000000e+000
    endloop
  endfacet
  facet normal  9.263455e-001  3.766748e-001  0.000000e+000
    outer loop
      vertex -3.126209e+001  4.245831e+000  2.000000e+000
      vertex -2.995817e+001  1.039131e+000  0.000000e+000
      vertex -3.126209e+001  4.245831e+000  0.000000e+000
    endloop
  endfacet
  facet normal  1.089640e-001  9.940457e-001  0.000000e+000
    outer loop
      vertex -2.995817e+001  1.039131e+000  0.000000e+000
      vertex -2.995817e+001  1.039131e+000  2.000000e+000
      vertex -1.836567e+001 -2.315994e-001  0.000000e+000
    endloop
  endfacet
  facet normal  1.089640e-001  9.940457e-001  -0.000000e+000
    outer loop
      vertex -1.836567e+001 -2.315994e-001  0.000000e+000
      vertex -2.995817e+001  1.039131e+000  2.000000e+000
      vertex -1.836567e+001 -2.315994e-001  2.000000e+000
    endloop
  endfacet
  facet normal -1.499319e-001  9.886963e-001  0.000000e+000
    outer loop
      vertex -1.836567e+001 -2.315994e-001  0.000000e+000
      vertex -1.836567e+001 -2.315994e-001  2.000000e+000
      vertex  1.220579e+001  4.404444e+000  0.000000e+000
    endloop
  endfacet
  facet normal -1.499319e-001  9.886963e-001  0.000000e+000
    outer loop
      vertex  1.220579e+001  4.404444e+000  0.000000e+000
      vertex -1.836567e+001 -2.315994e-001  2.000000e+000
      vertex  1.220579e+001  4.404444e+000  2.000000e+000
    endloop
  endfacet
  facet normal  2.126084e-001  9.771376e-001  -0.000000e+000
    outer loop
      vertex  4.508918e+001 -2.750418e+000  2.000000e+000
      vertex  4.508918e+001 -2.750418e+000  0.000000e+000
      vertex  1.220579e+001  4.404444e+000  2.000000e+000
    endloop
  endfacet
  facet normal  2.126084e-001  9.771376e-001  0.000000e+000
    outer loop
      vertex  1.220579e+001  4.404444e+000  2.000000e+000
      vertex  4.508918e+001 -2.750418e+000  0.000000e+000
      vertex  1.220579e+001  4.404444e+000  0.000000e+000
    endloop
  endfacet
  facet normal  1.000000e+000  0.000000e+000  0.000000e+000
    outer loop
      vertex  4.508918e+001 -4.922367e+000  2.000000e+000
      vertex  4.508918e+001 -4.922367e+000  0.000000e+000
      vertex  4.508918e+001 -2.750418e+000  2.000000e+000
    endloop
  endfacet
  facet normal  1.000000e+000  0.000000e+000  0.000000e+000
    outer loop
      vertex  4.508918e+001 -2.750418e+000  2.000000e+000
      vertex  4.508918e+001 -4.922367e+000  0.000000e+000
      vertex  4.508918e+001 -2.750418e+000  0.000000e+000
    endloop
  endfacet
  facet normal  0.000000e+000  1.000000e+000  -0.000000e+000
    outer loop
      vertex  4.915594e+001 -4.922367e+000  2.000000e+000
      vertex  4.915594e+001 -4.922367e+000  0.000000e+000
      vertex  4.508918e+001 -4.922367e+000  2.000000e+000
    endloop
  endfacet
  facet normal  0.000000e+000  1.000000e+000  0.000000e+000
    outer loop
      vertex  4.508918e+001 -4.922367e+000  2.000000e+000
      vertex  4.915594e+001 -4.922367e+000  0.000000e+000
      vertex  4.508918e+001 -4.922367e+000  0.000000e+000
    endloop
  endfacet
  facet normal  1.000000e+000  0.000000e+000  0.000000e+000
    outer loop
      vertex  4.915594e+001 -4.922367e+000  0.000000e+000
      vertex  4.915594e+001 -4.922367e+000  2.000000e+000
      vertex  4.915594e+001 -1.148450e+001  0.000000e+000
    endloop
  endfacet
  facet normal  1.000000e+000  0.000000e+000  0.000000e+000
    outer loop
      vertex  4.915594e+001 -1.148450e+001  0.000000e+000
      vertex  4.915594e+001 -4.922367e+000  2.000000e+000
      vertex  4.915594e+001 -1.148450e+001  2.000000e+000
    endloop
  endfacet
  facet normal  0.000000e+000 -1.000000e+000  -0.000000e+000
    outer loop
      vertex  4.915594e+001 -1.148450e+001  0.000000e+000
      vertex  4.915594e+001 -1.148450e+001  2.000000e+000
      vertex  4.508918e+001 -1.148450e+001  0.000000e+000
    endloop
  endfacet
  facet normal  0.000000e+000 -1.000000e+000  0.000000e+000
    outer loop
      vertex  4.508918e+001 -1.148450e+001  0.000000e+000
      vertex  4.915594e+001 -1.148450e+001  2.000000e+000
      vertex  4.508918e+001 -1.148450e+001  2.000000e+000
    endloop
  endfacet
  facet normal  1.000000e+000  0.000000e+000  0.000000e+000
    outer loop
      vertex  4.508918e+001 -4.279668e+001  2.000000e+000
      vertex  4.508918e+001 -4.279668e+001  0.000000e+000
      vertex  4.508918e+001 -1.148450e+001  2.000000e+000
    endloop
  endfacet
  facet normal  1.000000e+000  0.000000e+000  0.000000e+000
    outer loop
      vertex  4.508918e+001 -1.148450e+001  2.000000e+000
      vertex  4.508918e+001 -4.279668e+001  0.000000e+000
      vertex  4.508918e+001 -1.148450e+001  0.000000e+000
    endloop
  endfacet
endsolid CATIA STL
